<svg xmlns="http://www.w3.org/2000/svg" width="43.119" height="46" viewBox="0 0 43.119 46">
  <g id="shipping-and-delivery" transform="translate(-16.032 0)">
    <g id="Grupo_4" data-name="Grupo 4" transform="translate(16.032 -0.001)">
      <g id="Grupo_3" data-name="Grupo 3" transform="translate(0 0)">
        <path id="Caminho_204" data-name="Caminho 204" d="M58.77,10.149,37.885.066a.674.674,0,0,0-.586,0L16.413,10.149a.674.674,0,0,0-.381.607V35.243a.674.674,0,0,0,.381.607L37.3,45.932a.674.674,0,0,0,.586,0L58.77,35.85a.674.674,0,0,0,.381-.607V10.756A.674.674,0,0,0,58.77,10.149ZM37.592,1.422l19.336,9.334-5.605,2.706a.668.668,0,0,0-.114-.072L32,4.119Zm-7.11,3.459L49.79,14.2l-3.954,1.909-19.3-9.317Zm19.759,10.6v7.057L46.548,24.32V17.263ZM57.8,34.82,38.265,44.252V21.262l4.66-2.25A.674.674,0,0,0,42.34,17.8l-4.748,2.292-1.868-.9a.674.674,0,1,0-.586,1.214l1.781.86v22.99L17.38,34.82V11.83l14.878,7.183a.674.674,0,0,0,.586-1.214L18.256,10.756,24.95,7.525,45.191,17.3l.009.012v8.086a.674.674,0,0,0,.967.607l5.041-2.434a.674.674,0,0,0,.381-.607V14.83l6.214-3V34.82Z" transform="translate(-16.032 0.001)" fill="#cb4d64"/>
      </g>
    </g>
    <g id="Grupo_6" data-name="Grupo 6" transform="translate(18.908 30.66)">
      <g id="Grupo_5" data-name="Grupo 5" transform="translate(0)">
        <path id="Caminho_205" data-name="Caminho 205" d="M52.08,342.808l-3.065-1.48a.674.674,0,0,0-.586,1.214l3.065,1.48a.674.674,0,0,0,.586-1.214Z" transform="translate(-48.048 -341.261)" fill="#cb4d64"/>
      </g>
    </g>
    <g id="Grupo_8" data-name="Grupo 8" transform="translate(18.913 27.464)">
      <g id="Grupo_7" data-name="Grupo 7" transform="translate(0)">
        <path id="Caminho_206" data-name="Caminho 206" d="M54.944,308.6l-5.882-2.839a.674.674,0,0,0-.586,1.214l5.882,2.839a.674.674,0,0,0,.586-1.214Z" transform="translate(-48.096 -305.69)" fill="#cb4d64"/>
      </g>
    </g>
  </g>
</svg>
