<svg xmlns="http://www.w3.org/2000/svg" width="34.878" height="46" viewBox="0 0 34.878 46">
  <g id="seo-and-web" transform="translate(-61.898 0)">
    <g id="Grupo_20" data-name="Grupo 20" transform="translate(66.209 4.32)">
      <g id="Grupo_19" data-name="Grupo 19" transform="translate(0)">
        <path id="Caminho_212" data-name="Caminho 212" d="M128.878,49.494a13.1,13.1,0,0,0-16.252,19.725.725.725,0,0,0,1.144-.89,11.65,11.65,0,0,1,14.454-17.541.725.725,0,1,0,.654-1.294Z" transform="translate(-109.878 -48.082)" fill="#cb4d64"/>
      </g>
    </g>
    <g id="Grupo_22" data-name="Grupo 22" transform="translate(70.991 11.123)">
      <g id="Grupo_21" data-name="Grupo 21" transform="translate(0)">
        <path id="Caminho_213" data-name="Caminho 213" d="M183.115,124.2a.725.725,0,0,0-1.294.654,11.65,11.65,0,0,1-17.542,14.452.725.725,0,1,0-.89,1.144A13.1,13.1,0,0,0,183.115,124.2Z" transform="translate(-163.109 -123.806)" fill="#cb4d64"/>
      </g>
    </g>
    <g id="Grupo_24" data-name="Grupo 24" transform="translate(86.762 7.421)">
      <g id="Grupo_23" data-name="Grupo 23" transform="translate(0)">
        <path id="Caminho_214" data-name="Caminho 214" d="M341.009,83.944c-.18-.2-.368-.4-.561-.6s-.393-.381-.6-.561a.725.725,0,0,0-.96,1.086c.181.16.36.328.531.5s.34.35.5.531a.725.725,0,0,0,1.086-.96Z" transform="translate(-338.647 -82.605)" fill="#cb4d64"/>
      </g>
    </g>
    <g id="Grupo_26" data-name="Grupo 26" transform="translate(61.898 0)">
      <g id="Grupo_25" data-name="Grupo 25" transform="translate(0 0)">
        <path id="Caminho_215" data-name="Caminho 215" d="M96.413,18.724a2.46,2.46,0,0,0,0-2.571l-.954-1.564a1.02,1.02,0,0,1-.137-.689l.284-1.806a2.459,2.459,0,0,0-.987-2.381L93.142,8.638a1.021,1.021,0,0,1-.391-.585l-.43-1.779A2.459,2.459,0,0,0,90.5,4.456l-1.779-.431a1.02,1.02,0,0,1-.585-.391L87.063,2.156a2.459,2.459,0,0,0-2.381-.987l-1.807.284a1.02,1.02,0,0,1-.689-.137L80.622.362a2.46,2.46,0,0,0-2.571,0l-1.564.954a1.02,1.02,0,0,1-.689.137l-1.806-.284a2.459,2.459,0,0,0-2.381.987L70.537,3.633a1.021,1.021,0,0,1-.585.391l-1.779.43a2.46,2.46,0,0,0-1.819,1.819l-.431,1.779a1.02,1.02,0,0,1-.391.585L64.054,9.713a2.459,2.459,0,0,0-.987,2.381l.284,1.807a1.02,1.02,0,0,1-.137.689l-.954,1.564a2.46,2.46,0,0,0,0,2.571l.954,1.564a1.02,1.02,0,0,1,.137.689l-.284,1.806a2.459,2.459,0,0,0,.987,2.381l1.478,1.075a1.02,1.02,0,0,1,.391.585l.43,1.779a2.459,2.459,0,0,0,1.819,1.819l.743.18L63.888,41.815a.725.725,0,0,0,.748,1.016l4.045-.484,2.33,3.341A.725.725,0,0,0,71.6,46c.023,0,.045,0,.068,0a.725.725,0,0,0,.594-.425L77.4,34.118l.651.4a2.46,2.46,0,0,0,2.571,0L81.3,34.1l5.141,11.467a.725.725,0,0,0,.594.425c.023,0,.045,0,.068,0a.725.725,0,0,0,.594-.31l2.33-3.341,4.045.484a.725.725,0,0,0,.748-1.016L89.786,30.6l.715-.173A2.46,2.46,0,0,0,92.32,28.6l.431-1.779a1.02,1.02,0,0,1,.391-.585l1.478-1.075a2.459,2.459,0,0,0,.987-2.381l-.284-1.807a1.02,1.02,0,0,1,.137-.689ZM71.467,43.81l-1.847-2.648a.725.725,0,0,0-.681-.305l-3.206.383,4.58-10.217a1.014,1.014,0,0,1,.221.221l1.075,1.478a2.492,2.492,0,0,0,.342.381l-2.411,5.378a.725.725,0,1,0,1.323.593l2.4-5.359a2.481,2.481,0,0,0,.724-.007l1.807-.284a1.018,1.018,0,0,1,.324,0Zm21.5-2.57-3.206-.383a.724.724,0,0,0-.681.305L87.236,43.81,82.58,33.423a1.021,1.021,0,0,1,.3,0l1.806.284a2.483,2.483,0,0,0,.753,0l2.4,5.363a.725.725,0,1,0,1.323-.593l-2.42-5.4a2.5,2.5,0,0,0,.321-.361l1.075-1.478a1.018,1.018,0,0,1,.244-.238Zm2.206-23.271-.954,1.564A2.473,2.473,0,0,0,93.89,21.2l.284,1.807a1.015,1.015,0,0,1-.407.983l-1.478,1.075a2.472,2.472,0,0,0-.947,1.416l-.431,1.779a1.015,1.015,0,0,1-.751.751l-1.779.43a2.472,2.472,0,0,0-1.416.947L85.89,31.869a1.015,1.015,0,0,1-.983.407L83.1,31.992a2.472,2.472,0,0,0-1.669.331l-1.564.954a1.016,1.016,0,0,1-1.061,0l-1.564-.954a2.471,2.471,0,0,0-1.669-.331l-1.807.284a1.015,1.015,0,0,1-.983-.407l-1.075-1.478a2.472,2.472,0,0,0-1.416-.947l-1.779-.431a1.015,1.015,0,0,1-.751-.751l-.43-1.779a2.472,2.472,0,0,0-.947-1.416l-1.478-1.075a1.015,1.015,0,0,1-.407-.983l.284-1.806a2.472,2.472,0,0,0-.331-1.669L63.5,17.969a1.015,1.015,0,0,1,0-1.061l.954-1.564a2.472,2.472,0,0,0,.331-1.669L64.5,11.868a1.015,1.015,0,0,1,.407-.983L66.385,9.81a2.472,2.472,0,0,0,.947-1.416l.431-1.779a1.015,1.015,0,0,1,.751-.751l1.779-.43a2.471,2.471,0,0,0,1.416-.947l1.075-1.478a1.015,1.015,0,0,1,.983-.407l1.806.284a2.471,2.471,0,0,0,1.669-.331L78.806,1.6a1.016,1.016,0,0,1,1.061,0l1.564.954a2.471,2.471,0,0,0,1.669.331L84.908,2.6a1.016,1.016,0,0,1,.983.407l1.075,1.478a2.472,2.472,0,0,0,1.416.947l1.779.431a1.015,1.015,0,0,1,.751.751l.43,1.779a2.472,2.472,0,0,0,.947,1.416l1.478,1.075a1.015,1.015,0,0,1,.407.983l-.284,1.806a2.472,2.472,0,0,0,.331,1.669l.954,1.564A1.015,1.015,0,0,1,95.175,17.969Z" transform="translate(-61.898 0)" fill="#cb4d64"/>
      </g>
    </g>
    <g id="Grupo_28" data-name="Grupo 28" transform="translate(70.788 9.02)">
      <g id="Grupo_27" data-name="Grupo 27" transform="translate(0)">
        <path id="Caminho_216" data-name="Caminho 216" d="M177.88,106.561a1.3,1.3,0,0,0-1.092-.9l-4.362-.517-1.84-3.989a1.31,1.31,0,0,0-2.379,0l-1.84,3.989-4.362.517a1.31,1.31,0,0,0-.735,2.262l3.225,2.982-.856,4.308a1.314,1.314,0,0,0,1.283,1.568,1.311,1.311,0,0,0,.641-.169l3.833-2.145,3.833,2.145a1.31,1.31,0,0,0,1.925-1.4l-.856-4.308,3.225-2.982A1.3,1.3,0,0,0,177.88,106.561Zm-4.864,3.56a.725.725,0,0,0-.219.673l.876,4.409-3.922-2.2a.725.725,0,0,0-.708,0l-3.922,2.2.876-4.409a.724.724,0,0,0-.219-.673l-3.3-3.052,4.464-.529a.725.725,0,0,0,.573-.416l1.883-4.082,1.883,4.082a.725.725,0,0,0,.573.416l4.464.529Z" transform="translate(-160.849 -100.398)" fill="#cb4d64"/>
      </g>
    </g>
  </g>
</svg>
