<?xml version="1.0" encoding="UTF-8"?>
<!DOCTYPE svg PUBLIC "-//W3C//DTD SVG 1.1//EN" "http://www.w3.org/Graphics/SVG/1.1/DTD/svg11.dtd">
<!-- Creator: CorelDRAW 2018 (64 Bit Versão de avaliação) -->
<svg xmlns="http://www.w3.org/2000/svg" xml:space="preserve" width="123px" height="75px" version="1.1" style="shape-rendering:geometricPrecision; text-rendering:geometricPrecision; image-rendering:optimizeQuality; fill-rule:evenodd; clip-rule:evenodd"
viewBox="0 0 49.29 29.98"
 xmlns:xlink="http://www.w3.org/1999/xlink">
 <defs>
  <style type="text/css">
   <![CDATA[
    .fil0 {fill:#FEFEFE;fill-rule:nonzero}
   ]]>
  </style>
 </defs>
 <g id="Camada_x0020_1">
  <metadata id="CorelCorpID_0Corel-Layer"/>
  <path class="fil0" d="M32.38 17.4c0.46,-1.36 -0.67,-0.58 -0.88,-0.37 -0.21,0.22 -0.35,0.38 -0.44,0.49 -0.15,0.18 -2.06,2.61 -2.04,2.6l-1.04 1.65c-0.21,0.37 -0.32,0.56 -0.33,0.58l-0.01 0 0.12 -0.7c0.07,-0.36 0.33,-1.35 0.46,-1.71 0.27,-0.76 0.72,-1.72 1.36,-2.87 0.13,-0.21 0.22,-0.38 0.27,-0.52 0.15,-0.44 -0.46,-0.55 -0.94,-0.23 -0.52,0.36 -0.98,0.72 -1.63,1.56 -0.65,0.85 -1.32,1.95 -1.94,3.35 -0.31,0.71 -0.31,0.71 -0.54,1.21 -0.19,0.41 -0.35,0.74 -0.49,0.99 -0.97,1.79 -2.1,2.31 -3,2.3 -0.57,0 -2.12,-0.99 -1.11,-2.53 0.23,-0.21 0.47,-0.34 0.73,-0.39 0.28,-0.05 0.53,-0.03 0.77,0.07 0.23,0.1 0.42,0.24 0.56,0.43 0.1,0.12 0.2,0.18 0.29,0.16 0.13,-0.01 0.18,-0.06 0.14,-0.15 -0.11,-0.23 -0.32,-0.42 -0.65,-0.56 -0.33,-0.14 -0.68,-0.19 -1.06,-0.14 -0.56,0.07 -1.02,0.33 -1.37,0.76 -0.39,0.48 -0.99,2.03 0.77,2.85 1.39,0.44 2.65,-0.27 3.54,-1.33 0.37,-0.55 0.81,-1.36 1.32,-2.42l0.16 -0.35 -0.01 -0.02c0,0 0.74,-1.58 0.94,-1.97 0.48,-0.96 0.99,-1.77 1.53,-2.42 0.13,-0.17 0.28,-0.34 0.45,-0.52 0.16,-0.17 0.25,-0.25 0.27,-0.26l-0.05 0.1c-0.37,0.58 -0.73,1.23 -1.06,1.96 -0.34,0.73 -0.58,1.39 -0.73,1.99 -0.01,0.06 -0.15,0.73 -0.17,1 -0.05,0.39 -0.07,0.77 -0.05,1.15 0.01,0.37 0.05,0.61 0.11,0.7 0.08,0.1 0.23,0.14 0.47,0.11 0.19,-0.03 0.33,-0.1 0.39,-0.23 0.04,-0.06 0.15,-0.29 0.33,-0.68 0.34,-0.73 0.66,-1.34 0.95,-1.83 0.28,-0.49 0.67,-1.07 1.15,-1.76 0.55,-0.76 0.91,-1.21 1.08,-1.34 0.04,-0.04 0.04,-0.02 0.01,0.04 -0.18,0.34 -0.38,0.83 -0.6,1.46 -0.38,1.03 -0.64,2.02 -0.78,2.97 -0.14,0.94 -0.15,1.73 -0.04,2.38 0.1,0.52 0.26,1.04 0.77,1.36 0.53,0.35 0.99,0.46 1.37,0.47 0.36,0 1.12,-0.2 1.79,-0.77 0.11,-0.09 0.09,-0.14 -0.03,-0.07 -0.47,0.29 -0.98,0.5 -1.44,0.46 -0.39,-0.03 -0.75,-0.24 -0.82,-0.32 -0.51,-0.49 -0.57,-1.53 -0.58,-1.7 -0.03,-0.68 0.11,-1.54 0.43,-2.87 0.12,-0.49 0.82,-3.17 1.3,-4.12z"/>
  <path class="fil0" d="M43.23 22.66c0.3,-0.65 0.42,-1 0.37,-1.07 -0.03,-0.03 -0.1,-0.05 -0.21,-0.06 -0.1,0 -0.18,0.01 -0.22,0.03 -0.07,0.03 -0.14,0.15 -0.2,0.37 -0.17,0.48 -0.41,1.02 -0.73,1.62 -0.31,0.59 -0.62,1.04 -0.92,1.34 -0.1,0.11 -0.21,0.21 -0.33,0.3 -0.13,0.09 -0.2,0.12 -0.22,0.1 -0.04,-0.05 0.17,-0.82 0.63,-2.33 0.22,-0.72 0.34,-1.21 0.34,-1.45 0.01,-0.27 -0.05,-0.47 -0.19,-0.6 -0.13,-0.13 -0.36,-0.23 -0.7,-0.3 -0.74,-0.14 -1.21,-0.24 -1.39,-0.3l-0.29 -0.08 -0.06 -0.2c-0.09,-0.32 -0.26,-0.48 -0.5,-0.48 -0.09,0 -0.18,0.01 -0.26,0.05 -0.08,0.04 -0.14,0.08 -0.18,0.13 -0.05,0.1 -0.05,0.21 0.01,0.35 0.06,0.13 0.17,0.23 0.31,0.3 0.08,0.03 0.12,0.1 0.12,0.2 -0.01,0.24 -0.12,0.69 -0.32,1.35 -0.07,0.22 -0.1,0.36 -0.11,0.41 0,0.06 0.02,0.1 0.06,0.12 0.19,0.06 0.33,0.01 0.43,-0.15 0.06,-0.09 0.13,-0.27 0.22,-0.53 0.09,-0.27 0.15,-0.5 0.2,-0.7 0.03,-0.21 0.05,-0.33 0.07,-0.36 0.01,-0.03 0.23,0.01 0.68,0.11 0.33,0.07 0.54,0.13 0.63,0.17 0.09,0.04 0.13,0.09 0.13,0.16 0,0.04 -0.13,0.47 -0.4,1.26 -0.26,0.8 -0.44,1.36 -0.52,1.68 -0.08,0.31 -0.12,0.58 -0.11,0.8 0.01,0.3 0.09,0.52 0.23,0.65 0.15,0.14 0.37,0.2 0.65,0.2 0.9,0.02 1.83,-1.01 2.78,-3.09zm-0.93 -0.42c-0.32,0.74 -0.47,1.36 -0.43,1.88 0.05,0.83 0.41,1.26 1.08,1.32 0.34,0.02 0.65,-0.06 0.92,-0.23 0.14,-0.09 0.33,-0.25 0.56,-0.47 0.23,-0.22 0.4,-0.4 0.5,-0.54 0.1,-0.14 0.16,-0.21 0.17,-0.21 0.01,0 0.01,0.03 0,0.08 0,0.06 -0.01,0.14 -0.01,0.24 -0.01,0.1 -0.01,0.2 0,0.31 0,0.11 0.02,0.23 0.05,0.34 0.03,0.12 0.06,0.22 0.11,0.3 0.07,0.16 0.24,0.27 0.48,0.32 0.24,0.05 0.49,0.03 0.73,-0.06 0.38,-0.14 0.78,-0.47 1.19,-1 0.42,-0.52 0.76,-1.06 1.04,-1.61 0.37,-0.72 0.55,-1.13 0.55,-1.22 0,-0.02 -0.05,-0.04 -0.14,-0.06 -0.1,-0.02 -0.17,-0.03 -0.23,-0.02 -0.06,0.01 -0.12,0.05 -0.17,0.13 -0.05,0.07 -0.14,0.24 -0.26,0.5 -0.45,1.05 -0.95,1.83 -1.48,2.37 -0.41,0.41 -0.68,0.61 -0.8,0.61 -0.03,0 -0.05,-0.05 -0.06,-0.15 0,-0.1 0,-0.22 0.02,-0.37 0.02,-0.15 0.04,-0.29 0.08,-0.43 0.14,-0.65 0.36,-1.42 0.66,-2.29 0.27,-0.79 0.42,-1.28 0.45,-1.48 0.03,-0.2 -0.01,-0.33 -0.12,-0.39 -0.13,-0.06 -0.29,-0.08 -0.49,-0.05 -0.19,0.02 -0.32,0.09 -0.39,0.19 -0.04,0.05 -0.1,0.14 -0.16,0.26l-0.1 0.2 -0.1 -0.15c-0.12,-0.19 -0.23,-0.32 -0.36,-0.41 -0.13,-0.09 -0.29,-0.15 -0.49,-0.19 -0.31,-0.04 -0.59,-0.01 -0.83,0.09 -0.24,0.1 -0.52,0.29 -0.85,0.56 -0.43,0.36 -0.8,0.9 -1.12,1.63zm3.12 -1.6c0.16,0.21 0.26,0.41 0.31,0.59 0.02,0.13 -0.01,0.33 -0.1,0.6 -0.09,0.26 -0.16,0.5 -0.22,0.7 -0.09,0.33 -0.34,0.76 -0.76,1.29 -0.42,0.54 -0.78,0.89 -1.08,1.07 -0.23,0.13 -0.35,0.15 -0.39,0.05 -0.06,-0.28 -0.02,-0.73 0.14,-1.36 0.17,-0.62 0.39,-1.23 0.68,-1.82 0.19,-0.39 0.33,-0.66 0.44,-0.81 0.1,-0.16 0.22,-0.3 0.34,-0.44 0.12,-0.13 0.21,-0.2 0.25,-0.2 0.1,0 0.23,0.11 0.39,0.33z"/>
  <path class="fil0" d="M31.82 22.69c-0.32,0.73 -0.46,1.36 -0.43,1.88 0.06,0.82 0.42,1.26 1.08,1.32 0.34,0.02 0.65,-0.06 0.92,-0.24 0.14,-0.09 0.33,-0.24 0.56,-0.46 0.24,-0.23 0.4,-0.41 0.5,-0.54 0.1,-0.14 0.16,-0.21 0.17,-0.21 0.01,0 0.01,0.02 0.01,0.08 -0.01,0.06 -0.01,0.13 -0.02,0.23 -0.01,0.1 -0.01,0.21 0,0.32 0.01,0.11 0.02,0.22 0.05,0.34 0.03,0.12 0.06,0.21 0.11,0.29 0.08,0.17 0.24,0.28 0.48,0.33 0.24,0.05 0.49,0.03 0.73,-0.06 0.38,-0.15 0.78,-0.48 1.19,-1 0.42,-0.52 0.77,-1.06 1.04,-1.61 0.37,-0.73 0.55,-1.13 0.55,-1.22 0,-0.02 -0.05,-0.04 -0.14,-0.07 -0.09,-0.02 -0.17,-0.02 -0.22,-0.01 -0.07,0.01 -0.13,0.05 -0.18,0.12 -0.05,0.07 -0.13,0.24 -0.26,0.51 -0.45,1.04 -0.95,1.83 -1.48,2.36 -0.41,0.41 -0.67,0.62 -0.8,0.62 -0.03,0 -0.05,-0.05 -0.06,-0.15 0,-0.1 0,-0.23 0.02,-0.38 0.02,-0.15 0.04,-0.29 0.08,-0.42 0.14,-0.65 0.36,-1.42 0.66,-2.3 0.27,-0.78 0.42,-1.28 0.45,-1.48 0.03,-0.2 0,-0.32 -0.11,-0.38 -0.14,-0.07 -0.3,-0.09 -0.5,-0.06 -0.19,0.03 -0.32,0.09 -0.39,0.19 -0.04,0.06 -0.1,0.15 -0.16,0.27l-0.1 0.2 -0.1 -0.15c-0.11,-0.19 -0.23,-0.33 -0.36,-0.42 -0.13,-0.09 -0.29,-0.15 -0.49,-0.18 -0.31,-0.04 -0.59,-0.02 -0.83,0.08 -0.23,0.1 -0.52,0.29 -0.85,0.57 -0.42,0.35 -0.8,0.9 -1.12,1.63zm3.12 -1.61c0.16,0.22 0.27,0.42 0.31,0.59 0.02,0.14 -0.01,0.34 -0.1,0.6 -0.09,0.27 -0.16,0.5 -0.22,0.7 -0.08,0.34 -0.34,0.77 -0.76,1.3 -0.42,0.53 -0.78,0.89 -1.08,1.07 -0.23,0.13 -0.35,0.15 -0.39,0.05 -0.06,-0.28 -0.02,-0.73 0.15,-1.36 0.16,-0.63 0.38,-1.23 0.67,-1.82 0.19,-0.39 0.34,-0.66 0.44,-0.82 0.11,-0.15 0.22,-0.3 0.34,-0.43 0.12,-0.13 0.21,-0.2 0.25,-0.2 0.1,0 0.23,0.11 0.39,0.32z"/>
  <path class="fil0" d="M20.73 16.45c-1.71,-0.3 -3.4,-1.5 -3.95,-1.75l-0.6 -0.26 0.18 -0.13c0.23,-0.19 0.45,-0.47 0.65,-0.86 0.29,-0.55 0.58,-1.28 0.86,-2.2 0.16,-0.51 0.24,-0.79 0.26,-0.83 0.02,-0.04 0.12,-0.1 0.32,-0.16 0.69,-0.22 1.33,-0.61 1.95,-1.16 0.4,-0.35 0.75,-0.74 1.05,-1.17 0.29,-0.43 0.5,-0.84 0.61,-1.23 0.12,-0.42 0.11,-0.79 -0.03,-1.1 -0.14,-0.31 -0.39,-0.53 -0.75,-0.67 -0.18,-0.05 -0.39,-0.07 -0.62,-0.06 -0.24,0.01 -0.42,0.04 -0.53,0.09 -1.23,0.47 -2.22,1.86 -2.96,4.18 -0.15,0.46 -0.24,0.77 -0.28,0.92 -0.04,0.14 -0.08,0.22 -0.11,0.24 -0.04,0.02 -0.13,0.01 -0.27,-0.02 -0.49,-0.1 -0.93,-0.29 -1.33,-0.59 -0.4,-0.3 -0.7,-0.66 -0.91,-1.08 -0.07,-0.13 -0.12,-0.3 -0.17,-0.53 -0.05,-0.22 -0.07,-1.15 0.26,-1.66 0.22,-0.34 0.59,-0.7 1.22,-0.98 0.05,-0.02 0.3,-0.09 0.38,-0.09 0.6,-0.06 0.98,0.09 1.13,0.28 0.21,0.25 0.3,0.54 0.27,0.87 -0.01,0.09 -0.09,0.46 -0.25,0.61 -0.16,0.15 -0.14,0.09 -0.24,0.14 -0.1,0.04 -0.17,0.03 -0.2,-0.02 -0.04,-0.06 -0.09,-0.14 -0.2,-0.16 -0.11,-0.01 -0.18,0.05 -0.18,0.1 -0.05,0.19 0.32,0.37 0.71,0.32 0.39,-0.06 0.61,-0.38 0.66,-0.46 0.2,-0.44 0.22,-0.85 0.04,-1.23 -0.17,-0.38 -0.48,-0.64 -0.91,-0.77 -0.13,-0.04 -0.71,-0.22 -1.41,-0.01 -0.7,0.22 -1.63,0.9 -1.79,1.81 -0.16,0.92 -0.07,1.18 0.15,1.69 0.23,0.51 0.59,0.95 1.09,1.32 0.51,0.36 1.05,0.58 1.63,0.65 0.15,0.01 0.24,0.02 0.26,0.03 0.01,0.02 -0.04,0.24 -0.17,0.67 -0.13,0.44 -0.25,0.79 -0.35,1.06 -0.31,0.81 -0.55,1.36 -0.73,1.63 -0.07,0.12 -0.14,0.19 -0.19,0.2 -0.05,0.01 -0.2,-0.02 -0.45,-0.08 -0.41,-0.1 -1.1,-0.36 -1.9,-0.04 -0.17,0.06 -0.32,0.17 -0.44,0.32 -0.17,0.19 -0.24,0.39 -0.23,0.59 0.01,0.11 0.09,0.33 0.33,0.52 0.2,0.16 0.51,0.3 1.07,0.32 0.64,0.01 1.47,-0.56 1.63,-0.64 0.16,-0.07 0.27,-0.13 0.32,-0.16l0.63 0.31c0.41,0.2 0.77,0.38 1.06,0.54 0.59,0.31 1.14,0.56 1.66,0.76 0.52,0.2 1.01,0.34 1.46,0.41 0.68,0.09 1.14,0.04 1.46,-0.07 0.65,-0.23 0.68,-0.74 0.73,-1.04 -0.29,0.36 -0.74,0.83 -1.88,0.63zm-5.87 -1.9c-0.06,0.12 -0.29,0.28 -0.7,0.5 -0.73,0.36 -1.17,0.17 -1.29,-0.06 -0.04,-0.11 -0.01,-0.38 0.28,-0.56 0.21,-0.13 0.88,-0.23 1.49,0 0.15,0.07 0.22,0.11 0.22,0.12zm3.37 -4.45c0,-0.01 0.06,-0.24 0.2,-0.7 0.3,-0.94 0.62,-1.68 0.96,-2.22 0.41,-0.62 0.71,-1.06 0.91,-1.31 0.2,-0.26 0.39,-0.43 0.57,-0.51 0.1,-0.05 0.17,-0.08 0.2,-0.09 0.03,-0.01 0.07,-0.01 0.13,0 0.06,0.02 0.11,0.06 0.18,0.13 0.18,0.2 0.27,0.48 0.26,0.83 -0.01,0.33 -0.12,0.69 -0.31,1.08 -0.26,0.52 -0.61,1.01 -1.06,1.46 -0.45,0.46 -0.94,0.82 -1.45,1.09 -0.09,0.04 -0.19,0.09 -0.28,0.13 -0.09,0.05 -0.17,0.08 -0.23,0.09 -0.05,0.02 -0.08,0.03 -0.08,0.02z"/>
  <path class="fil0" d="M24.45 13.91c0.37,-0.5 0.66,-1 0.9,-1.5 0.32,-0.67 0.46,-1.02 0.43,-1.07 -0.03,-0.03 -0.09,-0.05 -0.17,-0.06 -0.07,-0.01 -0.15,-0.01 -0.21,0.01 -0.08,0.04 -0.19,0.21 -0.34,0.54 -0.46,1.03 -0.94,1.82 -1.43,2.36 -0.11,0.12 -0.27,0.27 -0.49,0.44 -0.21,0.17 -0.34,0.26 -0.39,0.26 -0.02,0 -0.04,-0.01 -0.05,-0.02 -0.18,-0.14 0.05,-1.15 0.67,-3.01 0.39,-1.18 0.57,-1.82 0.55,-1.93 -0.03,-0.09 -0.12,-0.15 -0.29,-0.19 -0.18,-0.04 -0.35,-0.04 -0.53,0.01 -0.14,0.04 -0.27,0.18 -0.39,0.42 -0.12,0.24 -0.3,0.74 -0.56,1.51 -0.16,0.46 -0.39,0.93 -0.66,1.39 -0.28,0.46 -0.56,0.83 -0.85,1.12 -0.16,0.15 -0.32,0.3 -0.5,0.43 -0.18,0.13 -0.28,0.19 -0.32,0.17 -0.02,-0.02 -0.02,-0.16 -0.01,-0.4 0.02,-0.5 0.23,-1.34 0.65,-2.53 0.37,-1.14 0.56,-1.79 0.56,-1.95 0,-0.1 -0.04,-0.17 -0.11,-0.21 -0.07,-0.03 -0.2,-0.05 -0.39,-0.05 -0.21,0 -0.35,0.02 -0.43,0.07 -0.08,0.05 -0.17,0.18 -0.27,0.37 -0.25,0.53 -0.49,1.21 -0.72,2.04 -0.23,0.84 -0.33,1.55 -0.31,2.13 0.01,0.25 0.06,0.44 0.13,0.56 0.12,0.2 0.3,0.32 0.55,0.37 0.26,0.04 0.52,0 0.8,-0.14 0.15,-0.07 0.33,-0.21 0.55,-0.41 0.22,-0.2 0.42,-0.41 0.58,-0.62 0.15,-0.17 0.23,-0.27 0.24,-0.3 0.01,-0.01 0.01,0.01 0.01,0.07 0,0.55 0.04,0.91 0.12,1.06 0.13,0.27 0.36,0.41 0.69,0.44 0.33,0.02 0.63,-0.07 0.91,-0.27 0.35,-0.24 0.71,-0.61 1.08,-1.11zm3.4 0.48c0.36,-0.28 0.65,-0.55 0.86,-0.82 0.25,-0.31 0.51,-0.68 0.76,-1.12 0.26,-0.44 0.4,-0.74 0.42,-0.91 0.02,-0.1 0,-0.16 -0.08,-0.18 -0.15,-0.06 -0.26,-0.06 -0.34,0 -0.07,0.06 -0.15,0.18 -0.23,0.38 -0.15,0.41 -0.39,0.83 -0.71,1.27 -0.33,0.43 -0.66,0.78 -1.02,1.05 -0.53,0.41 -1.01,0.64 -1.43,0.71 -0.1,0.01 -0.18,-0.03 -0.25,-0.12 -0.12,-0.14 -0.2,-0.38 -0.23,-0.73 -0.06,-0.76 0.24,-1.78 0.9,-3.06 0.13,-0.27 0.27,-0.49 0.41,-0.67 0.15,-0.19 0.25,-0.27 0.3,-0.26 0.07,0.03 0.16,0.2 0.28,0.5 0.11,0.3 0.17,0.52 0.17,0.66 0,0.13 0.09,0.19 0.27,0.19 0.12,0 0.2,-0.03 0.23,-0.08 0.03,-0.05 0.05,-0.17 0.05,-0.36 0,-0.42 -0.09,-0.75 -0.27,-0.99 -0.17,-0.23 -0.45,-0.35 -0.81,-0.35 -0.35,0 -0.69,0.11 -1.03,0.35 -0.68,0.45 -1.22,1.18 -1.62,2.18 -0.12,0.32 -0.21,0.66 -0.28,1.04 -0.07,0.37 -0.08,0.66 -0.05,0.87 0.09,0.58 0.4,0.96 0.95,1.16 0.54,0.2 1.14,0.16 1.78,-0.11 0.29,-0.12 0.61,-0.32 0.97,-0.6zm1.52 -4.14c-0.12,0.25 -0.28,0.69 -0.49,1.31 -0.25,0.72 -0.41,1.39 -0.48,2.01 -0.07,0.62 -0.05,1.06 0.08,1.32 0.13,0.25 0.36,0.39 0.7,0.4 0.33,0.01 0.64,-0.09 0.93,-0.3 0.12,-0.08 0.28,-0.22 0.47,-0.42 0.2,-0.2 0.35,-0.39 0.48,-0.56 0.47,-0.64 0.9,-1.39 1.28,-2.25 0.07,-0.19 0.12,-0.3 0.13,-0.34 0.01,-0.04 0,-0.07 -0.03,-0.09 -0.06,-0.05 -0.12,-0.07 -0.19,-0.07 -0.12,0 -0.2,0.03 -0.25,0.09 -0.05,0.06 -0.14,0.23 -0.26,0.51 -0.63,1.44 -1.33,2.41 -2.08,2.89 -0.15,0.1 -0.23,0.14 -0.26,0.1 -0.03,-0.03 -0.04,-0.16 -0.03,-0.4 0.02,-0.24 0.13,-0.76 0.35,-1.56 0.04,-0.15 0.15,-0.5 0.34,-1.03 0.35,-1.08 0.53,-1.7 0.53,-1.86 0,-0.1 -0.04,-0.18 -0.12,-0.22 -0.1,-0.05 -0.23,-0.06 -0.39,-0.06 -0.16,0.01 -0.28,0.03 -0.37,0.08 -0.11,0.05 -0.23,0.2 -0.34,0.45zm1.79 1.68c-0.33,0.73 -0.47,1.35 -0.44,1.88 0.06,0.82 0.42,1.26 1.08,1.31 0.35,0.02 0.65,-0.05 0.92,-0.23 0.14,-0.09 0.33,-0.25 0.57,-0.47 0.23,-0.22 0.4,-0.4 0.49,-0.54 0.1,-0.14 0.16,-0.21 0.17,-0.21 0.01,0 0.02,0.03 0.01,0.09 -0.01,0.05 -0.01,0.13 -0.02,0.23 0,0.1 0,0.2 0,0.32 0.01,0.11 0.03,0.22 0.05,0.34 0.03,0.11 0.07,0.21 0.11,0.29 0.08,0.16 0.24,0.27 0.48,0.32 0.25,0.05 0.49,0.03 0.74,-0.06 0.37,-0.14 0.77,-0.47 1.19,-0.99 0.41,-0.53 0.76,-1.06 1.04,-1.62 0.36,-0.72 0.54,-1.12 0.54,-1.21 0,-0.03 -0.04,-0.05 -0.14,-0.07 -0.09,-0.02 -0.17,-0.03 -0.22,-0.02 -0.07,0.01 -0.13,0.06 -0.18,0.13 -0.05,0.07 -0.13,0.24 -0.25,0.51 -0.46,1.04 -0.95,1.83 -1.48,2.36 -0.42,0.41 -0.68,0.61 -0.8,0.61 -0.04,0 -0.06,-0.05 -0.06,-0.15 -0.01,-0.1 0,-0.22 0.01,-0.37 0.02,-0.15 0.05,-0.29 0.08,-0.42 0.14,-0.66 0.37,-1.42 0.67,-2.3 0.26,-0.79 0.41,-1.28 0.44,-1.48 0.04,-0.2 0,-0.33 -0.11,-0.38 -0.14,-0.07 -0.3,-0.09 -0.49,-0.06 -0.2,0.02 -0.33,0.09 -0.39,0.19 -0.05,0.05 -0.1,0.14 -0.17,0.26l-0.1 0.2 -0.1 -0.15c-0.11,-0.18 -0.23,-0.32 -0.36,-0.41 -0.13,-0.09 -0.29,-0.15 -0.49,-0.18 -0.31,-0.05 -0.58,-0.02 -0.82,0.08 -0.24,0.1 -0.53,0.29 -0.86,0.56 -0.42,0.36 -0.79,0.9 -1.11,1.64zm3.12 -1.61c0.16,0.22 0.26,0.41 0.3,0.59 0.03,0.13 -0.01,0.33 -0.1,0.6 -0.09,0.27 -0.16,0.5 -0.21,0.7 -0.09,0.33 -0.35,0.76 -0.77,1.3 -0.42,0.53 -0.78,0.88 -1.08,1.06 -0.22,0.13 -0.35,0.15 -0.38,0.05 -0.07,-0.28 -0.02,-0.73 0.14,-1.35 0.16,-0.63 0.38,-1.24 0.67,-1.83 0.19,-0.39 0.34,-0.66 0.44,-0.81 0.11,-0.16 0.22,-0.3 0.35,-0.44 0.12,-0.13 0.2,-0.19 0.24,-0.19 0.1,0 0.23,0.1 0.4,0.32zm3 4.78c0.02,-0.01 0.06,-0.05 0.12,-0.11 0.06,-0.08 0.1,-0.18 0.11,-0.3 0.04,-0.28 0.15,-0.73 0.34,-1.36 0.2,-0.62 0.37,-1.09 0.51,-1.4 0.2,-0.41 0.47,-0.8 0.82,-1.17 0.34,-0.37 0.69,-0.64 1.05,-0.83 0.19,-0.1 0.33,-0.15 0.41,-0.14 0.08,0 0.13,0.06 0.17,0.17 0.04,0.12 0.04,0.3 0,0.53 -0.05,0.24 -0.14,0.58 -0.29,1.02 -0.33,1.03 -0.53,1.74 -0.61,2.12 -0.08,0.38 -0.07,0.66 0.02,0.84 0.13,0.3 0.42,0.45 0.88,0.45 0.36,-0.01 0.65,-0.08 0.87,-0.21 0.22,-0.12 0.48,-0.39 0.78,-0.79 0.38,-0.51 0.72,-1.17 0.99,-1.99 0.13,-0.36 0.18,-0.55 0.15,-0.59 -0.03,-0.03 -0.09,-0.05 -0.19,-0.06 -0.09,0 -0.16,0.01 -0.21,0.05 -0.04,0.03 -0.11,0.19 -0.21,0.48 -0.38,1.06 -0.84,1.87 -1.38,2.43 -0.26,0.26 -0.48,0.39 -0.65,0.36 -0.25,-0.04 -0.19,-0.52 0.16,-1.44 0.44,-1.12 0.66,-2.01 0.67,-2.65 0.01,-0.66 -0.35,-1 -1.08,-1 -0.24,0 -0.47,0.05 -0.69,0.14 -0.23,0.1 -0.43,0.21 -0.59,0.35 -0.17,0.14 -0.32,0.28 -0.46,0.41 -0.14,0.13 -0.25,0.24 -0.33,0.33 -0.07,0.08 -0.12,0.11 -0.13,0.1 -0.01,-0.01 0.05,-0.2 0.18,-0.58 0.1,-0.32 0.16,-0.53 0.16,-0.63 0.01,-0.1 -0.03,-0.17 -0.11,-0.2 -0.12,-0.04 -0.28,-0.05 -0.5,-0.01 -0.21,0.04 -0.36,0.1 -0.44,0.19 -0.13,0.11 -0.32,0.52 -0.57,1.23 -0.47,1.28 -0.7,2.33 -0.7,3.17 0,0.58 0.18,0.93 0.53,1.04 0.13,0.04 0.2,0.05 0.22,0.05zm5.08 -3.17c-0.33,0.73 -0.47,1.35 -0.44,1.88 0.06,0.82 0.42,1.26 1.08,1.31 0.35,0.02 0.65,-0.05 0.92,-0.23 0.14,-0.09 0.33,-0.25 0.57,-0.47 0.23,-0.22 0.39,-0.4 0.49,-0.54 0.1,-0.14 0.16,-0.21 0.17,-0.21 0.01,0 0.01,0.03 0.01,0.09 -0.01,0.05 -0.01,0.13 -0.02,0.23 0,0.1 0,0.2 0,0.32 0.01,0.11 0.02,0.22 0.05,0.34 0.03,0.11 0.07,0.21 0.11,0.29 0.08,0.16 0.24,0.27 0.48,0.32 0.25,0.05 0.49,0.03 0.74,-0.06 0.37,-0.14 0.77,-0.47 1.19,-0.99 0.41,-0.53 0.76,-1.06 1.04,-1.62 0.36,-0.72 0.54,-1.12 0.54,-1.21 0,-0.03 -0.04,-0.05 -0.14,-0.07 -0.09,-0.02 -0.17,-0.03 -0.22,-0.02 -0.07,0.01 -0.13,0.06 -0.18,0.13 -0.05,0.07 -0.13,0.24 -0.25,0.51 -0.46,1.04 -0.95,1.83 -1.49,2.36 -0.41,0.41 -0.67,0.61 -0.79,0.61 -0.04,0 -0.06,-0.05 -0.06,-0.15 -0.01,-0.1 0,-0.22 0.01,-0.37 0.02,-0.15 0.05,-0.29 0.08,-0.42 0.14,-0.66 0.37,-1.42 0.67,-2.3 0.26,-0.79 0.41,-1.28 0.44,-1.48 0.04,-0.2 0,-0.33 -0.11,-0.38 -0.14,-0.07 -0.3,-0.09 -0.49,-0.06 -0.2,0.02 -0.33,0.09 -0.39,0.19 -0.05,0.05 -0.1,0.14 -0.17,0.26l-0.1 0.2 -0.1 -0.15c-0.11,-0.18 -0.23,-0.32 -0.36,-0.41 -0.13,-0.09 -0.29,-0.15 -0.49,-0.18 -0.31,-0.05 -0.58,-0.02 -0.82,0.08 -0.24,0.1 -0.53,0.29 -0.86,0.56 -0.42,0.36 -0.79,0.9 -1.11,1.64zm3.12 -1.61c0.16,0.22 0.26,0.41 0.3,0.59 0.03,0.13 -0.01,0.33 -0.1,0.6 -0.09,0.27 -0.16,0.5 -0.21,0.7 -0.09,0.33 -0.35,0.76 -0.77,1.3 -0.42,0.53 -0.78,0.88 -1.08,1.06 -0.22,0.13 -0.35,0.15 -0.38,0.05 -0.07,-0.28 -0.02,-0.73 0.14,-1.35 0.16,-0.63 0.38,-1.24 0.67,-1.83 0.19,-0.39 0.34,-0.66 0.44,-0.81 0.11,-0.16 0.22,-0.3 0.34,-0.44 0.13,-0.13 0.21,-0.19 0.25,-0.19 0.1,0 0.23,0.1 0.4,0.32z"/>
  <path class="fil0" d="M30.37 9.41c0.37,0 0.68,-0.3 0.68,-0.67 0,-0.38 -0.31,-0.68 -0.68,-0.68 -0.38,0 -0.68,0.3 -0.68,0.68 0,0.37 0.3,0.67 0.68,0.67z"/>
  <path class="fil0" d="M19.77 29.66c-0.1,0.06 -0.22,0.09 -0.35,0.09 -0.15,0 -0.28,-0.04 -0.4,-0.13l1.16 -1.02c-0.07,-0.12 -0.18,-0.22 -0.32,-0.3 -0.13,-0.08 -0.28,-0.12 -0.44,-0.12 -0.24,0 -0.45,0.09 -0.63,0.27 -0.18,0.17 -0.26,0.38 -0.26,0.63 0,0.25 0.08,0.46 0.26,0.63 0.18,0.18 0.39,0.27 0.63,0.27 0.17,0 0.33,-0.04 0.47,-0.13 0.14,-0.09 0.25,-0.2 0.32,-0.34l-0.2 -0.12c-0.05,0.11 -0.13,0.2 -0.24,0.27zm-1.02 -0.58c0,-0.19 0.07,-0.35 0.2,-0.47 0.13,-0.13 0.29,-0.2 0.47,-0.2 0.17,0 0.32,0.06 0.44,0.16l-0.99 0.89c-0.08,-0.12 -0.12,-0.24 -0.12,-0.38zm1.83 0.6c0.05,0.09 0.12,0.16 0.2,0.21 0.08,0.05 0.18,0.07 0.27,0.07 0.1,0 0.19,-0.02 0.28,-0.07 0.08,-0.04 0.14,-0.11 0.19,-0.19 0.04,-0.08 0.07,-0.17 0.07,-0.27 0,-0.12 -0.04,-0.23 -0.11,-0.32 -0.07,-0.1 -0.16,-0.16 -0.28,-0.19l-0.2 -0.06c-0.1,-0.03 -0.16,-0.1 -0.16,-0.21 0,-0.06 0.02,-0.11 0.07,-0.15 0.04,-0.05 0.09,-0.07 0.15,-0.07 0.11,0 0.17,0.04 0.21,0.13l0.2 -0.09c-0.03,-0.08 -0.08,-0.14 -0.16,-0.19 -0.08,-0.05 -0.16,-0.08 -0.25,-0.08 -0.12,0 -0.23,0.04 -0.32,0.13 -0.08,0.09 -0.13,0.19 -0.13,0.32 0,0.1 0.03,0.19 0.1,0.27 0.06,0.08 0.14,0.13 0.24,0.16l0.2 0.06c0.06,0.02 0.11,0.05 0.15,0.11 0.04,0.05 0.06,0.11 0.06,0.18 0,0.09 -0.03,0.16 -0.09,0.22 -0.06,0.06 -0.13,0.09 -0.22,0.09 -0.12,0 -0.21,-0.06 -0.27,-0.17l-0.2 0.11zm1.68 0.25l0.23 0 0 -1.47 0.3 0 0 -0.23 -0.3 0 0 -0.59 -0.23 0.11 0 0.48 -0.31 0 0 0.23 0.31 0 0 1.47zm2.08 -1.7l0 1.07c0,0.12 -0.04,0.22 -0.13,0.31 -0.08,0.09 -0.19,0.14 -0.32,0.14 -0.12,0 -0.22,-0.05 -0.31,-0.13 -0.09,-0.09 -0.14,-0.2 -0.14,-0.32l0 -1.07 -0.23 0 0 1.07c0,0.19 0.07,0.35 0.2,0.48 0.13,0.13 0.29,0.2 0.48,0.2 0.19,0 0.35,-0.07 0.48,-0.21l0.2 0.16 0 -1.7 -0.23 0zm-0.96 -0.25l1.04 -0.45 -0.13 -0.24 -0.96 0.6 0.05 0.09zm1.88 0.47c-0.18,0.17 -0.27,0.38 -0.27,0.63 0,0.25 0.09,0.46 0.27,0.63 0.18,0.18 0.39,0.27 0.63,0.27 0.25,0 0.47,-0.09 0.65,-0.28l0.25 0.23 0 -2.83 -0.23 0 0 1.38c-0.18,-0.2 -0.4,-0.3 -0.67,-0.3 -0.24,0 -0.45,0.09 -0.63,0.27zm1.11 0.16c0.13,0.13 0.19,0.29 0.19,0.47 0,0.19 -0.06,0.35 -0.19,0.48 -0.13,0.13 -0.29,0.19 -0.48,0.19 -0.19,0 -0.35,-0.06 -0.47,-0.19 -0.13,-0.13 -0.2,-0.29 -0.2,-0.48 0,-0.19 0.07,-0.35 0.2,-0.47 0.12,-0.13 0.28,-0.2 0.47,-0.2 0.19,0 0.35,0.07 0.48,0.2zm0.91 1.32l0.23 0 0 -1.7 -0.23 0 0 1.7zm0 -2.12l0.23 0 0 -0.25 -0.23 0 0 0.25zm0.92 0.64c-0.18,0.17 -0.27,0.38 -0.27,0.63 0,0.25 0.09,0.46 0.27,0.63 0.17,0.18 0.38,0.27 0.63,0.27 0.25,0 0.46,-0.09 0.64,-0.27 0.17,-0.17 0.26,-0.38 0.26,-0.63 0,-0.25 -0.09,-0.46 -0.26,-0.63 -0.18,-0.18 -0.39,-0.27 -0.64,-0.27 -0.25,0 -0.46,0.09 -0.63,0.27zm1.1 0.16c0.13,0.13 0.2,0.29 0.2,0.47 0,0.19 -0.07,0.35 -0.2,0.48 -0.13,0.13 -0.29,0.19 -0.47,0.19 -0.19,0 -0.35,-0.06 -0.48,-0.19 -0.13,-0.13 -0.19,-0.29 -0.19,-0.48 0,-0.19 0.06,-0.35 0.19,-0.47 0.13,-0.13 0.29,-0.2 0.48,-0.2 0.18,0 0.34,0.07 0.47,0.2zm2.44 -0.16c-0.18,0.17 -0.27,0.38 -0.27,0.63 0,0.25 0.09,0.46 0.27,0.63 0.18,0.18 0.39,0.27 0.63,0.27 0.25,0 0.47,-0.09 0.65,-0.28l0.25 0.23 0 -2.83 -0.23 0 0 1.38c-0.18,-0.2 -0.4,-0.3 -0.67,-0.3 -0.24,0 -0.45,0.09 -0.63,0.27zm1.1 0.16c0.14,0.13 0.2,0.29 0.2,0.47 0,0.19 -0.06,0.35 -0.2,0.48 -0.13,0.13 -0.28,0.19 -0.47,0.19 -0.19,0 -0.35,-0.06 -0.48,-0.19 -0.12,-0.13 -0.19,-0.29 -0.19,-0.48 0,-0.19 0.07,-0.35 0.19,-0.47 0.13,-0.13 0.29,-0.2 0.48,-0.2 0.19,0 0.34,0.07 0.47,0.2zm2.1 1.05c-0.1,0.06 -0.22,0.09 -0.35,0.09 -0.15,0 -0.29,-0.04 -0.4,-0.13l1.16 -1.02c-0.08,-0.12 -0.18,-0.22 -0.32,-0.3 -0.14,-0.08 -0.28,-0.12 -0.44,-0.12 -0.24,0 -0.45,0.09 -0.63,0.27 -0.18,0.17 -0.27,0.38 -0.27,0.63 0,0.25 0.09,0.46 0.27,0.63 0.18,0.18 0.39,0.27 0.63,0.27 0.17,0 0.33,-0.04 0.47,-0.13 0.14,-0.09 0.25,-0.2 0.32,-0.34l-0.2 -0.12c-0.06,0.11 -0.14,0.2 -0.24,0.27zm-1.02 -0.58c0,-0.19 0.07,-0.35 0.2,-0.47 0.12,-0.13 0.28,-0.2 0.47,-0.2 0.17,0 0.31,0.06 0.44,0.16l-1 0.89c-0.07,-0.12 -0.11,-0.24 -0.11,-0.38zm4.5 -0.81c-0.12,-0.06 -0.25,-0.09 -0.39,-0.09 -0.24,0 -0.46,0.09 -0.63,0.27 -0.18,0.17 -0.27,0.38 -0.27,0.63 0,0.25 0.09,0.46 0.27,0.63 0.17,0.18 0.39,0.27 0.63,0.27 0.14,0 0.26,-0.03 0.38,-0.08 0.11,-0.05 0.22,-0.13 0.3,-0.23l-0.18 -0.14c-0.13,0.15 -0.3,0.22 -0.5,0.22 -0.19,0 -0.35,-0.06 -0.48,-0.19 -0.13,-0.13 -0.19,-0.29 -0.19,-0.48 0,-0.19 0.06,-0.35 0.19,-0.47 0.13,-0.13 0.29,-0.2 0.48,-0.2 0.2,0 0.38,0.08 0.51,0.24l0.18 -0.14c-0.09,-0.11 -0.19,-0.19 -0.3,-0.24zm0.93 0.18c-0.18,0.17 -0.27,0.38 -0.27,0.63 0,0.25 0.09,0.46 0.27,0.63 0.18,0.18 0.39,0.27 0.63,0.27 0.25,0 0.46,-0.09 0.64,-0.27 0.17,-0.17 0.26,-0.38 0.26,-0.63 0,-0.25 -0.09,-0.46 -0.26,-0.63 -0.18,-0.18 -0.39,-0.27 -0.64,-0.27 -0.24,0 -0.45,0.09 -0.63,0.27zm1.1 0.16c0.14,0.13 0.2,0.29 0.2,0.47 0,0.19 -0.06,0.35 -0.2,0.48 -0.13,0.13 -0.28,0.19 -0.47,0.19 -0.19,0 -0.35,-0.06 -0.48,-0.19 -0.12,-0.13 -0.19,-0.29 -0.19,-0.48 0,-0.19 0.07,-0.35 0.19,-0.47 0.13,-0.13 0.29,-0.2 0.48,-0.2 0.19,0 0.34,0.07 0.47,0.2zm0.79 1.07c0.05,0.09 0.12,0.16 0.2,0.21 0.08,0.05 0.18,0.07 0.27,0.07 0.1,0 0.19,-0.02 0.28,-0.07 0.08,-0.04 0.14,-0.11 0.19,-0.19 0.04,-0.08 0.07,-0.17 0.07,-0.27 0,-0.12 -0.04,-0.23 -0.11,-0.32 -0.07,-0.1 -0.16,-0.16 -0.28,-0.19l-0.2 -0.06c-0.1,-0.03 -0.16,-0.1 -0.16,-0.21 0,-0.06 0.02,-0.11 0.07,-0.15 0.04,-0.05 0.09,-0.07 0.15,-0.07 0.11,0 0.17,0.04 0.21,0.13l0.21 -0.09c-0.04,-0.08 -0.09,-0.14 -0.17,-0.19 -0.08,-0.05 -0.16,-0.08 -0.25,-0.08 -0.12,0 -0.23,0.04 -0.31,0.13 -0.09,0.09 -0.14,0.19 -0.14,0.32 0,0.1 0.03,0.19 0.1,0.27 0.06,0.08 0.14,0.13 0.24,0.16l0.2 0.06c0.06,0.02 0.11,0.05 0.15,0.11 0.04,0.05 0.06,0.11 0.06,0.18 0,0.09 -0.03,0.16 -0.09,0.22 -0.06,0.06 -0.13,0.09 -0.22,0.09 -0.12,0 -0.21,-0.06 -0.27,-0.17l-0.2 0.11zm1.68 0.25l0.23 0 0 -1.47 0.3 0 0 -0.23 -0.3 0 0 -0.59 -0.23 0.11 0 0.48 -0.31 0 0 0.23 0.31 0 0 1.47zm2.08 -1.7l0 1.07c0,0.12 -0.04,0.22 -0.13,0.31 -0.08,0.09 -0.19,0.14 -0.32,0.14 -0.12,0 -0.22,-0.05 -0.31,-0.13 -0.09,-0.09 -0.14,-0.2 -0.14,-0.32l0 -1.07 -0.23 0 0 1.07c0,0.19 0.07,0.35 0.2,0.48 0.13,0.13 0.29,0.2 0.48,0.2 0.19,0 0.35,-0.07 0.48,-0.21l0.2 0.16 0 -1.7 -0.23 0zm1.38 -0.05c-0.19,0 -0.34,0.07 -0.47,0.2l-0.19 -0.15 0 1.7 0.23 0 0 -1.08c0,-0.12 0.04,-0.22 0.12,-0.31 0.08,-0.08 0.18,-0.13 0.31,-0.13 0.05,0 0.09,0.01 0.12,0.02l0.11 -0.2c-0.07,-0.03 -0.15,-0.05 -0.23,-0.05zm2.39 1.75l0 -1.7 -0.25 0.23c-0.18,-0.18 -0.4,-0.28 -0.65,-0.28 -0.25,0 -0.46,0.09 -0.64,0.27 -0.17,0.17 -0.26,0.38 -0.26,0.63 0,0.25 0.09,0.46 0.26,0.63 0.18,0.18 0.39,0.27 0.64,0.27 0.25,0 0.47,-0.09 0.65,-0.28l0.25 0.23zm-0.43 -1.32c0.13,0.13 0.2,0.29 0.2,0.47 0,0.19 -0.07,0.35 -0.2,0.48 -0.13,0.13 -0.29,0.19 -0.47,0.19 -0.19,0 -0.35,-0.06 -0.48,-0.19 -0.13,-0.13 -0.19,-0.29 -0.19,-0.48 0,-0.19 0.06,-0.35 0.19,-0.47 0.13,-0.13 0.29,-0.2 0.48,-0.2 0.18,0 0.34,0.07 0.47,0.2z"/>
  <path class="fil0" d="M3.76 28.73c-0.05,0.12 -0.04,0.23 0.02,0.32 0.1,0.13 0.29,0.18 0.58,0.15 0.7,-0.09 1.39,-0.01 2.07,0.06 0.44,0.05 0.89,0.1 1.35,0.1 0.35,0 0.72,-0.02 1.08,-0.09 0.21,-0.04 0.93,-0.21 1.21,-0.5 0.1,-0.11 0.17,-0.23 0.24,-0.38 0.06,-0.16 0.09,-0.69 0,-0.62 -0.06,0.05 -0.57,0.33 -1.29,0.53 -0.63,0.17 -1.43,0.28 -2.22,0.09 -0.14,-0.02 -0.27,-0.04 -0.4,-0.06 -0.76,-0.1 -1.36,-0.11 -1.94,-0.04 -0.32,0.03 -0.61,0.22 -0.7,0.44zm3.89 -0.83c0.02,-0.07 -0.01,-0.47 -0.01,-0.47l-0.01 -1.62c0,-0.04 -0.01,-0.19 -0.27,-0.19 -0.2,0 -0.52,0.08 -0.52,0.3l0.02 2.03c0,0.07 0.03,0.13 0.09,0.17 0.04,0.02 0.09,0.03 0.15,0.03 0.18,0 0.31,-0.07 0.42,-0.11 0.11,-0.03 0.13,-0.12 0.13,-0.14zm-7.4 -9.06c-0.22,0.75 -0.3,1.43 -0.22,2.02 0.07,0.5 0.22,0.81 0.31,0.98 0.01,0.03 0.02,0.05 0.03,0.06 0.56,1.23 1.65,2.24 2.98,2.8 0.91,0.38 1.94,0.57 3.04,0.57 0.85,0 1.74,-0.11 2.65,-0.34 0.9,-0.21 1.82,-0.53 2.9,-0.99 0.34,-0.14 0.68,-0.3 1.01,-0.45 0.92,-0.43 1.87,-0.77 2.87,-0.96 1,-0.19 2.39,-0.05 3.39,0.33 0.05,0.02 0.19,0.08 0.25,0.05l0.49 -0.39c0.06,-0.13 0,-0.24 -0.06,-0.26 -0.44,-0.17 -1.42,-0.29 -1.88,-0.36 -1.9,-0.27 -3.64,0.42 -5.4,1.22 -2.34,1.06 -5.06,2.13 -7.83,1.41 -0.91,-0.23 -1.75,-0.67 -2.42,-1.27 -0.53,-0.47 -1.26,-1.2 -1.43,-2.12 -0.27,-1.49 0.08,-2.1 0.27,-2.43 0.02,-0.03 0.03,-0.06 0.05,-0.09 0.36,-0.65 0.8,-1.13 1.45,-1.47 0.06,-0.11 0.14,-0.33 0.17,-0.5 0,-0.03 0,-0.09 -0.05,-0.11 -0.04,-0.03 -0.13,-0.02 -0.16,0 -1.24,0.56 -2.14,1.42 -2.41,2.3zm5.19 -18.25c-0.01,-0.11 -0.08,-0.2 -0.18,-0.24 -0.14,-0.05 -0.33,-0.02 -0.46,0.09 -0.11,0.08 -0.16,0.2 -0.14,0.32 0.15,1.09 -0.24,2.12 -1.04,2.77 -0.31,0.24 -0.67,0.42 -1.04,0.6 -0.43,0.21 -0.87,0.43 -1.24,0.76 -1.16,1.06 -0.98,2.75 -0.42,3.97 0.29,0.65 0.67,1.24 1.04,1.81 0.67,1.02 1.3,1.98 1.43,3.26 0.08,0.71 0.05,1.41 -0.08,2.07l0.01 0c0,0 -0.18,1.06 -0.63,1.74 -0.01,0 -0.01,0.01 -0.03,0.02 -0.35,0.64 -0.82,1.19 -1.39,1.61 -0.14,0.11 -0.15,0.23 -0.14,0.29 0.01,0.1 0.08,0.19 0.2,0.24 0.06,0.03 0.12,0.04 0.19,0.04 0.1,0 0.19,-0.03 0.26,-0.08 1.39,-1.04 2.25,-2.67 2.42,-4.61 0.2,-2.23 -0.75,-3.86 -1.82,-5.46 -0.57,-0.87 -1.11,-1.81 -1.11,-2.87 0,-1.34 0.99,-1.85 2.04,-2.4 1.57,-0.82 2.37,-2.29 2.13,-3.93zm-0.58 13.34l0 0c0,0 0,0 0,0l0 0c0,0 0,0 0,0zm2.21 -6.84c0.21,2.32 0.28,4.64 0.22,6.96 -0.79,0.05 -1.59,-0.02 -2.38,-0.2 -0.06,-0.02 -0.12,0.01 -0.15,0.05 -0.03,0.03 -0.04,0.07 -0.03,0.11 0.01,0.02 0.03,0.06 0.09,0.08 0.66,0.15 1.33,0.23 1.99,0.23 0.16,0 0.31,-0.01 0.47,-0.01 -0.06,1.88 -0.21,3.77 -0.46,5.65 -0.01,0.06 0.03,0.12 0.1,0.13 0.01,0 0.01,0 0.02,0 0.07,0 0.16,-0.04 0.17,-0.12 0.24,-1.89 0.4,-3.79 0.46,-5.68 0.64,-0.06 1.28,-0.19 1.92,-0.4 0.08,-0.03 0.1,-0.1 0.09,-0.15 -0.03,-0.07 -0.11,-0.11 -0.18,-0.08 -0.61,0.19 -1.21,0.31 -1.83,0.37 0.07,-2.32 0,-4.64 -0.21,-6.95 1.49,-0.04 2.98,-0.32 4.41,-0.83 0.05,-0.02 0.08,-0.05 0.09,-0.09 0,-0.03 -0.01,-0.07 -0.04,-0.09 -0.03,-0.03 -0.1,-0.04 -0.15,-0.02 -1.4,0.5 -2.86,0.77 -4.33,0.81 -0.16,-1.66 -0.39,-3.31 -0.69,-4.96 -0.01,-0.05 -0.06,-0.1 -0.15,-0.09 -0.09,0.02 -0.14,0.08 -0.13,0.15l0 0c0.3,1.63 0.52,3.27 0.68,4.91 -1.68,0.01 -3.35,-0.28 -4.94,-0.86 -0.06,-0.02 -0.2,0.01 -0.22,0.08 -0.02,0.04 0,0.1 0.06,0.12l0 0c1.6,0.59 3.28,0.88 4.97,0.88 0.05,0 0.1,0 0.15,0zm5.51 1.15c0.41,-1.28 0.38,-2.96 -0.93,-3.85 -0.38,-0.26 -0.81,-0.41 -1.23,-0.57 -0.42,-0.15 -0.82,-0.29 -1.17,-0.54 -0.78,-0.53 -1.24,-1.43 -1.26,-2.42 0.03,-0.23 0.05,-0.5 -0.19,-0.7 -0.15,-0.12 -0.3,-0.16 -0.44,-0.16l-0.01 0c-0.09,0 -0.17,0.01 -0.25,0.02 -0.09,0.01 -0.94,0.05 -1.23,0.11 -0.04,0.01 -0.08,0.02 -0.1,0.03 -0.01,0.02 0.01,0.06 0.05,0.1 0.14,0.16 0.72,0.36 1.37,0.4 0,0 0,0.01 0,0.01 -0.06,1.72 0.91,3.04 2.73,3.73 1.01,0.38 1.86,0.79 2.06,1.93 0.19,1.07 -0.25,2.13 -0.66,2.93 -0.11,0.22 -0.22,0.43 -0.33,0.64 -0.35,0.64 -0.7,1.3 -0.91,2.02 -0.29,0.96 -0.33,2.07 -0.11,3.21 0.36,1.86 1.4,3.42 2.84,4.28 0.06,0.03 0.13,0.05 0.2,0.05 0.17,0 0.36,-0.1 0.44,-0.23 0.08,-0.14 0.04,-0.29 -0.11,-0.38 -1.49,-0.88 -2.46,-2.52 -2.68,-4.51 -0.12,-1.19 0.1,-2.35 0.69,-3.54 0.13,-0.24 0.26,-0.49 0.39,-0.73 0.32,-0.58 0.64,-1.18 0.84,-1.83zm0.29 4.92c0.5,-0.77 1.56,-2.86 1.59,-2.94 0,0 0.05,-0.05 0.02,-0.12 -0.01,-0.04 -0.06,-0.07 -0.16,-0.14l-0.14 -0.12c-0.04,-0.03 -0.09,-0.04 -0.14,-0.03 -0.04,0.01 -0.08,0.04 -0.1,0.09 -0.42,0.97 -1.87,3.66 -2.91,4.65 -0.03,0.03 0.11,0.6 0.14,0.58 0.58,-0.56 1.22,-1.25 1.7,-1.97zm9.92 -9.7c0.03,-0.06 0.03,-0.13 -0.01,-0.18 0,0 -0.35,-0.49 -0.58,-1.07 -0.04,-0.1 -0.08,-0.26 -0.13,-0.44 -0.18,-0.62 -0.31,-1.05 -0.53,-1.17 -0.64,-0.52 -1.53,-0.31 -2.15,-0.1 -1.99,0.67 -3.86,1.97 -5.27,3.66 -0.36,0.43 -0.68,0.91 -1.08,1.59 0.03,0.04 0.19,0.72 0.2,0.72 0.06,0 0.11,-0.03 0.14,-0.08 0.8,-1.35 1.61,-2.35 2.55,-3.15 0.85,-0.71 1.78,-1.29 2.78,-1.72 0.46,-0.2 0.94,-0.41 1.43,-0.47 0.23,-0.02 0.98,-0.08 1.04,0.25 0.37,1.97 1.4,2.21 1.44,2.22 0.07,0.02 0.13,-0.01 0.17,-0.06zm0.02 0.58c-0.05,-0.25 -0.37,-0.34 -0.53,-0.36 -1.62,-0.25 -3.51,0.14 -4.87,1.04 -0.04,0.03 -0.06,0.07 -0.07,0.11 -0.01,0.04 0.01,0.09 0.04,0.12l0.17 0.2c0.03,0.04 0.07,0.06 0.11,0.06 0.03,0 0.06,-0.01 0.08,-0.02 0.75,-0.44 1.79,-0.79 2.8,-1 0.79,-0.15 1.69,-0.23 2.27,-0.15zm1.39 17.52c-0.12,-0.83 -0.88,-1.28 -1.45,-1.54 -1.29,-0.62 -2.74,-0.98 -4.23,-1.01 -2,-0.04 -4.22,0.67 -4.56,0.78 -0.65,0.2 -1.32,0.45 -2,0.7 -3.4,1.24 -6.91,2.52 -9.41,-0.26 -0.09,-0.1 -0.23,-0.14 -0.39,-0.1 -0.14,0.03 -0.3,0.11 -0.34,0.25 -0.03,0.09 -0.01,0.19 0.05,0.26 2.54,2.82 6.54,1.81 9.74,0.61 0.82,-0.31 1.62,-0.6 2.39,-0.84 0.34,-0.1 -0.13,0.03 1,-0.28 1.14,-0.3 2.74,-0.51 3.54,-0.46 1.05,0.05 2.09,0.27 3.07,0.63 0.45,0.17 0.92,0.34 1.3,0.63 0.18,0.14 0.75,0.61 0.57,0.9 -0.34,0.71 -0.38,0.91 -0.43,1.31 -0.01,0.04 -0.01,0.07 0.02,0.14 0.03,0.07 0.14,0.16 0.25,0.18 0.07,0.02 0.15,0.01 0.22,-0.02 0.03,-0.01 0.07,-0.05 0.11,-0.14 0.01,-0.03 0.03,-0.07 0.05,-0.12 0.03,-0.09 0.57,-1.39 0.5,-1.62z"/>
 </g>
</svg>
