<?xml version="1.0" encoding="UTF-8"?>
<!DOCTYPE svg PUBLIC "-//W3C//DTD SVG 1.1//EN" "http://www.w3.org/Graphics/SVG/1.1/DTD/svg11.dtd">
<!-- Creator: CorelDRAW 2018 (64 Bit Versão de avaliação) -->
<svg xmlns="http://www.w3.org/2000/svg" xml:space="preserve" width="123px" height="75px" version="1.1" style="shape-rendering:geometricPrecision; text-rendering:geometricPrecision; image-rendering:optimizeQuality; fill-rule:evenodd; clip-rule:evenodd"
viewBox="0 0 49.43 30.06"
 xmlns:xlink="http://www.w3.org/1999/xlink">
 <defs>
  <style type="text/css">
   <![CDATA[
    .fil1 {fill:#FEFEFE;fill-rule:nonzero}
    .fil0 {fill:#C95C6E;fill-rule:nonzero}
   ]]>
  </style>
 </defs>
 <g id="Camada_x0020_1">
  <metadata id="CorelCorpID_0Corel-Layer"/>
  <path class="fil0" d="M32.47 17.45c0.46,-1.37 -0.67,-0.59 -0.88,-0.37 -0.21,0.21 -0.36,0.38 -0.44,0.49 -0.16,0.18 -2.07,2.61 -2.06,2.61l-1.03 1.65c-0.21,0.37 -0.32,0.56 -0.33,0.58l-0.01 0 0.11 -0.7c0.08,-0.36 0.34,-1.35 0.47,-1.72 0.27,-0.76 0.72,-1.72 1.36,-2.87 0.13,-0.21 0.22,-0.39 0.27,-0.53 0.15,-0.44 -0.46,-0.55 -0.94,-0.22 -0.52,0.35 -0.99,0.72 -1.64,1.56 -0.65,0.85 -1.32,1.96 -1.94,3.36 -0.31,0.71 -0.31,0.71 -0.54,1.21 -0.19,0.41 -0.36,0.74 -0.5,0.99 -0.97,1.8 -2.1,2.32 -3,2.32 -0.58,-0.01 -2.12,-1.01 -1.11,-2.55 0.22,-0.21 0.47,-0.34 0.73,-0.38 0.28,-0.06 0.53,-0.04 0.76,0.06 0.24,0.1 0.43,0.25 0.57,0.43 0.1,0.12 0.2,0.18 0.3,0.17 0.13,-0.02 0.17,-0.07 0.13,-0.15 -0.1,-0.24 -0.32,-0.43 -0.65,-0.57 -0.33,-0.14 -0.68,-0.19 -1.06,-0.14 -0.56,0.08 -1.02,0.33 -1.38,0.76 -0.38,0.48 -0.99,2.04 0.78,2.86 1.39,0.44 2.65,-0.27 3.54,-1.33 0.38,-0.55 0.82,-1.36 1.32,-2.43l0.17 -0.35 -0.01 -0.02c0,0 0.74,-1.58 0.94,-1.97 0.48,-0.97 1,-1.78 1.53,-2.43 0.14,-0.17 0.29,-0.35 0.46,-0.52 0.16,-0.17 0.25,-0.26 0.27,-0.26l-0.05 0.09c-0.37,0.59 -0.73,1.24 -1.07,1.97 -0.33,0.73 -0.58,1.4 -0.73,2 -0.01,0.06 -0.14,0.73 -0.17,1 -0.05,0.39 -0.06,0.78 -0.05,1.15 0.01,0.38 0.05,0.61 0.12,0.7 0.07,0.11 0.23,0.15 0.46,0.11 0.2,-0.02 0.33,-0.1 0.39,-0.22 0.05,-0.07 0.16,-0.29 0.34,-0.69 0.34,-0.73 0.66,-1.34 0.95,-1.83 0.28,-0.49 0.67,-1.08 1.15,-1.76 0.55,-0.76 0.92,-1.22 1.09,-1.35 0.04,-0.04 0.04,-0.02 0.01,0.04 -0.18,0.34 -0.38,0.83 -0.61,1.46 -0.38,1.04 -0.64,2.03 -0.78,2.98 -0.14,0.94 -0.15,1.74 -0.04,2.38 0.1,0.53 0.26,1.05 0.77,1.38 0.53,0.34 1,0.46 1.38,0.46 0.35,0 1.12,-0.2 1.79,-0.77 0.11,-0.09 0.09,-0.14 -0.03,-0.07 -0.47,0.3 -0.98,0.5 -1.44,0.47 -0.39,-0.03 -0.75,-0.25 -0.83,-0.32 -0.51,-0.5 -0.57,-1.54 -0.58,-1.71 -0.02,-0.68 0.11,-1.55 0.43,-2.88 0.12,-0.49 0.82,-3.18 1.31,-4.13z"/>
  <path class="fil0" d="M43.35 22.72c0.3,-0.65 0.42,-1 0.37,-1.07 -0.03,-0.03 -0.1,-0.05 -0.21,-0.06 -0.11,0 -0.18,0.01 -0.23,0.03 -0.06,0.03 -0.13,0.15 -0.2,0.37 -0.16,0.49 -0.4,1.03 -0.72,1.62 -0.32,0.6 -0.63,1.05 -0.93,1.35 -0.1,0.11 -0.21,0.21 -0.33,0.3 -0.12,0.09 -0.2,0.12 -0.22,0.1 -0.04,-0.05 0.17,-0.83 0.64,-2.34 0.22,-0.72 0.33,-1.21 0.33,-1.45 0.01,-0.27 -0.05,-0.47 -0.18,-0.6 -0.14,-0.14 -0.37,-0.24 -0.7,-0.3 -0.75,-0.15 -1.22,-0.25 -1.41,-0.3l-0.28 -0.09 -0.07 -0.2c-0.09,-0.32 -0.25,-0.48 -0.5,-0.48 -0.09,0 -0.17,0.02 -0.26,0.06 -0.08,0.04 -0.14,0.08 -0.17,0.12 -0.06,0.1 -0.05,0.22 0.01,0.35 0.06,0.14 0.16,0.24 0.31,0.3 0.07,0.04 0.11,0.1 0.11,0.2 -0.01,0.25 -0.11,0.7 -0.31,1.36 -0.07,0.22 -0.11,0.36 -0.11,0.41 -0.01,0.06 0.01,0.1 0.06,0.12 0.18,0.07 0.33,0.02 0.43,-0.15 0.05,-0.09 0.13,-0.27 0.22,-0.53 0.08,-0.27 0.15,-0.51 0.2,-0.71 0.03,-0.21 0.05,-0.33 0.06,-0.35 0.01,-0.03 0.24,0 0.69,0.1 0.33,0.08 0.54,0.14 0.63,0.18 0.09,0.04 0.13,0.09 0.13,0.16 0,0.04 -0.13,0.47 -0.4,1.27 -0.26,0.8 -0.44,1.36 -0.52,1.67 -0.08,0.32 -0.12,0.59 -0.11,0.81 0.01,0.3 0.09,0.52 0.23,0.65 0.15,0.14 0.37,0.2 0.65,0.2 0.91,0.03 1.83,-1.01 2.79,-3.1zm-0.93 -0.41c-0.33,0.73 -0.47,1.36 -0.44,1.88 0.06,0.82 0.42,1.26 1.09,1.32 0.34,0.02 0.65,-0.06 0.92,-0.23 0.14,-0.09 0.33,-0.25 0.56,-0.47 0.24,-0.22 0.4,-0.41 0.5,-0.54 0.1,-0.14 0.16,-0.21 0.17,-0.21 0.01,0 0.01,0.02 0.01,0.08 -0.01,0.06 -0.01,0.13 -0.02,0.23 0,0.1 0,0.21 0,0.32 0.01,0.11 0.02,0.23 0.05,0.34 0.03,0.12 0.07,0.22 0.11,0.3 0.08,0.16 0.24,0.27 0.48,0.32 0.25,0.05 0.49,0.03 0.74,-0.06 0.38,-0.14 0.77,-0.48 1.19,-1 0.42,-0.52 0.77,-1.06 1.04,-1.62 0.37,-0.72 0.56,-1.13 0.56,-1.22 0,-0.02 -0.05,-0.04 -0.15,-0.06 -0.09,-0.02 -0.17,-0.03 -0.22,-0.02 -0.07,0.01 -0.13,0.05 -0.18,0.13 -0.05,0.07 -0.13,0.24 -0.26,0.51 -0.45,1.04 -0.95,1.83 -1.48,2.36 -0.41,0.42 -0.68,0.62 -0.8,0.62 -0.03,0 -0.05,-0.05 -0.06,-0.15 -0.01,-0.1 0,-0.22 0.02,-0.37 0.01,-0.15 0.04,-0.3 0.07,-0.43 0.15,-0.66 0.37,-1.42 0.67,-2.3 0.27,-0.79 0.42,-1.29 0.45,-1.49 0.03,-0.2 -0.01,-0.33 -0.12,-0.38 -0.13,-0.07 -0.29,-0.09 -0.49,-0.06 -0.19,0.03 -0.32,0.09 -0.39,0.19 -0.05,0.06 -0.1,0.15 -0.17,0.27l-0.1 0.2 -0.1 -0.15c-0.11,-0.19 -0.23,-0.33 -0.36,-0.42 -0.13,-0.09 -0.29,-0.15 -0.49,-0.18 -0.31,-0.05 -0.59,-0.02 -0.83,0.08 -0.24,0.1 -0.52,0.29 -0.86,0.57 -0.42,0.36 -0.79,0.9 -1.11,1.64zm3.13 -1.62c0.16,0.22 0.26,0.42 0.3,0.6 0.03,0.13 -0.01,0.33 -0.1,0.6 -0.08,0.26 -0.16,0.5 -0.21,0.7 -0.09,0.33 -0.35,0.77 -0.77,1.3 -0.42,0.53 -0.78,0.89 -1.08,1.07 -0.23,0.13 -0.36,0.15 -0.39,0.05 -0.07,-0.28 -0.02,-0.73 0.14,-1.36 0.16,-0.63 0.39,-1.24 0.68,-1.83 0.19,-0.39 0.34,-0.66 0.44,-0.82 0.11,-0.15 0.22,-0.3 0.34,-0.43 0.13,-0.13 0.21,-0.2 0.25,-0.2 0.1,0 0.23,0.11 0.4,0.32z"/>
  <path class="fil0" d="M31.91 22.75c-0.32,0.74 -0.47,1.36 -0.43,1.89 0.05,0.82 0.41,1.26 1.08,1.32 0.34,0.02 0.65,-0.06 0.92,-0.24 0.14,-0.09 0.33,-0.24 0.57,-0.46 0.23,-0.23 0.4,-0.41 0.5,-0.55 0.1,-0.14 0.15,-0.21 0.16,-0.21 0.01,0 0.02,0.03 0.01,0.09 0,0.05 -0.01,0.13 -0.02,0.23 0,0.1 0,0.21 0,0.32 0.01,0.11 0.03,0.22 0.05,0.34 0.03,0.12 0.07,0.21 0.11,0.29 0.08,0.17 0.24,0.28 0.49,0.33 0.24,0.05 0.49,0.03 0.73,-0.06 0.38,-0.15 0.78,-0.48 1.19,-1 0.42,-0.52 0.77,-1.06 1.05,-1.62 0.36,-0.72 0.55,-1.13 0.55,-1.22 0,-0.02 -0.05,-0.04 -0.14,-0.07 -0.1,-0.02 -0.17,-0.02 -0.23,-0.01 -0.07,0.01 -0.12,0.05 -0.17,0.12 -0.05,0.08 -0.14,0.25 -0.26,0.51 -0.46,1.05 -0.95,1.84 -1.49,2.37 -0.41,0.41 -0.68,0.62 -0.8,0.62 -0.03,0 -0.05,-0.05 -0.06,-0.15 0,-0.1 0,-0.23 0.02,-0.38 0.02,-0.15 0.04,-0.29 0.07,-0.42 0.15,-0.66 0.37,-1.43 0.67,-2.3 0.27,-0.79 0.42,-1.29 0.45,-1.49 0.04,-0.2 0,-0.33 -0.11,-0.38 -0.14,-0.07 -0.3,-0.09 -0.5,-0.06 -0.19,0.03 -0.32,0.09 -0.39,0.19 -0.04,0.06 -0.1,0.14 -0.17,0.27l-0.1 0.2 -0.1 -0.15c-0.11,-0.19 -0.23,-0.33 -0.35,-0.42 -0.13,-0.09 -0.3,-0.15 -0.5,-0.18 -0.31,-0.05 -0.58,-0.02 -0.82,0.08 -0.24,0.1 -0.53,0.29 -0.86,0.57 -0.43,0.35 -0.8,0.9 -1.12,1.63zm3.13 -1.61c0.16,0.22 0.26,0.42 0.31,0.59 0.02,0.14 -0.01,0.34 -0.1,0.6 -0.09,0.27 -0.16,0.51 -0.22,0.71 -0.09,0.33 -0.34,0.76 -0.77,1.3 -0.42,0.53 -0.78,0.89 -1.08,1.07 -0.22,0.13 -0.35,0.15 -0.39,0.05 -0.06,-0.28 -0.02,-0.74 0.15,-1.36 0.16,-0.63 0.38,-1.24 0.67,-1.83 0.19,-0.39 0.34,-0.66 0.44,-0.82 0.11,-0.16 0.22,-0.3 0.35,-0.43 0.12,-0.14 0.2,-0.2 0.25,-0.2 0.1,0 0.23,0.1 0.39,0.32z"/>
  <path class="fil0" d="M20.79 16.49c-1.72,-0.29 -3.41,-1.5 -3.97,-1.75l-0.6 -0.26 0.19 -0.14c0.23,-0.18 0.44,-0.47 0.64,-0.85 0.29,-0.55 0.58,-1.29 0.87,-2.21 0.15,-0.51 0.24,-0.79 0.26,-0.83 0.02,-0.05 0.12,-0.1 0.32,-0.17 0.69,-0.22 1.34,-0.6 1.96,-1.16 0.4,-0.34 0.75,-0.73 1.04,-1.16 0.3,-0.44 0.51,-0.85 0.62,-1.24 0.12,-0.43 0.11,-0.8 -0.03,-1.11 -0.14,-0.31 -0.39,-0.53 -0.75,-0.66 -0.18,-0.06 -0.39,-0.08 -0.63,-0.07 -0.24,0.02 -0.41,0.04 -0.53,0.09 -1.23,0.47 -2.22,1.87 -2.96,4.19 -0.15,0.47 -0.25,0.78 -0.28,0.93 -0.04,0.14 -0.08,0.22 -0.12,0.24 -0.03,0.02 -0.12,0.01 -0.27,-0.02 -0.49,-0.1 -0.93,-0.3 -1.33,-0.6 -0.4,-0.3 -0.7,-0.66 -0.91,-1.08 -0.07,-0.13 -0.13,-0.3 -0.18,-0.52 -0.05,-0.23 -0.06,-1.16 0.27,-1.67 0.22,-0.35 0.59,-0.7 1.22,-0.98 0.05,-0.03 0.31,-0.09 0.38,-0.1 0.6,-0.06 0.98,0.09 1.14,0.28 0.21,0.26 0.3,0.55 0.27,0.88 -0.01,0.09 -0.09,0.46 -0.25,0.61 -0.17,0.15 -0.14,0.09 -0.24,0.14 -0.11,0.04 -0.17,0.03 -0.2,-0.02 -0.04,-0.06 -0.1,-0.14 -0.2,-0.16 -0.11,-0.01 -0.18,0.05 -0.19,0.1 -0.05,0.19 0.32,0.37 0.71,0.32 0.4,-0.06 0.62,-0.38 0.66,-0.46 0.21,-0.44 0.22,-0.85 0.05,-1.23 -0.18,-0.39 -0.48,-0.65 -0.92,-0.78 -0.12,-0.04 -0.71,-0.22 -1.41,0 -0.7,0.21 -1.63,0.9 -1.79,1.81 -0.17,0.92 -0.08,1.18 0.15,1.69 0.23,0.52 0.59,0.96 1.1,1.32 0.5,0.37 1.04,0.59 1.63,0.66 0.15,0.01 0.24,0.02 0.25,0.03 0.02,0.01 -0.04,0.24 -0.17,0.67 -0.12,0.44 -0.24,0.8 -0.34,1.07 -0.31,0.81 -0.56,1.35 -0.74,1.63 -0.07,0.12 -0.13,0.19 -0.19,0.2 -0.05,0.01 -0.2,-0.02 -0.44,-0.08 -0.42,-0.1 -1.12,-0.36 -1.92,-0.04 -0.16,0.06 -0.31,0.17 -0.44,0.31 -0.16,0.2 -0.24,0.4 -0.23,0.6 0.01,0.11 0.09,0.33 0.33,0.52 0.21,0.16 0.52,0.3 1.08,0.32 0.64,0.01 1.47,-0.56 1.63,-0.64 0.17,-0.07 0.27,-0.13 0.32,-0.16l0.64 0.31c0.41,0.2 0.76,0.38 1.06,0.54 0.59,0.31 1.14,0.57 1.66,0.76 0.53,0.21 1.01,0.34 1.46,0.42 0.69,0.08 1.15,0.04 1.47,-0.07 0.65,-0.23 0.68,-0.74 0.73,-1.04 -0.29,0.35 -0.74,0.83 -1.88,0.62zm-5.89 -1.9c-0.05,0.12 -0.29,0.28 -0.7,0.5 -0.74,0.37 -1.18,0.18 -1.29,-0.06 -0.04,-0.11 -0.01,-0.38 0.28,-0.56 0.21,-0.13 0.88,-0.24 1.49,0 0.15,0.07 0.22,0.11 0.22,0.12zm3.38 -4.46c0,-0.01 0.06,-0.25 0.2,-0.7 0.3,-0.95 0.62,-1.69 0.97,-2.23 0.4,-0.62 0.7,-1.07 0.91,-1.32 0.2,-0.25 0.39,-0.42 0.56,-0.51 0.11,-0.05 0.18,-0.07 0.21,-0.09 0.03,-0.01 0.07,-0.01 0.13,0.01 0.05,0.01 0.11,0.05 0.17,0.13 0.19,0.2 0.28,0.48 0.27,0.83 -0.01,0.33 -0.12,0.69 -0.32,1.08 -0.25,0.52 -0.6,1.01 -1.05,1.47 -0.46,0.46 -0.94,0.82 -1.46,1.08 -0.09,0.05 -0.18,0.1 -0.28,0.14 -0.09,0.04 -0.17,0.07 -0.23,0.09 -0.05,0.02 -0.08,0.02 -0.08,0.02z"/>
  <path class="fil0" d="M24.52 13.94c0.36,-0.5 0.66,-1 0.9,-1.5 0.32,-0.67 0.46,-1.02 0.43,-1.07 -0.03,-0.03 -0.09,-0.05 -0.17,-0.06 -0.07,-0.01 -0.15,-0.01 -0.21,0.01 -0.08,0.04 -0.19,0.22 -0.34,0.54 -0.46,1.03 -0.94,1.82 -1.43,2.37 -0.11,0.12 -0.28,0.27 -0.49,0.44 -0.22,0.17 -0.35,0.26 -0.4,0.26 -0.02,0 -0.03,-0.01 -0.05,-0.02 -0.17,-0.14 0.05,-1.15 0.67,-3.02 0.39,-1.18 0.57,-1.82 0.55,-1.93 -0.02,-0.09 -0.12,-0.16 -0.29,-0.2 -0.17,-0.03 -0.35,-0.03 -0.53,0.01 -0.14,0.05 -0.27,0.19 -0.39,0.43 -0.11,0.24 -0.3,0.74 -0.56,1.51 -0.16,0.47 -0.39,0.93 -0.66,1.39 -0.28,0.46 -0.57,0.84 -0.86,1.13 -0.15,0.15 -0.32,0.3 -0.5,0.43 -0.17,0.13 -0.28,0.19 -0.31,0.17 -0.03,-0.02 -0.03,-0.16 -0.02,-0.4 0.02,-0.5 0.24,-1.35 0.65,-2.54 0.38,-1.14 0.57,-1.8 0.57,-1.95 0,-0.1 -0.04,-0.17 -0.11,-0.21 -0.07,-0.04 -0.2,-0.06 -0.39,-0.06 -0.21,0 -0.36,0.03 -0.44,0.08 -0.07,0.05 -0.16,0.17 -0.26,0.37 -0.26,0.53 -0.5,1.21 -0.73,2.05 -0.23,0.84 -0.33,1.55 -0.31,2.12 0.01,0.26 0.06,0.45 0.14,0.57 0.11,0.2 0.29,0.32 0.55,0.37 0.25,0.04 0.52,0 0.8,-0.13 0.14,-0.08 0.33,-0.22 0.55,-0.42 0.22,-0.2 0.42,-0.41 0.58,-0.62 0.15,-0.18 0.22,-0.28 0.24,-0.3 0.01,-0.01 0.01,0.01 0.01,0.07 0,0.55 0.04,0.91 0.12,1.07 0.13,0.26 0.36,0.41 0.69,0.43 0.33,0.02 0.63,-0.07 0.91,-0.27 0.36,-0.24 0.72,-0.62 1.09,-1.12zm3.41 0.49c0.36,-0.28 0.65,-0.55 0.86,-0.82 0.25,-0.31 0.51,-0.69 0.77,-1.13 0.25,-0.44 0.39,-0.74 0.41,-0.91 0.03,-0.1 0,-0.16 -0.08,-0.18 -0.15,-0.05 -0.26,-0.05 -0.33,0 -0.08,0.06 -0.16,0.18 -0.24,0.38 -0.15,0.42 -0.39,0.84 -0.72,1.27 -0.32,0.44 -0.66,0.79 -1.01,1.05 -0.54,0.42 -1.02,0.66 -1.44,0.72 -0.1,0.01 -0.18,-0.03 -0.25,-0.12 -0.12,-0.14 -0.2,-0.38 -0.23,-0.73 -0.06,-0.77 0.24,-1.79 0.9,-3.07 0.13,-0.27 0.27,-0.49 0.42,-0.68 0.14,-0.18 0.24,-0.27 0.3,-0.25 0.06,0.03 0.15,0.2 0.27,0.5 0.12,0.3 0.18,0.52 0.18,0.66 0,0.13 0.09,0.19 0.26,0.19 0.13,0 0.2,-0.03 0.24,-0.08 0.03,-0.05 0.05,-0.17 0.05,-0.36 0,-0.42 -0.09,-0.75 -0.27,-0.99 -0.18,-0.24 -0.45,-0.36 -0.82,-0.36 -0.34,0 -0.69,0.12 -1.03,0.35 -0.68,0.46 -1.22,1.19 -1.62,2.19 -0.12,0.32 -0.22,0.67 -0.28,1.04 -0.07,0.37 -0.09,0.67 -0.05,0.88 0.08,0.58 0.4,0.97 0.95,1.17 0.54,0.2 1.14,0.16 1.78,-0.12 0.29,-0.12 0.62,-0.32 0.98,-0.6zm1.52 -4.15c-0.12,0.25 -0.28,0.69 -0.5,1.31 -0.24,0.72 -0.4,1.4 -0.47,2.02 -0.07,0.62 -0.05,1.06 0.07,1.32 0.14,0.25 0.37,0.39 0.71,0.4 0.33,0.01 0.64,-0.09 0.93,-0.3 0.12,-0.08 0.28,-0.22 0.48,-0.42 0.19,-0.2 0.35,-0.39 0.47,-0.57 0.48,-0.63 0.91,-1.38 1.29,-2.25 0.07,-0.19 0.12,-0.3 0.13,-0.34 0.01,-0.04 0,-0.07 -0.03,-0.09 -0.06,-0.05 -0.12,-0.07 -0.19,-0.07 -0.12,0 -0.21,0.03 -0.26,0.09 -0.05,0.06 -0.13,0.23 -0.26,0.51 -0.63,1.45 -1.32,2.42 -2.08,2.9 -0.15,0.11 -0.23,0.14 -0.26,0.11 -0.03,-0.04 -0.04,-0.17 -0.02,-0.41 0.01,-0.24 0.12,-0.76 0.35,-1.56 0.03,-0.16 0.14,-0.5 0.33,-1.04 0.36,-1.08 0.53,-1.7 0.53,-1.87 0,-0.1 -0.04,-0.17 -0.11,-0.21 -0.1,-0.05 -0.23,-0.07 -0.4,-0.06 -0.16,0 -0.28,0.03 -0.37,0.07 -0.11,0.06 -0.23,0.21 -0.34,0.46zm1.79 1.68c-0.32,0.73 -0.47,1.36 -0.43,1.88 0.05,0.83 0.41,1.27 1.08,1.32 0.35,0.02 0.65,-0.05 0.92,-0.23 0.14,-0.09 0.33,-0.25 0.57,-0.47 0.23,-0.22 0.4,-0.4 0.5,-0.54 0.1,-0.14 0.15,-0.21 0.16,-0.21 0.02,0 0.02,0.03 0.01,0.08 0,0.06 -0.01,0.14 -0.01,0.24 -0.01,0.1 -0.01,0.2 0,0.31 0,0.12 0.02,0.23 0.05,0.35 0.02,0.11 0.06,0.21 0.1,0.29 0.08,0.17 0.24,0.27 0.49,0.32 0.24,0.05 0.49,0.03 0.73,-0.05 0.38,-0.15 0.78,-0.48 1.2,-1.01 0.41,-0.52 0.76,-1.06 1.04,-1.61 0.37,-0.73 0.55,-1.13 0.55,-1.22 0,-0.02 -0.05,-0.05 -0.14,-0.07 -0.1,-0.02 -0.17,-0.03 -0.23,-0.02 -0.06,0.02 -0.12,0.06 -0.17,0.13 -0.05,0.07 -0.14,0.24 -0.26,0.51 -0.46,1.04 -0.95,1.83 -1.49,2.37 -0.41,0.41 -0.68,0.62 -0.8,0.62 -0.03,0 -0.05,-0.05 -0.06,-0.16 0,-0.1 0,-0.22 0.02,-0.37 0.02,-0.15 0.04,-0.29 0.08,-0.43 0.14,-0.65 0.36,-1.42 0.66,-2.3 0.27,-0.79 0.42,-1.28 0.45,-1.48 0.04,-0.2 0,-0.33 -0.11,-0.39 -0.14,-0.06 -0.3,-0.08 -0.5,-0.06 -0.19,0.03 -0.32,0.1 -0.39,0.2 -0.04,0.05 -0.1,0.14 -0.16,0.26l-0.1 0.2 -0.1 -0.15c-0.12,-0.19 -0.24,-0.33 -0.36,-0.41 -0.13,-0.09 -0.3,-0.15 -0.5,-0.19 -0.31,-0.04 -0.58,-0.01 -0.82,0.09 -0.24,0.1 -0.53,0.29 -0.86,0.56 -0.42,0.36 -0.8,0.9 -1.12,1.64zm3.13 -1.61c0.16,0.21 0.26,0.41 0.31,0.59 0.02,0.13 -0.01,0.33 -0.1,0.6 -0.09,0.27 -0.16,0.5 -0.22,0.7 -0.09,0.34 -0.34,0.77 -0.77,1.3 -0.42,0.54 -0.78,0.89 -1.08,1.07 -0.22,0.14 -0.35,0.15 -0.38,0.05 -0.07,-0.28 -0.02,-0.73 0.14,-1.36 0.16,-0.63 0.38,-1.24 0.67,-1.83 0.19,-0.39 0.34,-0.66 0.45,-0.81 0.1,-0.16 0.21,-0.3 0.34,-0.44 0.12,-0.13 0.2,-0.2 0.25,-0.2 0.1,0 0.23,0.11 0.39,0.33zm3.01 4.79c0.02,-0.01 0.06,-0.04 0.12,-0.11 0.07,-0.08 0.1,-0.18 0.12,-0.3 0.03,-0.28 0.14,-0.73 0.34,-1.36 0.19,-0.63 0.36,-1.1 0.51,-1.41 0.2,-0.41 0.47,-0.8 0.81,-1.17 0.35,-0.37 0.7,-0.64 1.06,-0.83 0.2,-0.1 0.33,-0.15 0.41,-0.15 0.08,0.01 0.14,0.07 0.17,0.18 0.04,0.12 0.04,0.3 0,0.53 -0.05,0.24 -0.14,0.58 -0.28,1.02 -0.34,1.04 -0.54,1.74 -0.62,2.13 -0.08,0.38 -0.07,0.66 0.01,0.84 0.14,0.3 0.43,0.45 0.89,0.45 0.37,-0.01 0.66,-0.08 0.88,-0.21 0.21,-0.12 0.47,-0.39 0.77,-0.79 0.39,-0.51 0.72,-1.18 1,-2 0.13,-0.36 0.17,-0.55 0.15,-0.59 -0.03,-0.03 -0.09,-0.05 -0.19,-0.05 -0.09,-0.01 -0.16,0 -0.21,0.04 -0.04,0.03 -0.11,0.19 -0.21,0.48 -0.38,1.07 -0.84,1.88 -1.39,2.44 -0.26,0.26 -0.47,0.39 -0.65,0.36 -0.25,-0.04 -0.19,-0.52 0.17,-1.45 0.43,-1.12 0.65,-2 0.66,-2.65 0.02,-0.67 -0.35,-1 -1.08,-1 -0.23,0 -0.47,0.05 -0.69,0.14 -0.23,0.1 -0.43,0.21 -0.6,0.35 -0.16,0.14 -0.32,0.28 -0.45,0.41 -0.14,0.13 -0.25,0.24 -0.33,0.33 -0.08,0.08 -0.12,0.11 -0.13,0.1 -0.01,-0.01 0.05,-0.2 0.18,-0.58 0.1,-0.32 0.15,-0.53 0.16,-0.63 0,-0.1 -0.03,-0.17 -0.11,-0.2 -0.12,-0.05 -0.29,-0.05 -0.5,-0.01 -0.21,0.04 -0.36,0.1 -0.45,0.19 -0.12,0.11 -0.31,0.52 -0.57,1.23 -0.47,1.28 -0.7,2.34 -0.7,3.17 0,0.59 0.18,0.94 0.53,1.06 0.13,0.03 0.2,0.04 0.22,0.04zm5.09 -3.18c-0.32,0.73 -0.47,1.36 -0.43,1.88 0.05,0.83 0.41,1.27 1.08,1.32 0.35,0.02 0.65,-0.05 0.92,-0.23 0.14,-0.09 0.33,-0.25 0.57,-0.47 0.23,-0.22 0.4,-0.4 0.5,-0.54 0.1,-0.14 0.15,-0.21 0.16,-0.21 0.02,0 0.02,0.03 0.01,0.08 0,0.06 -0.01,0.14 -0.01,0.24 -0.01,0.1 -0.01,0.2 0,0.31 0,0.12 0.02,0.23 0.05,0.35 0.02,0.11 0.06,0.21 0.1,0.29 0.08,0.17 0.24,0.27 0.49,0.32 0.24,0.05 0.49,0.03 0.73,-0.05 0.38,-0.15 0.78,-0.48 1.2,-1.01 0.41,-0.52 0.76,-1.06 1.04,-1.61 0.37,-0.73 0.55,-1.13 0.55,-1.22 0,-0.02 -0.05,-0.05 -0.14,-0.07 -0.1,-0.02 -0.17,-0.03 -0.23,-0.02 -0.06,0.02 -0.12,0.06 -0.17,0.13 -0.05,0.07 -0.14,0.24 -0.26,0.51 -0.46,1.04 -0.95,1.83 -1.49,2.37 -0.41,0.41 -0.67,0.62 -0.8,0.62 -0.03,0 -0.05,-0.05 -0.06,-0.16 0,-0.1 0,-0.22 0.02,-0.37 0.02,-0.15 0.04,-0.29 0.08,-0.43 0.14,-0.65 0.36,-1.42 0.66,-2.3 0.27,-0.79 0.42,-1.28 0.45,-1.48 0.04,-0.2 0,-0.33 -0.11,-0.39 -0.14,-0.06 -0.3,-0.08 -0.5,-0.06 -0.19,0.03 -0.32,0.1 -0.39,0.2 -0.04,0.05 -0.1,0.14 -0.16,0.26l-0.1 0.2 -0.1 -0.15c-0.12,-0.19 -0.24,-0.33 -0.36,-0.41 -0.13,-0.09 -0.29,-0.15 -0.5,-0.19 -0.31,-0.04 -0.58,-0.01 -0.82,0.09 -0.24,0.1 -0.53,0.29 -0.86,0.56 -0.42,0.36 -0.8,0.9 -1.12,1.64zm3.13 -1.61c0.16,0.21 0.26,0.41 0.31,0.59 0.02,0.13 -0.01,0.33 -0.1,0.6 -0.09,0.27 -0.16,0.5 -0.22,0.7 -0.09,0.34 -0.34,0.77 -0.77,1.3 -0.42,0.54 -0.78,0.89 -1.08,1.07 -0.22,0.14 -0.35,0.15 -0.38,0.05 -0.07,-0.28 -0.02,-0.73 0.14,-1.36 0.16,-0.63 0.38,-1.24 0.67,-1.83 0.19,-0.39 0.34,-0.66 0.45,-0.81 0.1,-0.16 0.22,-0.3 0.34,-0.44 0.12,-0.13 0.2,-0.2 0.25,-0.2 0.1,0 0.23,0.11 0.39,0.33z"/>
  <path class="fil0" d="M30.45 9.44c0.38,0 0.68,-0.3 0.68,-0.68 0,-0.37 -0.3,-0.68 -0.68,-0.68 -0.37,0 -0.68,0.31 -0.68,0.68 0,0.38 0.31,0.68 0.68,0.68z"/>
  <path class="fil1" d="M19.83 29.74c-0.11,0.06 -0.22,0.09 -0.35,0.09 -0.16,0 -0.29,-0.04 -0.41,-0.13l1.17 -1.03c-0.08,-0.12 -0.18,-0.21 -0.32,-0.29 -0.14,-0.08 -0.29,-0.12 -0.44,-0.12 -0.25,0 -0.46,0.09 -0.64,0.26 -0.17,0.18 -0.26,0.39 -0.26,0.64 0,0.25 0.09,0.46 0.26,0.64 0.18,0.17 0.39,0.26 0.64,0.26 0.17,0 0.32,-0.04 0.46,-0.13 0.15,-0.09 0.25,-0.2 0.33,-0.34l-0.2 -0.12c-0.06,0.12 -0.14,0.2 -0.24,0.27zm-1.02 -0.58c0,-0.19 0.06,-0.35 0.19,-0.48 0.13,-0.12 0.29,-0.19 0.48,-0.19 0.16,0 0.31,0.05 0.44,0.16l-1 0.89c-0.08,-0.12 -0.11,-0.24 -0.11,-0.38zm1.83 0.6c0.05,0.09 0.11,0.16 0.2,0.21 0.08,0.05 0.17,0.08 0.27,0.08 0.1,0 0.19,-0.03 0.27,-0.07 0.08,-0.05 0.15,-0.12 0.2,-0.2 0.04,-0.08 0.07,-0.17 0.07,-0.27 0,-0.12 -0.04,-0.23 -0.11,-0.32 -0.07,-0.1 -0.16,-0.16 -0.28,-0.19l-0.2 -0.06c-0.11,-0.03 -0.16,-0.1 -0.16,-0.21 0,-0.06 0.02,-0.11 0.06,-0.16 0.04,-0.04 0.1,-0.06 0.16,-0.06 0.1,0 0.17,0.04 0.21,0.13l0.2 -0.09c-0.03,-0.08 -0.08,-0.15 -0.16,-0.2 -0.08,-0.05 -0.16,-0.07 -0.25,-0.07 -0.12,0 -0.23,0.04 -0.32,0.13 -0.09,0.09 -0.13,0.19 -0.13,0.32 0,0.1 0.03,0.19 0.09,0.27 0.06,0.08 0.14,0.13 0.24,0.16l0.2 0.06c0.07,0.02 0.12,0.05 0.16,0.11 0.04,0.05 0.06,0.11 0.06,0.18 0,0.09 -0.03,0.16 -0.09,0.22 -0.06,0.06 -0.13,0.09 -0.22,0.09 -0.13,0 -0.22,-0.06 -0.27,-0.17l-0.2 0.11zm1.68 0.25l0.23 0 0 -1.47 0.3 0 0 -0.23 -0.3 0 0 -0.6 -0.23 0.12 0 0.48 -0.31 0 0 0.23 0.31 0 0 1.47zm2.09 -1.7l0 1.07c0,0.12 -0.04,0.22 -0.13,0.31 -0.08,0.09 -0.19,0.14 -0.32,0.14 -0.12,0 -0.23,-0.04 -0.32,-0.13 -0.09,-0.09 -0.13,-0.2 -0.13,-0.32l0 -1.07 -0.23 0 0 1.07c0,0.19 0.06,0.35 0.19,0.48 0.13,0.13 0.3,0.2 0.49,0.2 0.19,0 0.35,-0.07 0.48,-0.21l0.2 0.16 0 -1.7 -0.23 0zm-0.97 -0.25l1.05 -0.46 -0.13 -0.23 -0.97 0.59 0.05 0.1zm1.89 0.46c-0.18,0.18 -0.27,0.39 -0.27,0.64 0,0.25 0.09,0.46 0.27,0.64 0.18,0.17 0.39,0.26 0.63,0.26 0.26,0 0.47,-0.09 0.65,-0.28l0.25 0.23 0 -2.83 -0.23 0 0 1.38c-0.18,-0.2 -0.4,-0.3 -0.67,-0.3 -0.24,0 -0.45,0.09 -0.63,0.26zm1.11 0.17c0.13,0.13 0.19,0.29 0.19,0.47 0,0.19 -0.06,0.35 -0.19,0.48 -0.13,0.13 -0.29,0.19 -0.48,0.19 -0.19,0 -0.35,-0.06 -0.47,-0.19 -0.13,-0.13 -0.2,-0.29 -0.2,-0.48 0,-0.19 0.07,-0.35 0.2,-0.48 0.12,-0.12 0.28,-0.19 0.47,-0.19 0.19,0 0.35,0.07 0.48,0.2zm0.91 1.32l0.23 0 0 -1.7 -0.23 0 0 1.7zm0 -2.12l0.23 0 0 -0.25 -0.23 0 0 0.25zm0.92 0.63c-0.17,0.18 -0.26,0.39 -0.26,0.64 0,0.25 0.09,0.46 0.26,0.64 0.18,0.17 0.39,0.26 0.64,0.26 0.25,0 0.46,-0.09 0.64,-0.26 0.17,-0.18 0.26,-0.39 0.26,-0.64 0,-0.25 -0.09,-0.46 -0.26,-0.64 -0.18,-0.17 -0.39,-0.26 -0.64,-0.26 -0.25,0 -0.46,0.09 -0.64,0.26zm1.11 0.17c0.13,0.13 0.2,0.29 0.2,0.47 0,0.19 -0.07,0.35 -0.2,0.48 -0.13,0.13 -0.29,0.19 -0.47,0.19 -0.19,0 -0.35,-0.06 -0.48,-0.19 -0.13,-0.13 -0.19,-0.29 -0.19,-0.48 0,-0.19 0.06,-0.35 0.19,-0.48 0.13,-0.12 0.29,-0.19 0.48,-0.19 0.18,0 0.34,0.07 0.47,0.2zm2.45 -0.17c-0.18,0.18 -0.27,0.39 -0.27,0.64 0,0.25 0.09,0.46 0.27,0.64 0.17,0.17 0.38,0.26 0.63,0.26 0.25,0 0.47,-0.09 0.65,-0.28l0.25 0.23 0 -2.83 -0.23 0 0 1.38c-0.18,-0.2 -0.4,-0.3 -0.67,-0.3 -0.25,0 -0.46,0.09 -0.63,0.26zm1.1 0.17c0.14,0.13 0.2,0.29 0.2,0.47 0,0.19 -0.06,0.35 -0.2,0.48 -0.13,0.13 -0.28,0.19 -0.47,0.19 -0.19,0 -0.35,-0.06 -0.48,-0.19 -0.13,-0.13 -0.19,-0.29 -0.19,-0.48 0,-0.19 0.06,-0.35 0.19,-0.48 0.13,-0.12 0.29,-0.19 0.48,-0.19 0.19,0 0.34,0.07 0.47,0.2zm2.11 1.05c-0.11,0.06 -0.23,0.09 -0.35,0.09 -0.16,0 -0.29,-0.04 -0.41,-0.13l1.17 -1.03c-0.08,-0.12 -0.19,-0.21 -0.32,-0.29 -0.14,-0.08 -0.29,-0.12 -0.44,-0.12 -0.25,0 -0.46,0.09 -0.64,0.26 -0.18,0.18 -0.26,0.39 -0.26,0.64 0,0.25 0.08,0.46 0.26,0.64 0.18,0.17 0.39,0.26 0.64,0.26 0.17,0 0.32,-0.04 0.46,-0.13 0.15,-0.09 0.25,-0.2 0.33,-0.34l-0.2 -0.12c-0.06,0.12 -0.14,0.2 -0.24,0.27zm-1.02 -0.58c0,-0.19 0.06,-0.35 0.19,-0.48 0.13,-0.12 0.29,-0.19 0.48,-0.19 0.16,0 0.31,0.05 0.43,0.16l-0.99 0.89c-0.08,-0.12 -0.11,-0.24 -0.11,-0.38zm4.5 -0.82c-0.12,-0.05 -0.24,-0.08 -0.39,-0.08 -0.24,0 -0.45,0.09 -0.63,0.26 -0.18,0.18 -0.27,0.39 -0.27,0.64 0,0.25 0.09,0.46 0.27,0.64 0.18,0.17 0.39,0.26 0.63,0.26 0.14,0 0.27,-0.02 0.38,-0.08 0.12,-0.05 0.22,-0.13 0.31,-0.23l-0.19 -0.14c-0.13,0.15 -0.29,0.22 -0.5,0.22 -0.19,0 -0.34,-0.06 -0.47,-0.19 -0.13,-0.13 -0.2,-0.29 -0.2,-0.48 0,-0.19 0.07,-0.35 0.2,-0.48 0.13,-0.12 0.28,-0.19 0.47,-0.19 0.21,0 0.38,0.08 0.52,0.24l0.18 -0.14c-0.09,-0.11 -0.19,-0.19 -0.31,-0.25zm0.94 0.18c-0.18,0.18 -0.27,0.39 -0.27,0.64 0,0.25 0.09,0.46 0.27,0.64 0.17,0.17 0.39,0.26 0.63,0.26 0.25,0 0.46,-0.09 0.64,-0.26 0.17,-0.18 0.26,-0.39 0.26,-0.64 0,-0.25 -0.09,-0.46 -0.26,-0.64 -0.18,-0.17 -0.39,-0.26 -0.64,-0.26 -0.24,0 -0.46,0.09 -0.63,0.26zm1.11 0.17c0.13,0.13 0.19,0.29 0.19,0.47 0,0.19 -0.06,0.35 -0.19,0.48 -0.14,0.13 -0.29,0.19 -0.48,0.19 -0.19,0 -0.35,-0.06 -0.48,-0.19 -0.13,-0.13 -0.19,-0.29 -0.19,-0.48 0,-0.19 0.06,-0.35 0.19,-0.48 0.13,-0.12 0.29,-0.19 0.48,-0.19 0.19,0 0.34,0.07 0.48,0.2zm0.78 1.07c0.05,0.09 0.12,0.16 0.2,0.21 0.09,0.05 0.18,0.08 0.28,0.08 0.1,0 0.19,-0.03 0.27,-0.07 0.08,-0.05 0.14,-0.12 0.19,-0.2 0.05,-0.08 0.07,-0.17 0.07,-0.27 0,-0.12 -0.03,-0.23 -0.1,-0.32 -0.07,-0.1 -0.17,-0.16 -0.28,-0.19l-0.2 -0.06c-0.11,-0.03 -0.16,-0.1 -0.16,-0.21 0,-0.06 0.02,-0.11 0.06,-0.16 0.04,-0.04 0.09,-0.06 0.16,-0.06 0.1,0 0.17,0.04 0.2,0.13l0.21 -0.09c-0.03,-0.08 -0.09,-0.15 -0.16,-0.2 -0.08,-0.05 -0.16,-0.07 -0.25,-0.07 -0.13,0 -0.23,0.04 -0.32,0.13 -0.09,0.09 -0.13,0.19 -0.13,0.32 0,0.1 0.03,0.19 0.09,0.27 0.06,0.08 0.14,0.13 0.24,0.16l0.2 0.06c0.06,0.02 0.11,0.05 0.15,0.11 0.04,0.05 0.06,0.11 0.06,0.18 0,0.09 -0.03,0.16 -0.08,0.22 -0.06,0.06 -0.13,0.09 -0.22,0.09 -0.13,0 -0.22,-0.06 -0.28,-0.17l-0.2 0.11zm1.68 0.25l0.23 0 0 -1.47 0.31 0 0 -0.23 -0.31 0 0 -0.6 -0.23 0.12 0 0.48 -0.3 0 0 0.23 0.3 0 0 1.47zm2.09 -1.7l0 1.07c0,0.12 -0.04,0.22 -0.12,0.31 -0.09,0.09 -0.2,0.14 -0.33,0.14 -0.12,0 -0.22,-0.04 -0.31,-0.13 -0.09,-0.09 -0.14,-0.2 -0.14,-0.32l0 -1.07 -0.23 0 0 1.07c0,0.19 0.07,0.35 0.2,0.48 0.13,0.13 0.29,0.2 0.48,0.2 0.2,0 0.36,-0.07 0.49,-0.21l0.19 0.16 0 -1.7 -0.23 0zm1.39 -0.05c-0.19,0 -0.35,0.07 -0.48,0.2l-0.19 -0.15 0 1.7 0.23 0 0 -1.08c0,-0.12 0.04,-0.22 0.12,-0.31 0.09,-0.09 0.19,-0.13 0.32,-0.13 0.05,0 0.09,0.01 0.12,0.02l0.1 -0.21c-0.06,-0.03 -0.14,-0.04 -0.22,-0.04zm2.39 1.75l0 -1.7 -0.25 0.23c-0.18,-0.19 -0.4,-0.28 -0.65,-0.28 -0.25,0 -0.46,0.09 -0.64,0.26 -0.17,0.18 -0.26,0.39 -0.26,0.64 0,0.25 0.09,0.46 0.26,0.64 0.18,0.17 0.39,0.26 0.64,0.26 0.25,0 0.47,-0.09 0.65,-0.28l0.25 0.23zm-0.43 -1.32c0.13,0.13 0.2,0.29 0.2,0.47 0,0.19 -0.07,0.35 -0.2,0.48 -0.13,0.13 -0.29,0.19 -0.47,0.19 -0.19,0 -0.35,-0.06 -0.48,-0.19 -0.13,-0.13 -0.19,-0.29 -0.19,-0.48 0,-0.19 0.06,-0.35 0.19,-0.48 0.13,-0.12 0.29,-0.19 0.48,-0.19 0.18,0 0.34,0.07 0.47,0.2z"/>
  <path class="fil1" d="M3.77 28.81c-0.05,0.12 -0.04,0.23 0.02,0.32 0.1,0.13 0.29,0.18 0.58,0.15 0.7,-0.09 1.4,-0.01 2.07,0.06 0.45,0.05 0.9,0.1 1.36,0.1 0.36,0 0.72,-0.02 1.09,-0.09 0.21,-0.04 0.93,-0.21 1.21,-0.5 0.09,-0.11 0.17,-0.23 0.23,-0.38 0.07,-0.16 0.1,-0.7 0.01,-0.63 -0.06,0.05 -0.57,0.34 -1.29,0.54 -0.64,0.17 -1.44,0.28 -2.23,0.09 -0.14,-0.02 -0.27,-0.04 -0.41,-0.06 -0.75,-0.1 -1.35,-0.12 -1.94,-0.05 -0.32,0.04 -0.61,0.23 -0.7,0.45zm3.9 -0.83c0.02,-0.08 0,-0.48 0,-0.48l-0.01 -1.62c0,-0.04 -0.02,-0.19 -0.28,-0.19 -0.2,0 -0.52,0.08 -0.52,0.31l0.02 2.03c0,0.07 0.03,0.13 0.09,0.16 0.04,0.03 0.09,0.04 0.15,0.04 0.18,0 0.31,-0.07 0.42,-0.11 0.11,-0.04 0.13,-0.12 0.13,-0.14zm-7.42 -9.09c-0.22,0.75 -0.3,1.43 -0.22,2.03 0.07,0.5 0.22,0.81 0.31,0.98 0.01,0.03 0.02,0.05 0.03,0.06 0.57,1.23 1.66,2.25 2.99,2.8 0.91,0.39 1.94,0.58 3.05,0.58 0.85,0 1.74,-0.11 2.66,-0.34 0.9,-0.22 1.82,-0.53 2.91,-0.99 0.34,-0.15 0.68,-0.3 1.01,-0.46 0.92,-0.42 1.87,-0.77 2.87,-0.96 1,-0.19 2.4,-0.05 3.41,0.33 0.04,0.02 0.18,0.08 0.24,0.05l0.5 -0.39c0.06,-0.12 -0.01,-0.24 -0.06,-0.26 -0.44,-0.16 -1.43,-0.29 -1.89,-0.36 -1.91,-0.27 -3.65,0.42 -5.41,1.22 -2.35,1.06 -5.08,2.13 -7.86,1.42 -0.91,-0.24 -1.75,-0.68 -2.43,-1.27 -0.53,-0.48 -1.26,-1.21 -1.43,-2.13 -0.27,-1.5 0.08,-2.11 0.27,-2.44 0.02,-0.03 0.04,-0.06 0.05,-0.08 0.36,-0.66 0.81,-1.14 1.46,-1.48 0.06,-0.12 0.14,-0.34 0.17,-0.5 0,-0.03 0,-0.09 -0.05,-0.12 -0.04,-0.02 -0.13,-0.01 -0.16,0 -1.25,0.57 -2.15,1.43 -2.42,2.31zm5.21 -18.3c-0.02,-0.11 -0.08,-0.19 -0.19,-0.24 -0.14,-0.05 -0.33,-0.02 -0.46,0.09 -0.11,0.08 -0.16,0.2 -0.14,0.32 0.15,1.09 -0.23,2.13 -1.04,2.78 -0.31,0.24 -0.67,0.42 -1.05,0.6 -0.43,0.21 -0.87,0.43 -1.24,0.77 -1.16,1.06 -0.98,2.75 -0.42,3.97 0.29,0.66 0.68,1.25 1.05,1.82 0.67,1.02 1.3,1.99 1.43,3.27 0.08,0.71 0.05,1.41 -0.09,2.07l0.02 0.01c0,0 -0.18,1.05 -0.64,1.74 0,0 -0.01,0.01 -0.02,0.02 -0.36,0.64 -0.82,1.19 -1.39,1.61 -0.15,0.11 -0.16,0.23 -0.15,0.29 0.01,0.11 0.09,0.2 0.2,0.25 0.06,0.02 0.13,0.03 0.19,0.03 0.1,0 0.19,-0.02 0.27,-0.08 1.39,-1.04 2.25,-2.68 2.42,-4.62 0.2,-2.24 -0.75,-3.87 -1.82,-5.47 -0.58,-0.87 -1.11,-1.82 -1.12,-2.88 0,-1.34 1,-1.86 2.05,-2.41 1.57,-0.82 2.37,-2.3 2.14,-3.94zm-0.59 13.38l0 0c0,0 0,0 0,0l0 0c0,0 0,0 0,0zm2.22 -6.86c0.21,2.32 0.28,4.65 0.22,6.98 -0.8,0.05 -1.59,-0.02 -2.38,-0.21 -0.06,-0.01 -0.12,0.02 -0.16,0.05 -0.03,0.04 -0.04,0.08 -0.03,0.12 0.01,0.02 0.03,0.06 0.1,0.08 0.66,0.15 1.32,0.23 1.99,0.23 0.15,0 0.31,-0.01 0.47,-0.02 -0.06,1.9 -0.21,3.79 -0.46,5.68 -0.01,0.05 0.02,0.11 0.1,0.12 0.01,0 0.01,0 0.02,0 0.07,0 0.15,-0.03 0.17,-0.11 0.24,-1.9 0.4,-3.8 0.46,-5.71 0.64,-0.05 1.29,-0.18 1.92,-0.39 0.09,-0.03 0.11,-0.1 0.09,-0.15 -0.02,-0.07 -0.1,-0.11 -0.18,-0.09 -0.6,0.2 -1.21,0.32 -1.83,0.38 0.07,-2.32 0,-4.65 -0.21,-6.97 1.5,-0.04 2.99,-0.32 4.42,-0.83 0.05,-0.02 0.08,-0.05 0.09,-0.09 0.01,-0.03 -0.01,-0.07 -0.03,-0.09 -0.04,-0.03 -0.1,-0.04 -0.16,-0.02 -1.4,0.5 -2.87,0.77 -4.34,0.81 -0.16,-1.66 -0.39,-3.32 -0.69,-4.98 -0.01,-0.05 -0.06,-0.1 -0.15,-0.08 -0.09,0.01 -0.15,0.08 -0.13,0.15l0 0c0.29,1.63 0.52,3.27 0.68,4.91 -1.68,0.02 -3.36,-0.27 -4.96,-0.85 -0.06,-0.03 -0.19,0.01 -0.22,0.08 -0.01,0.04 0,0.1 0.06,0.12l0 0c1.61,0.59 3.3,0.88 4.98,0.88 0.06,0 0.11,0 0.16,0zm5.53 1.16c0.4,-1.29 0.37,-2.98 -0.93,-3.87 -0.39,-0.26 -0.82,-0.41 -1.24,-0.57 -0.42,-0.15 -0.82,-0.29 -1.17,-0.54 -0.78,-0.53 -1.25,-1.43 -1.27,-2.43 0.04,-0.23 0.06,-0.5 -0.19,-0.7 -0.15,-0.12 -0.3,-0.16 -0.44,-0.16l-0.01 0c-0.09,0 -0.17,0.01 -0.25,0.02 -0.09,0.01 -0.94,0.05 -1.23,0.11 -0.05,0.01 -0.08,0.02 -0.11,0.03 0,0.02 0.02,0.06 0.06,0.1 0.14,0.16 0.72,0.36 1.37,0.4 0,0 0,0.01 0,0.02 -0.06,1.71 0.91,3.04 2.74,3.73 1.01,0.39 1.86,0.8 2.06,1.94 0.19,1.08 -0.25,2.13 -0.66,2.94 -0.11,0.21 -0.22,0.42 -0.33,0.64 -0.35,0.64 -0.7,1.3 -0.92,2.02 -0.29,0.97 -0.32,2.08 -0.1,3.22 0.36,1.87 1.4,3.43 2.85,4.29 0.06,0.03 0.12,0.05 0.19,0.05 0.18,0 0.37,-0.1 0.45,-0.23 0.08,-0.14 0.03,-0.29 -0.11,-0.37 -1.5,-0.89 -2.47,-2.54 -2.69,-4.53 -0.13,-1.19 0.1,-2.35 0.7,-3.55 0.12,-0.24 0.25,-0.49 0.38,-0.74 0.32,-0.58 0.64,-1.18 0.85,-1.82zm0.28 4.93c0.51,-0.78 1.57,-2.87 1.6,-2.95 0,0 0.05,-0.05 0.02,-0.12 -0.01,-0.04 -0.06,-0.07 -0.16,-0.15l-0.14 -0.11c-0.04,-0.03 -0.09,-0.04 -0.14,-0.03 -0.05,0.01 -0.08,0.04 -0.1,0.09 -0.43,0.97 -1.88,3.67 -2.92,4.66 -0.03,0.03 0.11,0.61 0.14,0.58 0.58,-0.56 1.23,-1.25 1.7,-1.97zm9.95 -9.73c0.03,-0.06 0.03,-0.13 -0.01,-0.18 0,0 -0.35,-0.49 -0.58,-1.08 -0.04,-0.09 -0.08,-0.26 -0.13,-0.43 -0.18,-0.63 -0.31,-1.06 -0.53,-1.18 -0.65,-0.52 -1.54,-0.31 -2.15,-0.1 -2,0.67 -3.88,1.97 -5.3,3.67 -0.36,0.44 -0.67,0.91 -1.07,1.6 0.03,0.04 0.19,0.72 0.2,0.72 0.05,0 0.11,-0.03 0.13,-0.08 0.8,-1.36 1.62,-2.36 2.57,-3.16 0.84,-0.71 1.78,-1.29 2.78,-1.73 0.47,-0.2 0.94,-0.41 1.43,-0.46 0.23,-0.03 0.99,-0.09 1.05,0.25 0.37,1.97 1.4,2.21 1.45,2.22 0.06,0.02 0.12,-0.01 0.16,-0.06zm0.02 0.58c-0.05,-0.25 -0.37,-0.34 -0.53,-0.36 -1.63,-0.25 -3.51,0.14 -4.88,1.05 -0.04,0.02 -0.07,0.06 -0.07,0.1 -0.01,0.05 0,0.09 0.03,0.12l0.17 0.21c0.03,0.03 0.08,0.05 0.12,0.05 0.03,0 0.05,-0.01 0.08,-0.02 0.75,-0.43 1.8,-0.79 2.81,-0.99 0.79,-0.16 1.69,-0.24 2.27,-0.16zm1.39 17.57c-0.11,-0.83 -0.88,-1.28 -1.44,-1.55 -1.3,-0.61 -2.76,-0.97 -4.25,-1.01 -2.01,-0.04 -4.23,0.68 -4.57,0.78 -0.65,0.21 -1.32,0.45 -2.01,0.71 -3.41,1.24 -6.92,2.52 -9.44,-0.27 -0.08,-0.09 -0.22,-0.13 -0.39,-0.1 -0.13,0.03 -0.29,0.12 -0.34,0.26 -0.03,0.09 -0.01,0.18 0.06,0.26 2.54,2.83 6.55,1.81 9.76,0.61 0.83,-0.31 1.63,-0.61 2.4,-0.84 0.34,-0.11 -0.13,0.03 1.01,-0.28 1.13,-0.31 2.74,-0.51 3.54,-0.47 1.06,0.06 2.09,0.27 3.08,0.63 0.45,0.17 0.92,0.35 1.3,0.64 0.18,0.14 0.75,0.61 0.58,0.9 -0.35,0.71 -0.39,0.91 -0.44,1.32 -0.01,0.04 -0.01,0.06 0.02,0.13 0.03,0.08 0.15,0.16 0.25,0.19 0.08,0.01 0.15,0 0.23,-0.03 0.02,-0.01 0.07,-0.04 0.1,-0.13 0.02,-0.04 0.04,-0.08 0.05,-0.12 0.04,-0.1 0.57,-1.4 0.5,-1.63z"/>
 </g>
</svg>
