<?xml version="1.0" encoding="UTF-8"?>
<!DOCTYPE svg PUBLIC "-//W3C//DTD SVG 1.1//EN" "http://www.w3.org/Graphics/SVG/1.1/DTD/svg11.dtd">
<!-- Creator: CorelDRAW 2018 (64 Bit Versão de avaliação) -->
<svg xmlns="http://www.w3.org/2000/svg" xml:space="preserve" width="248px" height="75px" version="1.1" style="shape-rendering:geometricPrecision; text-rendering:geometricPrecision; image-rendering:optimizeQuality; fill-rule:evenodd; clip-rule:evenodd"
viewBox="0 0 1490.34 450.95"
 xmlns:xlink="http://www.w3.org/1999/xlink">
 <defs>
  <style type="text/css">
   <![CDATA[
    .fil0 {fill:#FEFEFE;fill-rule:nonzero}
   ]]>
  </style>
 </defs>
 <g id="Camada_x0020_1">
  <metadata id="CorelCorpID_0Corel-Layer"/>
  <path class="fil0" d="M548.84 164.47c7.83,0 14.18,-6.35 14.18,-14.18 0,-7.83 -6.35,-14.18 -14.18,-14.18 -7.83,0 -14.18,6.35 -14.18,14.18 0,7.83 6.35,14.18 14.18,14.18z"/>
  <path class="fil0" d="M1177.94 104.61c8.96,-26.69 -13.18,-11.44 -17.24,-7.2 -4.07,4.24 -6.95,7.43 -8.63,9.55 -3.07,3.63 -40.39,51.2 -40.2,51.17l-20.24 32.31c-4.17,7.2 -6.32,11 -6.47,11.4l-0.29 0.04 2.33 -13.71c1.41,-7.21 6.24,-27.07 9.14,-33.69 5.31,-14.95 14.16,-33.69 26.54,-56.22 2.67,-4.23 4.32,-7.63 5.29,-10.36 3.07,-8.65 -9.02,-10.75 -18.43,-4.35 -10.13,6.89 -19.21,14.13 -31.98,30.62 -12.79,16.51 -25.44,38.41 -37.99,65.71 0,0 -6.86,15.55 -10.61,23.63 -3.76,8.1 -6.98,14.6 -9.68,19.52 -19.03,35.18 -41.15,45.35 -58.81,45.24 -11.31,-0.08 -41.58,-19.6 -21.77,-49.74 4.37,-4.18 9.16,-6.72 14.35,-7.59 5.37,-1.08 10.34,-0.65 14.93,1.31 4.58,1.96 8.3,4.75 11.14,8.37 1.89,2.42 3.8,3.49 5.74,3.23 2.51,-0.33 3.37,-1.29 2.57,-2.9 -2,-4.67 -6.23,-8.39 -12.69,-11.15 -6.47,-2.76 -13.37,-3.66 -20.71,-2.69 -11.03,1.45 -20.02,6.43 -26.96,14.95 -7.62,9.36 -19.52,39.82 15.08,55.85 27.23,8.66 51.97,-5.22 69.43,-25.94 7.43,-10.85 16.06,-26.72 25.91,-47.59l3.22 -6.93 -0.12 -0.32c0,0 14.51,-30.98 18.31,-38.6 9.51,-18.92 19.52,-34.78 30.04,-47.56 2.69,-3.4 5.64,-6.78 8.85,-10.15 3.19,-3.36 4.98,-5.07 5.37,-5.12l-0.94 1.83c-7.35,11.42 -14.32,24.26 -20.9,38.52 -6.59,14.27 -11.36,27.29 -14.33,39.08 -0.25,1.17 -2.84,14.34 -3.34,19.54 -0.95,7.73 -1.28,15.27 -1,22.65 0.28,7.37 1.03,11.93 2.25,13.66 1.45,2.1 4.5,2.84 9.14,2.23 3.87,-0.52 6.43,-1.99 7.68,-4.43 0.82,-1.26 2.99,-5.72 6.5,-13.4 6.77,-14.38 12.96,-26.36 18.59,-35.94 5.62,-9.57 13.16,-21.06 22.61,-34.47 10.83,-14.92 17.93,-23.74 21.31,-26.46 0.7,-0.67 0.74,-0.38 0.11,0.84 -3.44,6.72 -7.4,16.27 -11.87,28.64 -7.36,20.34 -12.42,39.78 -15.2,58.29 -2.78,18.52 -3.04,34.08 -0.79,46.7 1.99,10.24 5.05,20.4 15.07,26.86 10.4,6.7 19.52,9.04 26.89,9.06 7.03,0.01 22.01,-3.88 35.16,-15.02 2.21,-1.87 1.81,-2.82 -0.59,-1.33 -9.24,5.73 -19.3,9.71 -28.17,9.05 -7.71,-0.56 -14.76,-4.87 -16.21,-6.27 -10.06,-9.77 -11.21,-30.17 -11.35,-33.42 -0.54,-13.36 2.08,-30.31 8.4,-56.33 2.33,-9.64 16.05,-62.26 25.56,-80.97z"/>
  <path class="fil0" d="M1376.29 217.86c5.68,-12.21 8,-18.96 6.95,-20.22 -0.63,-0.63 -1.95,-1 -3.95,-1.1 -2.01,-0.1 -3.42,0.05 -4.26,0.47 -1.27,0.63 -2.53,2.95 -3.79,6.95 -3.17,9.27 -7.75,19.54 -13.75,30.8 -6,11.27 -11.85,19.75 -17.53,25.43 -1.89,2.11 -4.01,4.01 -6.32,5.69 -2.32,1.69 -3.68,2.32 -4.11,1.9 -0.84,-0.84 3.16,-15.59 12.01,-44.23 4.21,-13.69 6.32,-22.85 6.32,-27.48 0.21,-5.06 -0.95,-8.86 -3.48,-11.38 -2.53,-2.53 -6.95,-4.42 -13.27,-5.69 -14.11,-2.73 -22.96,-4.63 -26.53,-5.69l-5.38 -1.57 -1.26 -3.79c-1.69,-6.11 -4.85,-9.17 -9.48,-9.17 -1.68,0 -3.31,0.37 -4.89,1.11 -1.58,0.74 -2.69,1.53 -3.32,2.37 -1.05,1.9 -1,4.11 0.16,6.63 1.16,2.53 3.1,4.42 5.84,5.69 1.47,0.63 2.21,1.9 2.21,3.79 -0.21,4.64 -2.21,13.16 -6,25.59 -1.27,4.22 -1.94,6.85 -2.05,7.9 -0.11,1.06 0.26,1.79 1.1,2.21 3.59,1.26 6.32,0.31 8.22,-2.84 1.05,-1.69 2.42,-5.06 4.11,-10.11 1.68,-5.05 2.94,-9.48 3.78,-13.27 0.64,-4 1.06,-6.26 1.27,-6.8 0.2,-0.52 4.53,0.17 12.96,2.06 6.31,1.48 10.31,2.58 12,3.32 1.68,0.74 2.52,1.73 2.52,3 0,0.84 -2.52,8.85 -7.58,24.01 -5.05,15.17 -8.37,25.74 -9.95,31.75 -1.58,6 -2.27,11.11 -2.05,15.32 0.21,5.69 1.68,9.79 4.42,12.32 2.73,2.53 6.84,3.8 12.32,3.8 17.06,0.42 34.64,-19.17 52.76,-58.77zm-17.69 -7.9c-6.11,13.91 -8.85,25.8 -8.21,35.7 1.05,15.59 7.89,23.91 20.53,24.96 6.53,0.42 12.31,-1.05 17.38,-4.42 2.73,-1.69 6.31,-4.63 10.73,-8.85 4.43,-4.21 7.59,-7.63 9.48,-10.27 1.9,-2.63 2.95,-3.94 3.16,-3.94 0.21,0 0.26,0.52 0.16,1.57 -0.11,1.06 -0.21,2.53 -0.32,4.43 -0.1,1.89 -0.1,3.9 0,6 0.11,2.11 0.42,4.27 0.95,6.48 0.52,2.21 1.21,4.05 2.05,5.53 1.47,3.15 4.53,5.21 9.17,6.16 4.63,0.95 9.26,0.57 13.9,-1.11 7.15,-2.74 14.69,-9.05 22.59,-18.95 7.89,-9.9 14.47,-20.12 19.74,-30.65 6.95,-13.69 10.43,-21.38 10.43,-23.06 0,-0.42 -0.9,-0.84 -2.69,-1.26 -1.79,-0.43 -3.21,-0.53 -4.27,-0.32 -1.26,0.21 -2.37,1 -3.31,2.37 -0.95,1.37 -2.58,4.58 -4.9,9.63 -8.63,19.8 -18.01,34.75 -28.12,44.86 -7.79,7.8 -12.84,11.69 -15.16,11.69 -0.63,0 -1,-0.94 -1.1,-2.84 -0.12,-1.9 0,-4.26 0.31,-7.11 0.32,-2.84 0.79,-5.53 1.42,-8.05 2.74,-12.43 6.95,-26.96 12.64,-43.6 5.06,-14.95 7.89,-24.32 8.53,-28.12 0.63,-3.79 -0.11,-6.21 -2.21,-7.27 -2.53,-1.26 -5.64,-1.62 -9.32,-1.1 -3.69,0.53 -6.16,1.74 -7.42,3.64 -0.85,1.05 -1.9,2.73 -3.17,5.05l-1.89 3.79 -1.89 -2.84c-2.11,-3.58 -4.38,-6.22 -6.8,-7.9 -2.42,-1.69 -5.53,-2.85 -9.32,-3.47 -5.9,-0.85 -11.11,-0.32 -15.64,1.57 -4.53,1.9 -9.95,5.48 -16.26,10.74 -8.01,6.74 -15.06,17.07 -21.17,30.96zm59.23 -30.48c3.05,4.1 5,7.85 5.85,11.21 0.42,2.53 -0.22,6.32 -1.9,11.37 -1.69,5.06 -3.05,9.49 -4.11,13.27 -1.69,6.32 -6.53,14.53 -14.53,24.65 -8.01,10.11 -14.84,16.85 -20.53,20.21 -4.22,2.53 -6.64,2.85 -7.27,0.95 -1.26,-5.26 -0.37,-13.84 2.68,-25.75 3.06,-11.89 7.32,-23.43 12.8,-34.59 3.58,-7.37 6.37,-12.53 8.38,-15.48 1.99,-2.95 4.15,-5.68 6.47,-8.21 2.31,-2.53 3.89,-3.8 4.74,-3.8 1.9,0 4.36,2.06 7.42,6.17z"/>
  <path class="fil0" d="M1161.5 213.81c-6.11,13.9 -8.85,25.8 -8.21,35.7 1.06,15.59 7.89,23.91 20.53,24.96 6.53,0.42 12.32,-1.05 17.38,-4.43 2.73,-1.68 6.31,-4.62 10.74,-8.84 4.42,-4.21 7.58,-7.63 9.48,-10.27 1.89,-2.63 2.94,-3.95 3.15,-3.95 0.21,0 0.27,0.53 0.16,1.59 -0.11,1.05 -0.21,2.52 -0.31,4.41 -0.11,1.9 -0.11,3.9 0,6.01 0.1,2.11 0.42,4.26 0.95,6.47 0.51,2.22 1.2,4.06 2.05,5.53 1.47,3.16 4.53,5.21 9.16,6.16 4.63,0.95 9.27,0.58 13.9,-1.1 7.16,-2.74 14.69,-9.05 22.59,-18.96 7.9,-9.9 14.47,-20.11 19.75,-30.64 6.94,-13.69 10.42,-21.37 10.42,-23.06 0,-0.42 -0.9,-0.84 -2.69,-1.27 -1.79,-0.41 -3.21,-0.52 -4.27,-0.31 -1.26,0.2 -2.36,1 -3.31,2.37 -0.95,1.37 -2.58,4.58 -4.9,9.63 -8.63,19.8 -18.01,34.76 -28.11,44.86 -7.8,7.8 -12.85,11.7 -15.17,11.7 -0.63,0 -1,-0.96 -1.1,-2.86 -0.12,-1.89 0,-4.26 0.31,-7.1 0.32,-2.84 0.79,-5.53 1.43,-8.05 2.73,-12.43 6.95,-26.96 12.63,-43.6 5.06,-14.96 7.9,-24.33 8.53,-28.12 0.63,-3.79 -0.11,-6.21 -2.21,-7.26 -2.52,-1.27 -5.63,-1.63 -9.32,-1.11 -3.69,0.53 -6.16,1.74 -7.42,3.63 -0.85,1.06 -1.9,2.74 -3.16,5.05l-1.9 3.8 -1.89 -2.85c-2.12,-3.58 -4.38,-6.2 -6.8,-7.89 -2.42,-1.69 -5.53,-2.85 -9.32,-3.48 -5.9,-0.84 -11.11,-0.31 -15.63,1.58 -4.54,1.9 -9.96,5.48 -16.27,10.74 -8.01,6.75 -15.06,17.06 -21.17,30.96zm59.23 -30.48c3.05,4.1 5,7.85 5.85,11.21 0.42,2.53 -0.21,6.32 -1.9,11.37 -1.68,5.06 -3.05,9.48 -4.11,13.27 -1.68,6.32 -6.52,14.54 -14.53,24.64 -8,10.11 -14.84,16.86 -20.53,20.23 -4.22,2.52 -6.63,2.84 -7.27,0.94 -1.26,-5.26 -0.37,-13.85 2.69,-25.75 3.05,-11.89 7.32,-23.43 12.8,-34.59 3.57,-7.37 6.36,-12.53 8.36,-15.48 2,-2.95 4.16,-5.68 6.48,-8.22 2.32,-2.52 3.9,-3.78 4.74,-3.78 1.9,0 4.37,2.05 7.42,6.16z"/>
  <path class="fil0" d="M370.22 297.8c-32.28,-5.54 -64.18,-28.25 -74.66,-32.85l-11.22 -4.93 3.41 -2.59c4.34,-3.49 8.4,-8.84 12.16,-16.06 5.49,-10.4 10.93,-24.23 16.34,-41.49 2.89,-9.76 4.5,-15.01 4.84,-15.77 0.32,-0.76 2.36,-1.77 6.12,-3.03 12.87,-4.14 25.1,-11.41 36.72,-21.81 7.51,-6.53 14.07,-13.87 19.69,-21.98 5.61,-8.11 9.48,-15.84 11.59,-23.21 2.25,-8.05 2.05,-15 -0.58,-20.85 -2.63,-5.85 -7.35,-10.03 -14.15,-12.56 -3.37,-0.99 -7.29,-1.37 -11.76,-1.15 -4.48,0.23 -7.79,0.77 -9.96,1.64 -23.21,8.86 -41.79,35.15 -55.75,78.86 -2.8,8.71 -4.56,14.53 -5.28,17.45 -0.77,2.56 -1.49,4.04 -2.16,4.41 -0.68,0.38 -2.38,0.28 -5.09,-0.3 -9.18,-1.86 -17.54,-5.62 -25.05,-11.27 -7.53,-5.66 -13.22,-12.43 -17.08,-20.32 -1.27,-2.38 -2.37,-5.68 -3.31,-9.89 -0.94,-4.21 -1.19,-21.79 5.02,-31.39 4.48,-6.92 12.23,-14.14 25.79,-19.64 13.88,-2.38 22.39,0.76 25.65,4.74 3.95,4.73 5.64,10.23 5.05,16.49 -0.16,1.68 -1.62,8.59 -4.69,11.4 -3.07,2.83 -2.58,1.82 -4.5,2.61 -1.93,0.79 -3.19,0.71 -3.79,-0.21 -0.68,-1.16 -1.73,-2.73 -3.75,-3.05 -2.03,-0.32 -3.38,0.85 -3.42,1.81 -1,3.64 5.95,7.04 13.36,6.02 7.4,-1.03 11.61,-7.05 12.4,-8.61 3.86,-8.26 4.15,-16 0.86,-23.22 -3.29,-7.22 -9.04,-12.07 -17.26,-14.54 -2.33,-0.73 -13.4,-4.15 -26.59,-0.08 -13.19,4.07 -30.58,16.9 -33.66,34.12 -3.09,17.22 -1.39,22.11 2.86,31.79 4.25,9.67 11.12,17.95 20.6,24.83 9.49,6.88 19.71,10.98 30.68,12.28 2.88,0.25 4.49,0.48 4.82,0.69 0.32,0.2 -0.73,4.41 -3.17,12.62 -2.44,8.21 -4.62,14.86 -6.56,19.97 -5.8,15.29 -10.39,25.5 -13.74,30.65 -1.41,2.34 -2.61,3.59 -3.61,3.77 -1.01,0.18 -3.81,-0.29 -8.42,-1.39 -7.75,-1.9 -20.9,-6.79 -35.93,-0.76 -3.16,1.13 -5.93,3.08 -8.3,5.86 -3.1,3.76 -4.56,7.49 -4.38,11.2 0.21,2.1 1.72,6.28 6.22,9.84 3.84,3.04 9.72,5.63 20.22,6.03 12.04,0.15 27.77,-10.67 30.81,-12.07 3.02,-1.41 5.01,-2.42 5.97,-3.03l11.93 5.78c7.75,3.83 14.42,7.22 20.03,10.17 11.1,5.9 21.48,10.7 31.16,14.38 9.91,3.78 19.08,6.39 27.5,7.84 12.91,1.54 21.65,0.72 27.61,-1.38 12.2,-4.28 12.8,-13.91 13.81,-19.55 -5.59,6.69 -13.92,15.59 -35.4,11.73zm-110.81 -35.74c-1.01,2.2 -5.4,5.33 -13.15,9.39 -13.82,6.87 -22.15,3.29 -24.33,-1.07 -0.69,-2.2 -0.19,-7.2 5.3,-10.6 3.97,-2.46 16.61,-4.43 28.11,-0.05 2.69,1.38 4.05,2.16 4.07,2.33zm63.52 -83.98c-0.02,-0.17 1.27,-4.54 3.88,-13.09 5.55,-17.77 11.6,-31.72 18.13,-41.86 7.59,-11.8 13.29,-20.08 17.1,-24.84 3.81,-4.76 7.36,-7.95 10.67,-9.6 1.95,-0.89 3.23,-1.43 3.82,-1.64 0.59,-0.22 1.41,-0.18 2.46,0.08 1.05,0.27 2.15,1.07 3.31,2.39 3.45,3.82 5.1,9.05 4.96,15.71 -0.2,6.12 -2.17,12.89 -5.91,20.28 -4.73,9.77 -11.36,18.98 -19.88,27.63 -8.52,8.64 -17.64,15.44 -27.36,20.39 -1.75,0.89 -3.5,1.75 -5.26,2.57 -1.75,0.81 -3.18,1.39 -4.27,1.73 -1.08,0.34 -1.64,0.43 -1.65,0.25z"/>
  <path class="fil0" d="M435.14 251.05c6.95,-9.48 12.64,-18.96 17.06,-28.43 6.11,-12.65 8.85,-19.38 8.21,-20.22 -0.62,-0.64 -1.68,-1.05 -3.15,-1.27 -1.48,-0.2 -2.85,-0.1 -4.11,0.32 -1.48,0.63 -3.58,4 -6.32,10.11 -8.84,19.58 -17.9,34.55 -27.17,44.86 -2.1,2.32 -5.21,5.11 -9.32,8.37 -4.1,3.27 -6.58,4.89 -7.42,4.89 -0.42,0 -0.74,-0.1 -0.95,-0.31 -3.37,-2.73 0.84,-21.8 12.64,-57.18 7.37,-22.32 10.85,-34.54 10.42,-36.64 -0.42,-1.69 -2.26,-2.9 -5.52,-3.64 -3.27,-0.74 -6.59,-0.68 -9.96,0.16 -2.74,0.84 -5.21,3.53 -7.42,8.05 -2.21,4.54 -5.74,14.07 -10.59,28.6 -3.16,8.84 -7.37,17.64 -12.63,26.37 -5.27,8.74 -10.64,15.86 -16.11,21.33 -2.96,2.95 -6.11,5.69 -9.48,8.21 -3.37,2.53 -5.37,3.59 -6,3.16 -0.42,-0.42 -0.53,-2.95 -0.32,-7.58 0.42,-9.48 4.53,-25.48 12.32,-48.02 7.16,-21.69 10.75,-34.01 10.75,-36.96 0,-1.89 -0.69,-3.21 -2.06,-3.95 -1.37,-0.73 -3.84,-1.11 -7.42,-1.11 -4.01,0 -6.75,0.48 -8.22,1.42 -1.47,0.95 -3.16,3.32 -5.05,7.11 -4.85,9.91 -9.43,22.8 -13.74,38.7 -4.32,15.91 -6.27,29.33 -5.85,40.28 0.22,4.85 1.06,8.43 2.53,10.74 2.11,3.8 5.58,6.11 10.43,6.95 4.84,0.85 9.89,0 15.16,-2.53 2.73,-1.47 6.2,-4.1 10.43,-7.89 4.2,-3.79 7.89,-7.69 11.05,-11.69 2.73,-3.37 4.21,-5.26 4.42,-5.69 0.21,-0.21 0.32,0.22 0.32,1.27 0,10.53 0.73,17.27 2.21,20.22 2.53,5.05 6.89,7.79 13.11,8.21 6.21,0.41 11.95,-1.27 17.22,-5.05 6.74,-4.63 13.58,-11.7 20.53,-21.17zm64.61 9.16c6.84,-5.26 12.27,-10.43 16.27,-15.48 4.84,-5.9 9.68,-13 14.53,-21.32 4.84,-8.32 7.47,-14.06 7.9,-17.22 0.42,-1.9 -0.11,-3.05 -1.58,-3.48 -2.74,-1.05 -4.85,-1.05 -6.32,0 -1.48,1.06 -2.95,3.48 -4.42,7.26 -2.96,7.8 -7.48,15.8 -13.59,24.02 -6.1,8.22 -12.53,14.85 -19.27,19.9 -10.11,7.79 -19.17,12.32 -27.17,13.58 -1.89,0.22 -3.47,-0.51 -4.74,-2.2 -2.31,-2.74 -3.79,-7.37 -4.42,-13.9 -1.05,-14.54 4.63,-33.91 17.06,-58.13 2.53,-5.06 5.16,-9.32 7.9,-12.8 2.73,-3.48 4.63,-5.1 5.68,-4.89 1.27,0.63 3,3.79 5.22,9.47 2.21,5.69 3.31,9.91 3.31,12.64 0,2.32 1.68,3.47 5.06,3.47 2.31,0 3.79,-0.47 4.42,-1.42 0.63,-0.95 0.95,-3.2 0.95,-6.79 0,-8 -1.69,-14.27 -5.06,-18.79 -3.36,-4.53 -8.53,-6.8 -15.47,-6.8 -6.53,0 -13.06,2.21 -19.59,6.63 -12.85,8.64 -23.06,22.43 -30.65,41.39 -2.31,6.11 -4.1,12.69 -5.37,19.74 -1.26,7.06 -1.57,12.59 -0.94,16.59 1.69,10.95 7.68,18.33 18.01,22.11 10.31,3.8 21.58,3.06 33.8,-2.2 5.47,-2.32 11.63,-6.11 18.48,-11.38zm28.74 -78.51c-2.21,4.74 -5.32,13.01 -9.32,24.8 -4.63,13.7 -7.63,26.44 -9,38.23 -1.37,11.8 -0.89,20.11 1.43,24.95 2.52,4.85 6.94,7.38 13.26,7.59 6.32,0.21 12.21,-1.68 17.69,-5.68 2.32,-1.47 5.32,-4.12 9.01,-7.9 3.68,-3.8 6.68,-7.37 9,-10.75 9.06,-12 17.16,-26.22 24.33,-42.65 1.47,-3.57 2.31,-5.74 2.53,-6.47 0.2,-0.74 0,-1.32 -0.64,-1.74 -1.06,-0.84 -2.21,-1.27 -3.47,-1.27 -2.32,0 -3.95,0.59 -4.9,1.75 -0.95,1.16 -2.58,4.37 -4.9,9.63 -12,27.38 -25.16,45.71 -39.49,54.97 -2.74,1.9 -4.37,2.52 -4.89,1.9 -0.53,-0.64 -0.69,-3.16 -0.48,-7.59 0.21,-4.63 2.42,-14.53 6.64,-29.69 0.63,-2.95 2.73,-9.48 6.31,-19.59 6.75,-20.43 10.11,-32.22 10.11,-35.38 0,-1.9 -0.74,-3.26 -2.21,-4.11 -1.89,-0.84 -4.37,-1.21 -7.42,-1.11 -3.05,0.12 -5.43,0.59 -7.11,1.42 -2.1,1.06 -4.26,3.95 -6.48,8.69zm33.97 31.75c-6.11,13.91 -8.85,25.8 -8.22,35.7 1.06,15.59 7.9,23.91 20.54,24.96 6.52,0.42 12.32,-1.05 17.37,-4.43 2.74,-1.68 6.32,-4.62 10.74,-8.84 4.42,-4.21 7.59,-7.63 9.48,-10.27 1.9,-2.63 2.95,-3.95 3.16,-3.95 0.2,0 0.26,0.53 0.16,1.58 -0.11,1.06 -0.22,2.53 -0.32,4.43 -0.11,1.9 -0.11,3.9 0,6 0.1,2.11 0.42,4.27 0.95,6.48 0.52,2.21 1.21,4.05 2.05,5.52 1.47,3.16 4.52,5.21 9.16,6.16 4.63,0.96 9.27,0.58 13.91,-1.1 7.15,-2.74 14.68,-9.05 22.58,-18.95 7.9,-9.91 14.48,-20.11 19.75,-30.65 6.95,-13.69 10.42,-21.37 10.42,-23.06 0,-0.42 -0.9,-0.84 -2.68,-1.27 -1.8,-0.41 -3.21,-0.52 -4.26,-0.31 -1.27,0.21 -2.38,1 -3.33,2.37 -0.95,1.38 -2.58,4.58 -4.89,9.63 -8.64,19.8 -18.01,34.75 -28.12,44.86 -7.79,7.8 -12.84,11.7 -15.16,11.7 -0.64,0 -1.01,-0.95 -1.11,-2.85 -0.11,-1.89 0,-4.26 0.32,-7.11 0.32,-2.84 0.79,-5.52 1.42,-8.05 2.73,-12.43 6.95,-26.96 12.64,-43.6 5.05,-14.95 7.89,-24.33 8.53,-28.12 0.63,-3.79 -0.11,-6.21 -2.22,-7.27 -2.52,-1.26 -5.63,-1.62 -9.32,-1.1 -3.68,0.53 -6.15,1.74 -7.42,3.64 -0.84,1.05 -1.9,2.73 -3.16,5.05l-1.9 3.79 -1.89 -2.84c-2.11,-3.59 -4.37,-6.21 -6.79,-7.9 -2.43,-1.69 -5.53,-2.85 -9.32,-3.48 -5.9,-0.84 -11.11,-0.31 -15.64,1.58 -4.53,1.9 -9.95,5.48 -16.27,10.74 -8.01,6.75 -15.06,17.07 -21.16,30.96zm59.23 -30.48c3.05,4.11 5,7.85 5.84,11.22 0.43,2.52 -0.21,6.31 -1.89,11.37 -1.69,5.05 -3.06,9.48 -4.11,13.26 -1.69,6.33 -6.53,14.54 -14.53,24.64 -8,10.12 -14.85,16.86 -20.53,20.23 -4.22,2.52 -6.64,2.84 -7.27,0.94 -1.27,-5.26 -0.38,-13.84 2.68,-25.75 3.05,-11.89 7.32,-23.42 12.8,-34.59 3.58,-7.37 6.37,-12.53 8.37,-15.48 2,-2.94 4.16,-5.68 6.48,-8.21 2.31,-2.53 3.89,-3.79 4.74,-3.79 1.89,0 4.36,2.05 7.42,6.16zm57.02 90.67c0.42,-0.11 1.16,-0.8 2.21,-2.05 1.27,-1.47 2,-3.37 2.22,-5.69 0.63,-5.27 2.79,-13.85 6.47,-25.75 3.68,-11.9 6.9,-20.8 9.64,-26.7 3.79,-7.79 8.94,-15.16 15.48,-22.11 6.52,-6.95 13.15,-12.21 19.9,-15.79 3.79,-1.9 6.42,-2.8 7.9,-2.69 1.47,0.11 2.52,1.21 3.15,3.32 0.85,2.32 0.85,5.68 0,10.1 -0.84,4.43 -2.62,10.86 -5.36,19.28 -6.32,19.59 -10.23,33.01 -11.69,40.28 -1.48,7.26 -1.37,12.58 0.32,15.95 2.52,5.68 8.1,8.53 16.73,8.53 6.96,-0.2 12.49,-1.53 16.59,-3.95 4.11,-2.42 9,-7.42 14.69,-15 7.37,-9.69 13.69,-22.33 18.96,-37.92 2.31,-6.73 3.26,-10.42 2.84,-11.05 -0.63,-0.64 -1.85,-1 -3.64,-1.11 -1.78,-0.11 -3.1,0.16 -3.94,0.79 -0.84,0.63 -2.22,3.69 -4.11,9.16 -7.16,20.22 -15.9,35.59 -26.22,46.12 -4.85,5.06 -8.95,7.38 -12.32,6.96 -4.64,-0.84 -3.58,-10 3.16,-27.49 8.21,-21.27 12.43,-38.01 12.63,-50.23 0.21,-12.64 -6.63,-18.95 -20.53,-18.95 -4.42,0 -8.79,0.89 -13.11,2.68 -4.32,1.79 -8.06,4 -11.22,6.63 -3.16,2.64 -6.05,5.22 -8.69,7.75 -2.63,2.52 -4.68,4.57 -6.15,6.16 -1.48,1.57 -2.32,2.26 -2.53,2.05 -0.21,-0.21 0.95,-3.89 3.47,-11.06 1.9,-6.1 2.9,-10.11 3,-12 0.11,-1.9 -0.58,-3.16 -2.05,-3.79 -2.32,-0.84 -5.48,-0.9 -9.47,-0.16 -4.01,0.74 -6.85,1.95 -8.53,3.63 -2.33,2.11 -5.91,9.9 -10.75,23.38 -8.84,24.22 -13.26,44.23 -13.26,60.02 0,11.17 3.37,17.8 10.1,19.9 2.32,0.64 3.69,0.91 4.11,0.8zm96.35 -60.19c-6.1,13.91 -8.84,25.8 -8.21,35.7 1.06,15.59 7.9,23.91 20.54,24.96 6.52,0.42 12.31,-1.05 17.37,-4.43 2.74,-1.68 6.32,-4.62 10.74,-8.84 4.43,-4.21 7.59,-7.63 9.48,-10.27 1.9,-2.63 2.95,-3.95 3.16,-3.95 0.2,0 0.26,0.53 0.16,1.58 -0.11,1.06 -0.21,2.53 -0.32,4.43 -0.11,1.9 -0.11,3.9 0,6 0.11,2.11 0.42,4.27 0.95,6.48 0.52,2.21 1.21,4.05 2.05,5.52 1.47,3.16 4.53,5.21 9.16,6.16 4.63,0.96 9.27,0.58 13.91,-1.1 7.15,-2.74 14.68,-9.05 22.58,-18.95 7.9,-9.91 14.48,-20.11 19.75,-30.65 6.95,-13.69 10.42,-21.37 10.42,-23.06 0,-0.42 -0.89,-0.84 -2.68,-1.27 -1.8,-0.41 -3.22,-0.52 -4.27,-0.31 -1.26,0.21 -2.37,1 -3.32,2.37 -0.95,1.38 -2.58,4.58 -4.89,9.63 -8.64,19.8 -18.01,34.75 -28.12,44.86 -7.79,7.8 -12.85,11.7 -15.16,11.7 -0.64,0 -1,-0.95 -1.11,-2.85 -0.11,-1.89 0,-4.26 0.32,-7.11 0.32,-2.84 0.79,-5.52 1.42,-8.05 2.73,-12.43 6.95,-26.96 12.63,-43.6 5.06,-14.95 7.9,-24.33 8.53,-28.12 0.64,-3.79 -0.11,-6.21 -2.2,-7.27 -2.53,-1.26 -5.65,-1.62 -9.32,-1.1 -3.69,0.53 -6.16,1.74 -7.43,3.64 -0.85,1.05 -1.9,2.73 -3.16,5.05l-1.89 3.79 -1.9 -2.84c-2.11,-3.59 -4.37,-6.21 -6.79,-7.9 -2.42,-1.69 -5.53,-2.85 -9.32,-3.48 -5.9,-0.84 -11.11,-0.31 -15.64,1.58 -4.53,1.9 -9.95,5.48 -16.27,10.74 -8.01,6.75 -15.06,17.07 -21.17,30.96zm59.24 -30.48c3.05,4.11 5,7.85 5.84,11.22 0.42,2.52 -0.21,6.31 -1.89,11.37 -1.69,5.05 -3.05,9.48 -4.11,13.26 -1.69,6.33 -6.53,14.54 -14.53,24.64 -8,10.12 -14.85,16.86 -20.53,20.23 -4.22,2.52 -6.64,2.84 -7.27,0.94 -1.27,-5.26 -0.37,-13.84 2.68,-25.75 3.05,-11.89 7.32,-23.42 12.8,-34.59 3.58,-7.37 6.37,-12.53 8.37,-15.48 2,-2.94 4.16,-5.68 6.48,-8.21 2.31,-2.53 3.89,-3.79 4.74,-3.79 1.89,0 4.36,2.05 7.42,6.16z"/>
  <path class="fil0" d="M521.51 345.01c-2.44,1.49 -5.15,2.24 -8.13,2.24 -3.57,0 -6.71,-1.04 -9.44,-3.12l27.15 -23.94c-1.75,-2.79 -4.23,-5.08 -7.44,-6.91 -3.21,-1.81 -6.64,-2.72 -10.27,-2.72 -5.71,0 -10.64,2.04 -14.79,6.13 -4.15,4.09 -6.23,9.05 -6.23,14.89 0,5.71 2.08,10.64 6.23,14.79 4.15,4.15 9.08,6.23 14.79,6.23 3.96,0 7.59,-1.02 10.9,-3.06 3.31,-2.05 5.84,-4.73 7.59,-8.03l-4.67 -2.63c-1.36,2.59 -3.26,4.64 -5.69,6.13zm-23.8 -13.43c0,-4.41 1.52,-8.13 4.54,-11.14 3.01,-3.02 6.72,-4.53 11.13,-4.53 3.89,0 7.3,1.27 10.22,3.8l-23.26 20.63c-1.75,-2.66 -2.63,-5.58 -2.63,-8.76zm42.72 13.92c1.17,2.07 2.73,3.71 4.67,4.91 1.95,1.19 4.09,1.8 6.42,1.8 2.34,0 4.45,-0.55 6.33,-1.65 1.88,-1.11 3.37,-2.6 4.48,-4.48 1.1,-1.88 1.65,-3.99 1.65,-6.33 0,-2.85 -0.83,-5.38 -2.48,-7.59 -1.66,-2.2 -3.81,-3.66 -6.47,-4.37l-4.67 -1.37c-2.53,-0.71 -3.8,-2.36 -3.8,-4.96 0,-1.36 0.49,-2.56 1.46,-3.6 0.97,-1.04 2.21,-1.56 3.7,-1.56 2.4,0 3.99,1.04 4.77,3.12l4.86 -2.05c-0.78,-1.95 -2.05,-3.5 -3.84,-4.67 -1.79,-1.17 -3.72,-1.75 -5.79,-1.75 -2.92,0 -5.4,1.02 -7.44,3.06 -2.05,2.05 -3.07,4.53 -3.07,7.45 0,2.33 0.71,4.43 2.14,6.28 1.43,1.84 3.31,3.13 5.64,3.84l4.67 1.36c1.43,0.39 2.62,1.22 3.56,2.48 0.94,1.27 1.41,2.71 1.41,4.33 0,2.02 -0.68,3.7 -2.05,5.06 -1.36,1.36 -3.04,2.04 -5.06,2.04 -2.98,0 -5.12,-1.29 -6.42,-3.89l-4.67 2.54zm39.21 5.93l5.36 0 0 -34.45 7.1 0 0 -5.35 -7.1 0 0 -13.82 -5.36 2.63 0 11.19 -7.2 0 0 5.35 7.2 0 0 34.45zm48.75 -39.8l0 25.01c0,2.79 -0.98,5.24 -2.96,7.35 -1.99,2.11 -4.5,3.16 -7.55,3.16 -2.78,0 -5.23,-1.02 -7.34,-3.07 -2.11,-2.04 -3.16,-4.52 -3.16,-7.44l0 -25.01 -5.35 0 0 25.01c0,4.48 1.52,8.24 4.57,11.29 3.05,3.05 6.81,4.57 11.28,4.57 4.48,0 8.24,-1.59 11.3,-4.77l4.56 3.7 0 -39.8 -5.35 0zm-22.47 -5.74l24.33 -10.7 -2.93 -5.45 -22.67 13.91 1.27 2.24zm43.98 10.8c-4.16,4.09 -6.23,9.05 -6.23,14.89 0,5.71 2.07,10.64 6.23,14.79 4.15,4.15 9.08,6.23 14.79,6.23 5.9,0 10.96,-2.17 15.18,-6.52l5.84 5.35 0 -66.17 -5.36 0 0 32.31c-4.21,-4.67 -9.43,-7.01 -15.66,-7.01 -5.71,0 -10.64,2.04 -14.79,6.13zm25.88 3.8c3.05,3.05 4.57,6.74 4.57,11.09 0,4.35 -1.52,8.04 -4.57,11.09 -3.05,3.05 -6.75,4.58 -11.09,4.58 -4.41,0 -8.13,-1.52 -11.14,-4.53 -3.02,-3.02 -4.53,-6.73 -4.53,-11.14 0,-4.41 1.51,-8.13 4.53,-11.14 3.01,-3.02 6.73,-4.53 11.14,-4.53 4.34,0 8.04,1.53 11.09,4.58zm21.31 30.94l5.36 0 0 -39.79 -5.36 0 0 39.79zm0 -49.53l5.36 0 0 -5.84 -5.36 0 0 5.84zm21.5 14.79c-4.15,4.09 -6.22,9.05 -6.22,14.89 0,5.71 2.07,10.64 6.22,14.79 4.15,4.15 9.08,6.23 14.79,6.23 5.84,0 10.8,-2.08 14.89,-6.23 4.09,-4.15 6.13,-9.08 6.13,-14.79 0,-5.84 -2.04,-10.8 -6.13,-14.89 -4.09,-4.09 -9.05,-6.13 -14.89,-6.13 -5.71,0 -10.64,2.04 -14.79,6.13zm25.89 3.8c3.04,3.05 4.57,6.74 4.57,11.09 0,4.35 -1.53,8.04 -4.57,11.09 -3.05,3.05 -6.75,4.58 -11.1,4.58 -4.41,0 -8.12,-1.52 -11.14,-4.53 -3.01,-3.02 -4.52,-6.73 -4.52,-11.14 0,-4.41 1.51,-8.13 4.52,-11.14 3.02,-3.02 6.73,-4.53 11.14,-4.53 4.35,0 8.05,1.53 11.1,4.58zm61.59 -3.8c-4.15,4.09 -6.23,9.05 -6.23,14.89 0,5.71 2.08,10.64 6.23,14.79 4.15,4.15 9.09,6.23 14.79,6.23 5.9,0 10.97,-2.17 15.18,-6.52l5.84 5.35 0 -66.17 -5.35 0 0 32.31c-4.22,-4.67 -9.44,-7.01 -15.67,-7.01 -5.7,0 -10.64,2.04 -14.79,6.13zm25.88 3.8c3.05,3.05 4.58,6.74 4.58,11.09 0,4.35 -1.53,8.04 -4.58,11.09 -3.05,3.05 -6.74,4.58 -11.09,4.58 -4.41,0 -8.13,-1.52 -11.14,-4.53 -3.02,-3.02 -4.53,-6.73 -4.53,-11.14 0,-4.41 1.51,-8.13 4.53,-11.14 3.01,-3.02 6.73,-4.53 11.14,-4.53 4.35,0 8.04,1.53 11.09,4.58zm49 24.52c-2.44,1.49 -5.15,2.24 -8.13,2.24 -3.57,0 -6.71,-1.04 -9.44,-3.12l27.15 -23.94c-1.75,-2.79 -4.23,-5.08 -7.45,-6.91 -3.2,-1.81 -6.63,-2.72 -10.26,-2.72 -5.71,0 -10.64,2.04 -14.79,6.13 -4.16,4.09 -6.23,9.05 -6.23,14.89 0,5.71 2.07,10.64 6.23,14.79 4.15,4.15 9.08,6.23 14.79,6.23 3.96,0 7.59,-1.02 10.9,-3.06 3.31,-2.05 5.84,-4.73 7.59,-8.03l-4.67 -2.63c-1.36,2.59 -3.26,4.64 -5.69,6.13zm-23.79 -13.43c0,-4.41 1.5,-8.13 4.52,-11.14 3.01,-3.02 6.73,-4.53 11.14,-4.53 3.89,0 7.3,1.27 10.22,3.8l-23.26 20.63c-1.75,-2.66 -2.62,-5.58 -2.62,-8.76zm109.76 -19.07c-2.73,-1.3 -5.75,-1.95 -9.05,-1.95 -5.71,0 -10.64,2.04 -14.8,6.13 -4.15,4.09 -6.22,9.05 -6.22,14.89 0,5.71 2.07,10.64 6.22,14.79 4.16,4.15 9.09,6.23 14.8,6.23 3.18,0 6.12,-0.64 8.85,-1.9 2.73,-1.26 5.09,-3.07 7.1,-5.4l-4.28 -3.31c-3.05,3.51 -6.94,5.26 -11.67,5.26 -4.42,0 -8.13,-1.52 -11.15,-4.53 -3.01,-3.02 -4.52,-6.73 -4.52,-11.14 0,-4.41 1.51,-8.13 4.52,-11.14 3.02,-3.02 6.73,-4.53 11.15,-4.53 4.79,0 8.78,1.85 11.96,5.55l4.19 -3.31c-2.02,-2.46 -4.38,-4.35 -7.1,-5.64zm21.79 4.18c-4.15,4.09 -6.23,9.05 -6.23,14.89 0,5.71 2.08,10.64 6.23,14.79 4.15,4.15 9.08,6.23 14.79,6.23 5.84,0 10.8,-2.08 14.89,-6.23 4.08,-4.15 6.12,-9.08 6.12,-14.79 0,-5.84 -2.04,-10.8 -6.12,-14.89 -4.09,-4.09 -9.05,-6.13 -14.89,-6.13 -5.71,0 -10.64,2.04 -14.79,6.13zm25.88 3.8c3.05,3.05 4.58,6.74 4.58,11.09 0,4.35 -1.53,8.04 -4.58,11.09 -3.05,3.05 -6.74,4.58 -11.09,4.58 -4.41,0 -8.12,-1.52 -11.14,-4.53 -3.02,-3.02 -4.53,-6.73 -4.53,-11.14 0,-4.41 1.51,-8.13 4.53,-11.14 3.02,-3.02 6.73,-4.53 11.14,-4.53 4.35,0 8.04,1.53 11.09,4.58zm18.39 25.01c1.17,2.07 2.73,3.71 4.67,4.91 1.95,1.19 4.09,1.8 6.43,1.8 2.33,0 4.44,-0.55 6.32,-1.65 1.88,-1.11 3.38,-2.6 4.48,-4.48 1.1,-1.88 1.65,-3.99 1.65,-6.33 0,-2.85 -0.83,-5.38 -2.48,-7.59 -1.65,-2.2 -3.81,-3.66 -6.47,-4.37l-4.67 -1.37c-2.53,-0.71 -3.8,-2.36 -3.8,-4.96 0,-1.36 0.49,-2.56 1.46,-3.6 0.98,-1.04 2.21,-1.56 3.7,-1.56 2.4,0 3.99,1.04 4.77,3.12l4.86 -2.05c-0.78,-1.95 -2.06,-3.5 -3.84,-4.67 -1.79,-1.17 -3.72,-1.75 -5.79,-1.75 -2.92,0 -5.4,1.02 -7.45,3.06 -2.04,2.05 -3.06,4.53 -3.06,7.45 0,2.33 0.71,4.43 2.14,6.28 1.43,1.84 3.31,3.13 5.65,3.84l4.67 1.36c1.42,0.39 2.61,1.22 3.55,2.48 0.94,1.27 1.41,2.71 1.41,4.33 0,2.02 -0.68,3.7 -2.04,5.06 -1.37,1.36 -3.06,2.04 -5.06,2.04 -2.99,0 -5.13,-1.29 -6.43,-3.89l-4.67 2.54zm39.22 5.93l5.35 0 0 -34.45 7.1 0 0 -5.35 -7.1 0 0 -13.82 -5.35 2.63 0 11.19 -7.21 0 0 5.35 7.21 0 0 34.45zm48.75 -39.8l0 25.01c0,2.79 -1,5.24 -2.98,7.35 -1.97,2.11 -4.49,3.16 -7.54,3.16 -2.78,0 -5.23,-1.02 -7.34,-3.07 -2.11,-2.04 -3.16,-4.52 -3.16,-7.44l0 -25.01 -5.36 0 0 25.01c0,4.48 1.53,8.24 4.58,11.29 3.05,3.05 6.81,4.57 11.28,4.57 4.48,0 8.24,-1.59 11.29,-4.77l4.58 3.7 0 -39.8 -5.35 0zm32.3 -1.07c-4.41,0 -8.11,1.56 -11.1,4.67l-4.47 -3.6 0 39.8 5.35 0 0 -25.3c0,-2.79 0.96,-5.19 2.87,-7.2 1.92,-2.01 4.36,-3.02 7.35,-3.02 1.1,0 2.04,0.13 2.82,0.39l2.43 -4.77c-1.55,-0.64 -3.3,-0.97 -5.25,-0.97zm55.76 40.87l0 -39.8 -5.84 5.45c-4.22,-4.34 -9.28,-6.52 -15.18,-6.52 -5.72,0 -10.64,2.04 -14.79,6.13 -4.15,4.09 -6.23,9.05 -6.23,14.89 0,5.71 2.08,10.64 6.23,14.79 4.15,4.15 9.07,6.23 14.79,6.23 5.9,0 10.96,-2.17 15.18,-6.52l5.84 5.35zm-9.93 -30.94c3.05,3.05 4.57,6.74 4.57,11.09 0,4.35 -1.52,8.04 -4.57,11.09 -3.05,3.05 -6.75,4.58 -11.09,4.58 -4.42,0 -8.13,-1.52 -11.15,-4.53 -3.01,-3.02 -4.52,-6.73 -4.52,-11.14 0,-4.41 1.51,-8.13 4.52,-11.14 3.02,-3.02 6.73,-4.53 11.15,-4.53 4.34,0 8.04,1.53 11.09,4.58z"/>
  <path class="fil0" d="M171.77 218.84c-0.45,0.43 1.6,9.24 2.05,8.81 8.92,-8.6 18.84,-19.17 26.12,-30.22 7.79,-11.84 23.95,-43.85 24.52,-45.19 0,0 0.68,-0.73 0.34,-1.76 -0.24,-0.67 -0.98,-1.05 -2.55,-2.27l-2.17 -1.77c-0.58,-0.46 -1.34,-0.64 -2.06,-0.46 -0.72,0.17 -1.32,0.68 -1.61,1.36 -6.47,14.96 -28.7,56.29 -44.64,71.5z"/>
  <path class="fil0" d="M171.77 218.84c-0.45,0.43 1.6,9.24 2.05,8.81 8.92,-8.6 18.84,-19.17 26.12,-30.22 7.79,-11.84 23.95,-43.85 24.52,-45.19 0,0 0.68,-0.73 0.34,-1.76 -0.24,-0.67 -0.98,-1.05 -2.55,-2.27l-2.17 -1.77c-0.58,-0.46 -1.34,-0.64 -2.06,-0.46 -0.72,0.17 -1.32,0.68 -1.61,1.36 -6.47,14.96 -28.7,56.29 -44.64,71.5z"/>
  <path class="fil0" d="M347.37 58.03c-24.35,-6.37 -53.75,-3.5 -76.08,8.13 -0.6,0.31 -1.04,0.87 -1.2,1.52 -0.17,0.66 -0.04,1.35 0.34,1.92l2.27 3.34c0.41,0.59 1.04,0.95 1.72,1.02 0.4,0.05 0.81,-0.02 1.21,-0.19 12.12,-5.4 28.68,-9.19 44.38,-10.65 12.34,-1.14 26.22,-0.86 34.95,1.25 -0.46,-3.94 -5.15,-5.71 -7.59,-6.34z"/>
  <path class="fil0" d="M347.37 58.03c-24.35,-6.37 -53.75,-3.5 -76.08,8.13 -0.6,0.31 -1.04,0.87 -1.2,1.52 -0.17,0.66 -0.04,1.35 0.34,1.92l2.27 3.34c0.41,0.59 1.04,0.95 1.72,1.02 0.4,0.05 0.81,-0.02 1.21,-0.19 12.12,-5.4 28.68,-9.19 44.38,-10.65 12.34,-1.14 26.22,-0.86 34.95,1.25 -0.46,-3.94 -5.15,-5.71 -7.59,-6.34z"/>
  <path class="fil0" d="M350.04 53.11c0.53,-0.82 0.51,-1.9 -0.07,-2.69 -0.06,-0.08 -5.43,-7.52 -8.94,-16.49 -0.57,-1.45 -1.28,-3.99 -2.04,-6.68 -2.69,-9.65 -4.73,-16.18 -8.03,-18.09 -9.95,-7.99 -23.61,-4.71 -33.06,-1.53 -30.55,10.29 -59.34,30.29 -81.06,56.31 -5.52,6.62 -10.38,13.87 -16.5,24.43 0.47,0.59 2.96,11.02 3.12,11.02 0.82,0 1.61,-0.43 2.04,-1.17 12.27,-20.8 24.75,-36.17 39.29,-48.41 12.96,-10.89 27.31,-19.8 42.66,-26.49 7.08,-3.08 14.4,-6.26 21.88,-7.11 3.53,-0.41 15.15,-1.31 16.11,3.8 5.66,30.17 21.44,33.97 22.11,34.12 0.95,0.22 1.95,-0.2 2.49,-1.02z"/>
  <path class="fil0" d="M350.04 53.11c0.53,-0.82 0.51,-1.9 -0.07,-2.69 -0.06,-0.08 -5.43,-7.52 -8.94,-16.49 -0.57,-1.45 -1.28,-3.99 -2.04,-6.68 -2.69,-9.65 -4.73,-16.18 -8.03,-18.09 -9.95,-7.99 -23.61,-4.71 -33.06,-1.53 -30.55,10.29 -59.34,30.29 -81.06,56.31 -5.52,6.62 -10.38,13.87 -16.5,24.43 0.47,0.59 2.96,11.02 3.12,11.02 0.82,0 1.61,-0.43 2.04,-1.17 12.27,-20.8 24.75,-36.17 39.29,-48.41 12.96,-10.89 27.31,-19.8 42.66,-26.49 7.08,-3.08 14.4,-6.26 21.88,-7.11 3.53,-0.41 15.15,-1.31 16.11,3.8 5.66,30.17 21.44,33.97 22.11,34.12 0.95,0.22 1.95,-0.2 2.49,-1.02z"/>
  <path class="fil0" d="M109.07 0.32c-1.33,0.17 -14.4,0.78 -18.86,1.74 -0.68,0.15 -1.23,0.3 -1.59,0.46 -0.13,0.3 0.2,0.85 0.81,1.52 2.2,2.44 11.04,5.47 21.08,6.05 -0.01,0.09 -0.04,0.18 -0.05,0.27 -0.97,26.31 13.94,46.65 42,57.27 15.45,5.86 28.48,12.12 31.57,29.59 2.93,16.54 -3.86,32.76 -10.1,45.05 -1.67,3.29 -3.42,6.55 -5.17,9.81 -5.26,9.81 -10.7,19.95 -13.98,30.96 -4.43,14.88 -5,31.94 -1.64,49.36 5.52,28.6 21.46,52.55 43.71,65.73 0.89,0.52 1.92,0.76 2.97,0.76 2.71,0 5.59,-1.54 6.77,-3.54 1.24,-2.09 0.58,-4.39 -1.65,-5.71 -22.87,-13.53 -37.87,-38.81 -41.14,-69.35 -1.96,-18.28 1.51,-36.05 10.62,-54.33 1.89,-3.79 3.96,-7.62 5.96,-11.31 4.82,-8.9 9.8,-18.09 12.93,-28.02 6.23,-19.68 5.74,-45.56 -14.29,-59.15 -5.88,-3.99 -12.49,-6.4 -18.88,-8.73 -6.47,-2.36 -12.59,-4.59 -18.02,-8.32 -11.94,-8.2 -19.05,-21.96 -19.42,-37.24 0.58,-3.55 0.88,-7.68 -2.89,-10.79 -2.23,-1.85 -4.54,-2.37 -6.77,-2.4l-0.15 0c-1.32,0 -2.6,0.16 -3.82,0.32z"/>
  <path class="fil0" d="M109.07 0.32c-1.33,0.17 -14.4,0.78 -18.86,1.74 -0.68,0.15 -1.23,0.3 -1.59,0.46 -0.13,0.3 0.2,0.85 0.81,1.52 2.2,2.44 11.04,5.47 21.08,6.05 -0.01,0.09 -0.04,0.18 -0.05,0.27 -0.97,26.31 13.94,46.65 42,57.27 15.45,5.86 28.48,12.12 31.57,29.59 2.93,16.54 -3.86,32.76 -10.1,45.05 -1.67,3.29 -3.42,6.55 -5.17,9.81 -5.26,9.81 -10.7,19.95 -13.98,30.96 -4.43,14.88 -5,31.94 -1.64,49.36 5.52,28.6 21.46,52.55 43.71,65.73 0.89,0.52 1.92,0.76 2.97,0.76 2.71,0 5.59,-1.54 6.77,-3.54 1.24,-2.09 0.58,-4.39 -1.65,-5.71 -22.87,-13.53 -37.87,-38.81 -41.14,-69.35 -1.96,-18.28 1.51,-36.05 10.62,-54.33 1.89,-3.79 3.96,-7.62 5.96,-11.31 4.82,-8.9 9.8,-18.09 12.93,-28.02 6.23,-19.68 5.74,-45.56 -14.29,-59.15 -5.88,-3.99 -12.49,-6.4 -18.88,-8.73 -6.47,-2.36 -12.59,-4.59 -18.02,-8.32 -11.94,-8.2 -19.05,-21.96 -19.42,-37.24 0.58,-3.55 0.88,-7.68 -2.89,-10.79 -2.23,-1.85 -4.54,-2.37 -6.77,-2.4l-0.15 0c-1.32,0 -2.6,0.16 -3.82,0.32z"/>
  <path class="fil0" d="M32.34 92.31c-0.91,-0.33 -2.93,0.19 -3.33,1.29 -0.23,0.63 0,1.48 0.9,1.82 24.59,9.04 50.45,13.55 76.32,13.55 0.78,0 1.55,-0.03 2.33,-0.04 3.26,35.57 4.39,71.27 3.38,106.96 -12.13,0.71 -24.31,-0.34 -36.45,-3.18 -0.94,-0.21 -1.86,0.23 -2.35,0.77 -0.48,0.51 -0.66,1.15 -0.47,1.75 0.1,0.35 0.43,0.98 1.42,1.21 10.15,2.37 20.33,3.55 30.48,3.55 2.43,0 4.86,-0.09 7.28,-0.22 -0.95,29.01 -3.31,58.02 -7.07,86.93 -0.11,0.81 0.38,1.71 1.53,1.86 0.11,0.01 0.22,0.02 0.34,0.02 1.03,0 2.35,-0.56 2.51,-1.77 3.79,-29.06 6.16,-58.2 7.1,-87.36 9.89,-0.89 19.74,-2.89 29.48,-6.04 1.28,-0.42 1.66,-1.49 1.39,-2.35 -0.36,-1.07 -1.63,-1.66 -2.78,-1.29 -9.26,3 -18.61,4.91 -27.99,5.79 1,-35.62 -0.12,-71.24 -3.35,-106.73 22.98,-0.7 45.88,-4.93 67.79,-12.77 0.8,-0.29 1.26,-0.75 1.37,-1.38 0.1,-0.52 -0.1,-1.05 -0.52,-1.41 -0.57,-0.49 -1.54,-0.62 -2.36,-0.33 -21.52,7.71 -44.02,11.83 -66.59,12.47 -2.42,-25.51 -5.89,-50.94 -10.49,-76.25 -0.15,-0.81 -0.95,-1.58 -2.37,-1.32 -1.35,0.25 -2.19,1.2 -1.99,2.28l0 0c4.55,25.01 7.98,50.15 10.38,75.36 -25.71,0.18 -51.45,-4.18 -75.89,-13.17zm42.33 121.64l-0.02 0.05c0,0 0,0 0,0l0.01 -0.06c0,0 0,0.01 0.01,0.01z"/>
  <path class="fil0" d="M32.34 92.31c-0.91,-0.33 -2.93,0.19 -3.33,1.29 -0.23,0.63 0,1.48 0.9,1.82 24.59,9.04 50.45,13.55 76.32,13.55 0.78,0 1.55,-0.03 2.33,-0.04 3.26,35.57 4.39,71.27 3.38,106.96 -12.13,0.71 -24.31,-0.34 -36.45,-3.18 -0.94,-0.21 -1.86,0.23 -2.35,0.77 -0.48,0.51 -0.66,1.15 -0.47,1.75 0.1,0.35 0.43,0.98 1.42,1.21 10.15,2.37 20.33,3.55 30.48,3.55 2.43,0 4.86,-0.09 7.28,-0.22 -0.95,29.01 -3.31,58.02 -7.07,86.93 -0.11,0.81 0.38,1.71 1.53,1.86 0.11,0.01 0.22,0.02 0.34,0.02 1.03,0 2.35,-0.56 2.51,-1.77 3.79,-29.06 6.16,-58.2 7.1,-87.36 9.89,-0.89 19.74,-2.89 29.48,-6.04 1.28,-0.42 1.66,-1.49 1.39,-2.35 -0.36,-1.07 -1.63,-1.66 -2.78,-1.29 -9.26,3 -18.61,4.91 -27.99,5.79 1,-35.62 -0.12,-71.24 -3.35,-106.73 22.98,-0.7 45.88,-4.93 67.79,-12.77 0.8,-0.29 1.26,-0.75 1.37,-1.38 0.1,-0.52 -0.1,-1.05 -0.52,-1.41 -0.57,-0.49 -1.54,-0.62 -2.36,-0.33 -21.52,7.71 -44.02,11.83 -66.59,12.47 -2.42,-25.51 -5.89,-50.94 -10.49,-76.25 -0.15,-0.81 -0.95,-1.58 -2.37,-1.32 -1.35,0.25 -2.19,1.2 -1.99,2.28l0 0c4.55,25.01 7.98,50.15 10.38,75.36 -25.71,0.18 -51.45,-4.18 -75.89,-13.17zm42.33 121.64l-0.02 0.05c0,0 0,0 0,0l0.01 -0.06c0,0 0,0.01 0.01,0.01z"/>
  <path class="fil0" d="M341.86 364.95c-9.31,-8.06 -20.15,-14.94 -31.74,-20.34 -1.97,-0.92 -17.83,-5.69 -24.44,-6.8 -3.4,-0.57 -6.58,-1.04 -8.99,-1.39 -29.21,-4.17 -55.9,6.47 -82.94,18.72 -35.91,16.26 -77.79,32.68 -120.35,21.72 -13.93,-3.58 -26.77,-10.34 -37.17,-19.51 -8.17,-7.22 -19.34,-18.45 -21.93,-32.62 -4.18,-22.89 1.23,-32.28 4.14,-37.32 0.27,-0.47 0.51,-0.9 0.74,-1.31 5.51,-10.02 12.34,-17.35 22.26,-22.58 1,-1.81 2.2,-5.2 2.63,-7.74 0.07,-0.44 0,-1.36 -0.75,-1.76 -0.65,-0.34 -1.95,-0.23 -2.48,0.02 -19.02,8.64 -32.83,21.87 -36.94,35.39 -3.48,11.46 -4.64,21.88 -3.44,30.99 1.01,7.72 3.43,12.53 4.72,15.11 0.19,0.36 0.34,0.68 0.47,0.94 8.71,18.78 25.38,34.42 45.75,42.92 14,5.85 29.81,8.78 46.81,8.78 12.96,-0.01 26.62,-1.71 40.72,-5.13 13.77,-3.34 27.93,-8.19 44.57,-15.25 5.18,-2.21 10.41,-4.62 15.48,-6.95 14.11,-6.51 28.71,-13.25 44.03,-16.18 10.07,-1.91 22.72,-1.04 34.59,1.44 6.24,1.3 14.82,2.59 30.11,9.41 15.29,6.81 30.63,13.82 39.57,21.27 1.53,-4.94 -2.94,-9.69 -5.42,-11.83zm-258.24 -355.95c-0.23,-1.64 -1.26,-2.94 -2.83,-3.57 -2.15,-0.87 -5.07,-0.34 -7.11,1.26 -1.64,1.29 -2.43,3.1 -2.16,4.97 2.39,16.72 -3.57,32.61 -15.94,42.5 -4.79,3.82 -10.24,6.49 -16,9.3 -6.58,3.22 -13.38,6.54 -19.07,11.73 -17.8,16.24 -15.01,42.12 -6.45,60.91 4.55,10 10.42,19.02 16.11,27.75 10.21,15.69 19.85,30.51 21.98,50.11 1.18,10.92 0.65,21.64 -1.37,31.76l0.17 0.14c0,0 -2.7,16.16 -9.68,26.7 -0.03,0.04 -0.17,0.15 -0.38,0.31 -5.44,9.74 -12.59,18.19 -21.31,24.69 -2.24,1.67 -2.39,3.49 -2.28,4.43 0.19,1.61 1.33,2.96 3.11,3.73 0.94,0.4 1.94,0.6 2.92,0.6 1.48,0 2.93,-0.44 4.08,-1.3 21.28,-15.87 34.46,-40.99 37.1,-70.71 3.05,-34.35 -11.46,-59.3 -27.9,-83.94 -8.87,-13.28 -17.07,-27.82 -17.07,-44.1 -0.01,-20.51 15.17,-28.44 31.25,-36.84 24.16,-12.63 36.44,-35.22 32.83,-60.43z"/>
  <path class="fil0" d="M341.86 364.95c-9.31,-8.06 -20.15,-14.94 -31.74,-20.34 -1.97,-0.92 -17.83,-5.69 -24.44,-6.8 -3.4,-0.57 -6.58,-1.04 -8.99,-1.39 -29.21,-4.17 -55.9,6.47 -82.94,18.72 -35.91,16.26 -77.79,32.68 -120.35,21.72 -13.93,-3.58 -26.77,-10.34 -37.17,-19.51 -8.17,-7.22 -19.34,-18.45 -21.93,-32.62 -4.18,-22.89 1.23,-32.28 4.14,-37.32 0.27,-0.47 0.51,-0.9 0.74,-1.31 5.51,-10.02 12.34,-17.35 22.26,-22.58 1,-1.81 2.2,-5.2 2.63,-7.74 0.07,-0.44 0,-1.36 -0.75,-1.76 -0.65,-0.34 -1.95,-0.23 -2.48,0.02 -19.02,8.64 -32.83,21.87 -36.94,35.39 -3.48,11.46 -4.64,21.88 -3.44,30.99 1.01,7.72 3.43,12.53 4.72,15.11 0.19,0.36 0.34,0.68 0.47,0.94 8.71,18.78 25.38,34.42 45.75,42.92 14,5.85 29.81,8.78 46.81,8.78 12.96,-0.01 26.62,-1.71 40.72,-5.13 13.77,-3.34 27.93,-8.19 44.57,-15.25 5.18,-2.21 10.41,-4.62 15.48,-6.95 14.11,-6.51 28.71,-13.25 44.03,-16.18 10.07,-1.91 22.72,-1.04 34.59,1.44 6.24,1.3 14.82,2.59 30.11,9.41 15.29,6.81 30.63,13.82 39.57,21.27 1.53,-4.94 -2.94,-9.69 -5.42,-11.83zm-258.24 -355.95c-0.23,-1.64 -1.26,-2.94 -2.83,-3.57 -2.15,-0.87 -5.07,-0.34 -7.11,1.26 -1.64,1.29 -2.43,3.1 -2.16,4.97 2.39,16.72 -3.57,32.61 -15.94,42.5 -4.79,3.82 -10.24,6.49 -16,9.3 -6.58,3.22 -13.38,6.54 -19.07,11.73 -17.8,16.24 -15.01,42.12 -6.45,60.91 4.55,10 10.42,19.02 16.11,27.75 10.21,15.69 19.85,30.51 21.98,50.11 1.18,10.92 0.65,21.64 -1.37,31.76l0.17 0.14c0,0 -2.7,16.16 -9.68,26.7 -0.03,0.04 -0.17,0.15 -0.38,0.31 -5.44,9.74 -12.59,18.19 -21.31,24.69 -2.24,1.67 -2.39,3.49 -2.28,4.43 0.19,1.61 1.33,2.96 3.11,3.73 0.94,0.4 1.94,0.6 2.92,0.6 1.48,0 2.93,-0.44 4.08,-1.3 21.28,-15.87 34.46,-40.99 37.1,-70.71 3.05,-34.35 -11.46,-59.3 -27.9,-83.94 -8.87,-13.28 -17.07,-27.82 -17.07,-44.1 -0.01,-20.51 15.17,-28.44 31.25,-36.84 24.16,-12.63 36.44,-35.22 32.83,-60.43z"/>
  <path class="fil0" d="M106.82 431.94c0.61,0.35 1.38,0.49 2.21,0.49 2.85,0 4.76,-1.03 6.43,-1.61 1.67,-0.59 2.01,-1.86 2.09,-2.17 0.3,-1.15 -0.11,-7.3 -0.11,-7.3l-0.15 -24.83c-0.01,-0.71 -0.28,-2.93 -4.18,-2.99 -3.09,0.02 -7.99,1.32 -7.97,4.72l0.2 31.13c0,1.07 0.56,2.03 1.48,2.56z"/>
  <path class="fil0" d="M106.82 431.94c0.61,0.35 1.38,0.49 2.21,0.49 2.85,0 4.76,-1.03 6.43,-1.61 1.67,-0.59 2.01,-1.86 2.09,-2.17 0.3,-1.15 -0.11,-7.3 -0.11,-7.3l-0.15 -24.83c-0.01,-0.71 -0.28,-2.93 -4.18,-2.99 -3.09,0.02 -7.99,1.32 -7.97,4.72l0.2 31.13c0,1.07 0.56,2.03 1.48,2.56z"/>
  <path class="fil0" d="M98.27 435.21c-11.58,-1.53 -20.78,-1.73 -29.83,-0.66 -4.84,0.58 -9.25,3.39 -10.73,6.83 -0.76,1.77 -0.61,3.57 0.41,4.93 1.48,1.99 4.46,2.73 8.82,2.21 10.72,-1.27 21.43,-0.14 31.78,0.96 6.86,0.73 13.79,1.47 20.72,1.47 5.52,0 11.15,-0.19 16.69,-1.3 3.26,-0.65 14.34,-3.17 18.56,-7.74 1.46,-1.59 2.68,-3.41 3.64,-5.75 1.03,-2.52 1.41,-10.67 0.12,-9.62 -1,0.8 -8.84,5.18 -19.85,8.2 -9.74,2.67 -21.95,4.27 -34.12,1.39 -2.12,-0.33 -4.2,-0.66 -6.21,-0.92z"/>
  <path class="fil0" d="M98.27 435.21c-11.58,-1.53 -20.78,-1.73 -29.83,-0.66 -4.84,0.58 -9.25,3.39 -10.73,6.83 -0.76,1.77 -0.61,3.57 0.41,4.93 1.48,1.99 4.46,2.73 8.82,2.21 10.72,-1.27 21.43,-0.14 31.78,0.96 6.86,0.73 13.79,1.47 20.72,1.47 5.52,0 11.15,-0.19 16.69,-1.3 3.26,-0.65 14.34,-3.17 18.56,-7.74 1.46,-1.59 2.68,-3.41 3.64,-5.75 1.03,-2.52 1.41,-10.67 0.12,-9.62 -1,0.8 -8.84,5.18 -19.85,8.2 -9.74,2.67 -21.95,4.27 -34.12,1.39 -2.12,-0.33 -4.2,-0.66 -6.21,-0.92z"/>
  <path class="fil0" d="M371.69 335.31c-1.74,-12.63 -13.46,-19.55 -22.15,-23.66 -19.84,-9.4 -42.21,-14.94 -64.99,-15.46 -30.81,-0.69 -64.89,10.33 -70.03,11.96 -9.98,3.16 -20.28,6.9 -30.86,10.77 -52.15,19.04 -106.06,38.72 -144.54,-4.06 -1.32,-1.46 -3.5,-2.01 -5.98,-1.48 -2.06,0.44 -4.53,1.7 -5.25,3.93 -0.44,1.36 -0.12,2.78 0.9,3.92 39,43.35 100.37,27.8 149.49,9.41 12.72,-4.76 24.96,-9.29 36.82,-12.94 5.21,-1.6 -1.96,0.45 15.4,-4.25 17.37,-4.69 42.04,-7.82 54.29,-7.17 16.19,0.86 32.07,4.13 47.19,9.71 6.96,2.57 14.17,5.24 19.97,9.72 2.74,2.12 11.47,9.37 8.79,13.77 -15.74,25.93 -7.17,39.46 -6.8,40.03 0.53,0.81 1.5,1.19 2.41,0.95 0.92,-0.23 1.6,-1.04 1.71,-2.01 0.01,-0.09 1.11,-9.21 4.51,-18.16 0.55,-1.44 1.71,-3.79 2.94,-6.27 4.41,-8.89 7.26,-15.06 6.18,-18.71z"/>
  <path class="fil0" d="M371.69 335.31c-1.74,-12.63 -13.46,-19.55 -22.15,-23.66 -19.84,-9.4 -42.21,-14.94 -64.99,-15.46 -30.81,-0.69 -64.89,10.33 -70.03,11.96 -9.98,3.16 -20.28,6.9 -30.86,10.77 -52.15,19.04 -106.06,38.72 -144.54,-4.06 -1.32,-1.46 -3.5,-2.01 -5.98,-1.48 -2.06,0.44 -4.53,1.7 -5.25,3.93 -0.44,1.36 -0.12,2.78 0.9,3.92 39,43.35 100.37,27.8 149.49,9.41 12.72,-4.76 24.96,-9.29 36.82,-12.94 5.21,-1.6 -1.96,0.45 15.4,-4.25 17.37,-4.69 42.04,-7.82 54.29,-7.17 16.19,0.86 32.07,4.13 47.19,9.71 6.96,2.57 14.17,5.24 19.97,9.72 2.74,2.12 11.47,9.37 8.79,13.77 -15.74,25.93 -7.17,39.46 -6.8,40.03 0.53,0.81 1.5,1.19 2.41,0.95 0.92,-0.23 1.6,-1.04 1.71,-2.01 0.01,-0.09 1.11,-9.21 4.51,-18.16 0.55,-1.44 1.71,-3.79 2.94,-6.27 4.41,-8.89 7.26,-15.06 6.18,-18.71z"/>
 </g>
</svg>
