<?xml version="1.0" encoding="UTF-8"?>
<!DOCTYPE svg PUBLIC "-//W3C//DTD SVG 1.1//EN" "http://www.w3.org/Graphics/SVG/1.1/DTD/svg11.dtd">
<!-- Creator: CorelDRAW 2018 (64 Bit Versão de avaliação) -->
<svg xmlns="http://www.w3.org/2000/svg" xml:space="preserve" width="248px" height="75px" version="1.1" style="shape-rendering:geometricPrecision; text-rendering:geometricPrecision; image-rendering:optimizeQuality; fill-rule:evenodd; clip-rule:evenodd"
viewBox="0 0 250.71 75.86"
 xmlns:xlink="http://www.w3.org/1999/xlink">
 <defs>
  <style type="text/css">
   <![CDATA[
    .fil1 {fill:#C95C6E;fill-rule:nonzero}
    .fil0 {fill:#234D6E;fill-rule:nonzero}
   ]]>
  </style>
 </defs>
 <g id="Camada_x0020_1">
  <metadata id="CorelCorpID_0Corel-Layer"/>
  <path class="fil0" d="M87.73 58.04c-0.41,0.25 -0.87,0.38 -1.37,0.38 -0.6,0 -1.13,-0.18 -1.58,-0.53l4.56 -4.03c-0.29,-0.47 -0.71,-0.85 -1.25,-1.16 -0.54,-0.3 -1.12,-0.46 -1.73,-0.46 -0.96,0 -1.79,0.35 -2.48,1.04 -0.7,0.68 -1.05,1.52 -1.05,2.5 0,0.96 0.35,1.79 1.05,2.49 0.69,0.7 1.52,1.05 2.48,1.05 0.67,0 1.28,-0.18 1.84,-0.52 0.55,-0.34 0.98,-0.79 1.27,-1.35l-0.78 -0.44c-0.23,0.43 -0.55,0.78 -0.96,1.03zm-4 -2.26c0,-0.74 0.25,-1.37 0.76,-1.87 0.51,-0.51 1.13,-0.77 1.87,-0.77 0.66,0 1.23,0.22 1.72,0.64l-3.91 3.47c-0.29,-0.44 -0.44,-0.94 -0.44,-1.47zm7.18 2.34c0.2,0.35 0.46,0.63 0.79,0.83 0.33,0.2 0.69,0.3 1.08,0.3 0.39,0 0.75,-0.09 1.06,-0.28 0.32,-0.18 0.57,-0.43 0.76,-0.75 0.18,-0.32 0.28,-0.67 0.28,-1.07 0,-0.48 -0.14,-0.9 -0.42,-1.27 -0.28,-0.37 -0.64,-0.62 -1.09,-0.74l-0.79 -0.23c-0.42,-0.12 -0.63,-0.4 -0.63,-0.83 0,-0.23 0.08,-0.43 0.24,-0.61 0.16,-0.17 0.37,-0.26 0.62,-0.26 0.41,0 0.67,0.17 0.8,0.52l0.82 -0.34c-0.13,-0.33 -0.34,-0.59 -0.64,-0.79 -0.3,-0.19 -0.63,-0.29 -0.98,-0.29 -0.49,0 -0.91,0.17 -1.25,0.52 -0.34,0.34 -0.52,0.76 -0.52,1.25 0,0.39 0.12,0.74 0.36,1.05 0.24,0.31 0.56,0.53 0.95,0.65l0.79 0.23c0.24,0.06 0.44,0.2 0.6,0.42 0.16,0.21 0.24,0.45 0.24,0.72 0,0.34 -0.12,0.63 -0.35,0.86 -0.23,0.23 -0.51,0.34 -0.85,0.34 -0.5,0 -0.86,-0.22 -1.08,-0.66l-0.79 0.43zm6.6 1l0.9 0 0 -5.8 1.2 0 0 -0.9 -1.2 0 0 -2.32 -0.9 0.44 0 1.88 -1.21 0 0 0.9 1.21 0 0 5.8zm8.2 -6.7l0 4.21c0,0.47 -0.16,0.88 -0.5,1.24 -0.33,0.35 -0.75,0.53 -1.27,0.53 -0.47,0 -0.88,-0.17 -1.23,-0.52 -0.36,-0.34 -0.53,-0.76 -0.53,-1.25l0 -4.21 -0.9 0 0 4.21c0,0.75 0.25,1.39 0.76,1.9 0.52,0.51 1.15,0.77 1.9,0.77 0.76,0 1.39,-0.27 1.9,-0.8l0.77 0.62 0 -6.7 -0.9 0zm-3.78 -0.96l4.09 -1.8 -0.49 -0.92 -3.81 2.34 0.21 0.38zm7.4 1.82c-0.7,0.68 -1.05,1.52 -1.05,2.5 0,0.96 0.35,1.79 1.05,2.49 0.7,0.7 1.53,1.05 2.49,1.05 0.99,0 1.84,-0.37 2.55,-1.1l0.98 0.9 0 -11.13 -0.9 0 0 5.43c-0.71,-0.78 -1.59,-1.18 -2.63,-1.18 -0.96,0 -1.79,0.35 -2.49,1.04zm4.35 0.63c0.52,0.52 0.77,1.14 0.77,1.87 0,0.73 -0.25,1.35 -0.77,1.87 -0.51,0.51 -1.13,0.77 -1.86,0.77 -0.75,0 -1.37,-0.26 -1.88,-0.77 -0.5,-0.5 -0.76,-1.13 -0.76,-1.87 0,-0.74 0.26,-1.37 0.76,-1.87 0.51,-0.51 1.13,-0.77 1.88,-0.77 0.73,0 1.35,0.26 1.86,0.77zm3.59 5.21l0.9 0 0 -6.7 -0.9 0 0 6.7zm0 -8.33l0.9 0 0 -0.99 -0.9 0 0 0.99zm3.61 2.49c-0.69,0.68 -1.04,1.52 -1.04,2.5 0,0.96 0.35,1.79 1.04,2.49 0.7,0.7 1.53,1.05 2.49,1.05 0.99,0 1.82,-0.35 2.51,-1.05 0.69,-0.7 1.03,-1.53 1.03,-2.49 0,-0.98 -0.34,-1.82 -1.03,-2.5 -0.69,-0.69 -1.52,-1.04 -2.51,-1.04 -0.96,0 -1.79,0.35 -2.49,1.04zm4.36 0.63c0.51,0.52 0.77,1.14 0.77,1.87 0,0.73 -0.26,1.35 -0.77,1.87 -0.51,0.51 -1.14,0.77 -1.87,0.77 -0.74,0 -1.36,-0.26 -1.87,-0.77 -0.51,-0.5 -0.76,-1.13 -0.76,-1.87 0,-0.74 0.25,-1.37 0.76,-1.87 0.51,-0.51 1.13,-0.77 1.87,-0.77 0.73,0 1.36,0.26 1.87,0.77zm10.36 -0.63c-0.7,0.68 -1.05,1.52 -1.05,2.5 0,0.96 0.35,1.79 1.05,2.49 0.7,0.7 1.53,1.05 2.49,1.05 0.99,0 1.84,-0.37 2.55,-1.1l0.98 0.9 0 -11.13 -0.9 0 0 5.43c-0.7,-0.78 -1.58,-1.18 -2.63,-1.18 -0.96,0 -1.79,0.35 -2.49,1.04zm4.35 0.63c0.52,0.52 0.77,1.14 0.77,1.87 0,0.73 -0.25,1.35 -0.77,1.87 -0.51,0.51 -1.13,0.77 -1.86,0.77 -0.74,0 -1.37,-0.26 -1.88,-0.77 -0.5,-0.5 -0.76,-1.13 -0.76,-1.87 0,-0.74 0.26,-1.37 0.76,-1.87 0.51,-0.51 1.14,-0.77 1.88,-0.77 0.73,0 1.35,0.26 1.86,0.77zm8.25 4.13c-0.41,0.25 -0.87,0.38 -1.37,0.38 -0.6,0 -1.13,-0.18 -1.59,-0.53l4.57 -4.03c-0.3,-0.47 -0.71,-0.85 -1.25,-1.16 -0.54,-0.3 -1.12,-0.46 -1.73,-0.46 -0.96,0 -1.79,0.35 -2.49,1.04 -0.7,0.68 -1.05,1.52 -1.05,2.5 0,0.96 0.35,1.79 1.05,2.49 0.7,0.7 1.53,1.05 2.49,1.05 0.67,0 1.28,-0.18 1.83,-0.52 0.56,-0.34 0.99,-0.79 1.28,-1.35l-0.79 -0.44c-0.22,0.43 -0.54,0.78 -0.95,1.03zm-4.01 -2.26c0,-0.74 0.26,-1.37 0.77,-1.87 0.5,-0.51 1.13,-0.77 1.87,-0.77 0.65,0 1.23,0.22 1.72,0.64l-3.91 3.47c-0.3,-0.44 -0.45,-0.94 -0.45,-1.47zm18.47 -3.21c-0.46,-0.22 -0.97,-0.33 -1.52,-0.33 -0.96,0 -1.79,0.35 -2.49,1.04 -0.7,0.68 -1.05,1.52 -1.05,2.5 0,0.96 0.35,1.79 1.05,2.49 0.7,0.7 1.53,1.05 2.49,1.05 0.53,0 1.03,-0.11 1.49,-0.32 0.45,-0.22 0.85,-0.52 1.19,-0.91l-0.72 -0.56c-0.51,0.59 -1.17,0.89 -1.96,0.89 -0.75,0 -1.37,-0.26 -1.88,-0.77 -0.51,-0.5 -0.76,-1.13 -0.76,-1.87 0,-0.74 0.25,-1.37 0.76,-1.87 0.51,-0.51 1.13,-0.77 1.88,-0.77 0.8,0 1.47,0.32 2.01,0.94l0.7 -0.56c-0.33,-0.41 -0.73,-0.73 -1.19,-0.95zm3.66 0.71c-0.69,0.68 -1.04,1.52 -1.04,2.5 0,0.96 0.35,1.79 1.04,2.49 0.7,0.7 1.53,1.05 2.49,1.05 0.99,0 1.82,-0.35 2.51,-1.05 0.69,-0.7 1.03,-1.53 1.03,-2.49 0,-0.98 -0.34,-1.82 -1.03,-2.5 -0.69,-0.69 -1.52,-1.04 -2.51,-1.04 -0.96,0 -1.79,0.35 -2.49,1.04zm4.36 0.63c0.51,0.52 0.77,1.14 0.77,1.87 0,0.73 -0.26,1.35 -0.77,1.87 -0.51,0.51 -1.14,0.77 -1.87,0.77 -0.74,0 -1.36,-0.26 -1.87,-0.77 -0.51,-0.5 -0.76,-1.13 -0.76,-1.87 0,-0.74 0.25,-1.37 0.76,-1.87 0.51,-0.51 1.13,-0.77 1.87,-0.77 0.73,0 1.36,0.26 1.87,0.77zm3.09 4.21c0.2,0.35 0.46,0.63 0.79,0.83 0.33,0.2 0.69,0.3 1.08,0.3 0.39,0 0.75,-0.09 1.06,-0.28 0.32,-0.18 0.57,-0.43 0.76,-0.75 0.18,-0.32 0.27,-0.67 0.27,-1.07 0,-0.48 -0.13,-0.9 -0.41,-1.27 -0.28,-0.37 -0.64,-0.62 -1.09,-0.74l-0.79 -0.23c-0.42,-0.12 -0.64,-0.4 -0.64,-0.83 0,-0.23 0.09,-0.43 0.25,-0.61 0.16,-0.17 0.37,-0.26 0.62,-0.26 0.41,0 0.67,0.17 0.8,0.52l0.82 -0.34c-0.13,-0.33 -0.34,-0.59 -0.64,-0.79 -0.3,-0.19 -0.63,-0.29 -0.98,-0.29 -0.49,0 -0.91,0.17 -1.25,0.52 -0.34,0.34 -0.52,0.76 -0.52,1.25 0,0.39 0.12,0.74 0.36,1.05 0.24,0.31 0.56,0.53 0.95,0.65l0.79 0.23c0.24,0.06 0.44,0.2 0.6,0.42 0.15,0.21 0.23,0.45 0.23,0.72 0,0.34 -0.11,0.63 -0.34,0.86 -0.23,0.23 -0.51,0.34 -0.85,0.34 -0.5,0 -0.86,-0.22 -1.08,-0.66l-0.79 0.43zm6.6 1l0.9 0 0 -5.8 1.2 0 0 -0.9 -1.2 0 0 -2.32 -0.9 0.44 0 1.88 -1.21 0 0 0.9 1.21 0 0 5.8zm8.2 -6.7l0 4.21c0,0.47 -0.17,0.88 -0.5,1.24 -0.33,0.35 -0.75,0.53 -1.27,0.53 -0.47,0 -0.88,-0.17 -1.23,-0.52 -0.36,-0.34 -0.54,-0.76 -0.54,-1.25l0 -4.21 -0.9 0 0 4.21c0,0.75 0.26,1.39 0.77,1.9 0.52,0.51 1.15,0.77 1.9,0.77 0.76,0 1.39,-0.27 1.9,-0.8l0.77 0.62 0 -6.7 -0.9 0zm5.44 -0.18c-0.75,0 -1.37,0.27 -1.87,0.79l-0.75 -0.61 0 6.7 0.9 0 0 -4.26c0,-0.47 0.16,-0.87 0.48,-1.21 0.32,-0.34 0.73,-0.51 1.24,-0.51 0.18,0 0.34,0.03 0.47,0.07l0.41 -0.8c-0.26,-0.11 -0.56,-0.17 -0.88,-0.17zm9.37 6.88l0 -6.7 -0.98 0.92c-0.71,-0.73 -1.56,-1.1 -2.55,-1.1 -0.96,0 -1.79,0.35 -2.49,1.04 -0.7,0.68 -1.05,1.52 -1.05,2.5 0,0.96 0.35,1.79 1.05,2.49 0.7,0.7 1.53,1.05 2.49,1.05 0.99,0 1.84,-0.37 2.55,-1.1l0.98 0.9zm-1.67 -5.21c0.52,0.52 0.77,1.14 0.77,1.87 0,0.73 -0.25,1.35 -0.77,1.87 -0.51,0.51 -1.13,0.77 -1.86,0.77 -0.74,0 -1.37,-0.26 -1.88,-0.77 -0.5,-0.5 -0.76,-1.13 -0.76,-1.87 0,-0.74 0.26,-1.37 0.76,-1.87 0.51,-0.51 1.14,-0.77 1.88,-0.77 0.73,0 1.35,0.26 1.86,0.77z"/>
  <path class="fil1" d="M92.33 27.67c1.32,0 2.38,-1.07 2.38,-2.39 0,-1.31 -1.06,-2.38 -2.38,-2.38 -1.32,0 -2.39,1.07 -2.39,2.38 0,1.32 1.07,2.39 2.39,2.39z"/>
  <path class="fil1" d="M198.16 17.6c1.51,-4.49 -2.22,-1.93 -2.9,-1.21 -0.69,0.71 -1.17,1.25 -1.45,1.6 -0.52,0.61 -6.8,8.62 -6.77,8.61l-3.4 5.44c-0.7,1.21 -1.06,1.85 -1.09,1.91l-0.05 0.01 0.39 -2.3c0.24,-1.22 1.05,-4.56 1.54,-5.67 0.9,-2.52 2.38,-5.67 4.47,-9.46 0.45,-0.71 0.72,-1.28 0.89,-1.74 0.51,-1.46 -1.52,-1.81 -3.1,-0.74 -1.71,1.16 -3.24,2.38 -5.38,5.16 -2.16,2.77 -4.28,6.46 -6.39,11.05 0,0 -1.16,2.61 -1.79,3.98 -0.63,1.36 -1.17,2.45 -1.63,3.28 -3.2,5.92 -6.92,7.63 -9.89,7.61 -1.9,-0.01 -7,-3.3 -3.66,-8.37 0.73,-0.7 1.54,-1.13 2.41,-1.27 0.9,-0.19 1.74,-0.11 2.51,0.22 0.77,0.33 1.4,0.79 1.88,1.4 0.31,0.41 0.64,0.59 0.96,0.55 0.42,-0.06 0.57,-0.22 0.43,-0.49 -0.33,-0.79 -1.04,-1.41 -2.13,-1.88 -1.09,-0.46 -2.25,-0.61 -3.49,-0.45 -1.85,0.24 -3.36,1.08 -4.53,2.52 -1.28,1.57 -3.28,6.69 2.54,9.39 4.58,1.46 8.74,-0.88 11.68,-4.36 1.25,-1.83 2.7,-4.5 4.35,-8.01l0.55 -1.16 -0.02 -0.06c0,0 2.44,-5.21 3.08,-6.49 1.6,-3.19 3.28,-5.85 5.05,-8 0.45,-0.57 0.95,-1.14 1.49,-1.71 0.54,-0.56 0.84,-0.85 0.9,-0.86l-0.16 0.31c-1.23,1.92 -2.4,4.08 -3.51,6.48 -1.11,2.4 -1.91,4.59 -2.41,6.57 -0.04,0.2 -0.48,2.41 -0.56,3.29 -0.16,1.3 -0.22,2.57 -0.17,3.81 0.04,1.24 0.17,2.01 0.38,2.3 0.24,0.35 0.75,0.47 1.53,0.37 0.65,-0.09 1.08,-0.33 1.3,-0.74 0.13,-0.22 0.5,-0.97 1.09,-2.26 1.14,-2.42 2.18,-4.43 3.13,-6.04 0.94,-1.62 2.21,-3.55 3.8,-5.8 1.82,-2.51 3.02,-4 3.58,-4.45 0.12,-0.12 0.13,-0.07 0.02,0.14 -0.58,1.13 -1.24,2.73 -1.99,4.81 -1.24,3.43 -2.09,6.7 -2.56,9.81 -0.47,3.12 -0.51,5.73 -0.13,7.86 0.33,1.72 0.85,3.43 2.53,4.51 1.75,1.13 3.29,1.53 4.53,1.53 1.18,0 3.7,-0.65 5.91,-2.53 0.37,-0.31 0.3,-0.47 -0.1,-0.22 -1.55,0.96 -3.25,1.63 -4.74,1.52 -1.3,-0.09 -2.48,-0.82 -2.72,-1.05 -1.7,-1.65 -1.89,-5.08 -1.91,-5.62 -0.09,-2.25 0.34,-5.1 1.41,-9.48 0.39,-1.62 2.7,-10.47 4.3,-13.62z"/>
  <path class="fil1" d="M231.53 36.65c0.95,-2.06 1.34,-3.19 1.17,-3.4 -0.11,-0.11 -0.33,-0.17 -0.67,-0.19 -0.34,-0.02 -0.58,0.01 -0.72,0.08 -0.21,0.11 -0.42,0.5 -0.63,1.17 -0.54,1.56 -1.31,3.29 -2.32,5.18 -1.01,1.9 -1.99,3.32 -2.95,4.28 -0.31,0.36 -0.67,0.67 -1.06,0.96 -0.39,0.28 -0.62,0.39 -0.69,0.32 -0.14,-0.14 0.53,-2.63 2.02,-7.44 0.71,-2.31 1.06,-3.85 1.06,-4.63 0.04,-0.85 -0.16,-1.49 -0.58,-1.91 -0.43,-0.43 -1.17,-0.74 -2.23,-0.96 -2.38,-0.46 -3.87,-0.78 -4.47,-0.95l-0.9 -0.27 -0.21 -0.64c-0.29,-1.02 -0.82,-1.54 -1.6,-1.54 -0.28,0 -0.56,0.06 -0.82,0.19 -0.27,0.12 -0.45,0.25 -0.56,0.4 -0.18,0.32 -0.17,0.69 0.03,1.11 0.19,0.43 0.52,0.75 0.98,0.96 0.25,0.1 0.37,0.32 0.37,0.64 -0.03,0.78 -0.37,2.21 -1.01,4.3 -0.21,0.71 -0.33,1.15 -0.34,1.33 -0.02,0.18 0.04,0.3 0.18,0.37 0.61,0.21 1.07,0.05 1.38,-0.48 0.18,-0.28 0.41,-0.85 0.7,-1.7 0.28,-0.85 0.49,-1.59 0.63,-2.23 0.11,-0.67 0.18,-1.05 0.21,-1.14 0.04,-0.09 0.77,0.02 2.18,0.34 1.07,0.25 1.74,0.44 2.02,0.56 0.29,0.13 0.43,0.29 0.43,0.51 0,0.14 -0.43,1.48 -1.28,4.04 -0.85,2.55 -1.4,4.33 -1.67,5.34 -0.27,1.01 -0.38,1.87 -0.35,2.57 0.04,0.96 0.29,1.65 0.75,2.08 0.46,0.42 1.15,0.64 2.07,0.64 2.87,0.07 5.83,-3.23 8.88,-9.89zm-2.98 -1.33c-1.03,2.34 -1.49,4.34 -1.38,6.01 0.18,2.62 1.33,4.02 3.45,4.2 1.1,0.07 2.07,-0.18 2.93,-0.75 0.46,-0.28 1.06,-0.78 1.8,-1.49 0.75,-0.71 1.28,-1.28 1.6,-1.73 0.32,-0.44 0.49,-0.66 0.53,-0.66 0.03,0 0.04,0.09 0.02,0.27 -0.01,0.17 -0.03,0.42 -0.05,0.74 -0.02,0.32 -0.02,0.66 0,1.01 0.02,0.36 0.07,0.72 0.16,1.09 0.09,0.37 0.2,0.68 0.35,0.93 0.24,0.53 0.76,0.88 1.54,1.04 0.78,0.16 1.56,0.09 2.34,-0.19 1.2,-0.46 2.47,-1.52 3.8,-3.19 1.32,-1.66 2.43,-3.38 3.32,-5.15 1.17,-2.31 1.75,-3.6 1.75,-3.88 0,-0.07 -0.15,-0.14 -0.45,-0.22 -0.3,-0.07 -0.54,-0.08 -0.72,-0.05 -0.21,0.04 -0.4,0.17 -0.56,0.4 -0.16,0.23 -0.43,0.77 -0.82,1.62 -1.45,3.33 -3.03,5.85 -4.73,7.55 -1.31,1.31 -2.16,1.96 -2.55,1.96 -0.11,0 -0.17,-0.16 -0.19,-0.48 -0.02,-0.31 0,-0.71 0.06,-1.19 0.05,-0.48 0.13,-0.93 0.24,-1.36 0.46,-2.09 1.17,-4.53 2.12,-7.33 0.85,-2.51 1.33,-4.09 1.44,-4.73 0.1,-0.64 -0.02,-1.04 -0.38,-1.22 -0.42,-0.21 -0.94,-0.28 -1.56,-0.19 -0.62,0.09 -1.04,0.29 -1.25,0.61 -0.14,0.18 -0.32,0.46 -0.53,0.85l-0.32 0.64 -0.32 -0.48c-0.36,-0.6 -0.74,-1.04 -1.14,-1.33 -0.41,-0.28 -0.93,-0.47 -1.57,-0.58 -0.99,-0.14 -1.87,-0.05 -2.63,0.27 -0.77,0.31 -1.68,0.92 -2.74,1.8 -1.35,1.14 -2.53,2.87 -3.56,5.21zm9.96 -5.13c0.52,0.69 0.85,1.32 0.99,1.89 0.07,0.42 -0.04,1.06 -0.32,1.91 -0.29,0.85 -0.51,1.6 -0.69,2.23 -0.29,1.07 -1.1,2.45 -2.45,4.15 -1.34,1.7 -2.49,2.83 -3.45,3.4 -0.71,0.43 -1.12,0.48 -1.22,0.16 -0.22,-0.88 -0.07,-2.33 0.45,-4.33 0.51,-2 1.23,-3.94 2.15,-5.82 0.6,-1.24 1.07,-2.11 1.41,-2.6 0.34,-0.5 0.7,-0.96 1.09,-1.39 0.39,-0.42 0.65,-0.63 0.8,-0.63 0.31,0 0.73,0.34 1.24,1.03z"/>
  <path class="fil1" d="M195.39 35.97c-1.02,2.34 -1.49,4.34 -1.38,6 0.18,2.63 1.33,4.03 3.46,4.2 1.09,0.07 2.07,-0.17 2.92,-0.74 0.46,-0.28 1.06,-0.78 1.81,-1.49 0.74,-0.71 1.27,-1.28 1.59,-1.73 0.32,-0.44 0.5,-0.66 0.53,-0.66 0.04,0 0.05,0.09 0.03,0.26 -0.02,0.18 -0.04,0.43 -0.06,0.75 -0.01,0.32 -0.01,0.65 0,1.01 0.02,0.35 0.08,0.72 0.16,1.09 0.09,0.37 0.21,0.68 0.35,0.93 0.25,0.53 0.76,0.87 1.54,1.03 0.78,0.16 1.56,0.1 2.34,-0.18 1.2,-0.46 2.47,-1.53 3.8,-3.19 1.33,-1.67 2.43,-3.38 3.32,-5.16 1.17,-2.3 1.75,-3.59 1.75,-3.88 0,-0.07 -0.15,-0.14 -0.45,-0.21 -0.3,-0.07 -0.54,-0.09 -0.72,-0.05 -0.21,0.03 -0.39,0.17 -0.55,0.4 -0.16,0.23 -0.44,0.77 -0.83,1.62 -1.45,3.33 -3.03,5.84 -4.73,7.54 -1.31,1.32 -2.16,1.97 -2.55,1.97 -0.1,0 -0.17,-0.16 -0.18,-0.48 -0.02,-0.32 0,-0.71 0.05,-1.19 0.05,-0.48 0.13,-0.93 0.24,-1.36 0.46,-2.09 1.17,-4.53 2.12,-7.33 0.86,-2.52 1.33,-4.09 1.44,-4.73 0.11,-0.64 -0.02,-1.05 -0.37,-1.22 -0.43,-0.22 -0.95,-0.28 -1.57,-0.19 -0.62,0.09 -1.04,0.29 -1.25,0.61 -0.14,0.18 -0.32,0.46 -0.53,0.85l-0.32 0.64 -0.32 -0.48c-0.35,-0.6 -0.73,-1.04 -1.14,-1.33 -0.41,-0.28 -0.93,-0.48 -1.57,-0.58 -0.99,-0.14 -1.87,-0.06 -2.63,0.26 -0.76,0.32 -1.67,0.93 -2.74,1.81 -1.34,1.13 -2.53,2.87 -3.56,5.21zm9.97 -5.13c0.51,0.69 0.84,1.32 0.98,1.89 0.07,0.42 -0.03,1.06 -0.32,1.91 -0.28,0.85 -0.51,1.59 -0.69,2.23 -0.28,1.06 -1.1,2.45 -2.44,4.15 -1.35,1.7 -2.5,2.83 -3.46,3.4 -0.71,0.42 -1.11,0.48 -1.22,0.16 -0.21,-0.89 -0.06,-2.33 0.45,-4.33 0.51,-2 1.23,-3.94 2.15,-5.82 0.61,-1.24 1.07,-2.11 1.41,-2.61 0.34,-0.49 0.7,-0.95 1.09,-1.38 0.39,-0.42 0.66,-0.64 0.8,-0.64 0.32,0 0.73,0.35 1.25,1.04z"/>
  <path class="fil1" d="M62.28 50.1c-5.43,-0.93 -10.8,-4.76 -12.56,-5.53l-1.89 -0.83 0.58 -0.44c0.73,-0.58 1.41,-1.48 2.04,-2.7 0.93,-1.75 1.84,-4.07 2.75,-6.98 0.49,-1.64 0.76,-2.52 0.81,-2.65 0.06,-0.13 0.4,-0.3 1.04,-0.51 2.16,-0.69 4.22,-1.92 6.17,-3.67 1.27,-1.1 2.37,-2.33 3.31,-3.69 0.95,-1.37 1.6,-2.67 1.95,-3.91 0.38,-1.35 0.35,-2.52 -0.09,-3.51 -0.45,-0.98 -1.24,-1.68 -2.38,-2.11 -0.57,-0.17 -1.23,-0.23 -1.98,-0.19 -0.76,0.04 -1.31,0.13 -1.68,0.27 -3.9,1.49 -7.03,5.92 -9.38,13.27 -0.47,1.46 -0.76,2.44 -0.89,2.93 -0.12,0.44 -0.24,0.68 -0.36,0.75 -0.11,0.06 -0.4,0.04 -0.85,-0.05 -1.55,-0.32 -2.95,-0.95 -4.22,-1.9 -1.26,-0.95 -2.22,-2.09 -2.87,-3.42 -0.22,-0.4 -0.4,-0.95 -0.56,-1.66 -0.16,-0.71 -0.2,-3.67 0.85,-5.28 0.75,-1.17 2.05,-2.38 4.34,-3.31 2.33,-0.4 3.76,0.13 4.31,0.8 0.66,0.8 0.95,1.72 0.85,2.78 -0.03,0.28 -0.27,1.44 -0.79,1.91 -0.52,0.48 -0.43,0.31 -0.76,0.44 -0.32,0.13 -0.53,0.12 -0.63,-0.03 -0.12,-0.2 -0.3,-0.46 -0.64,-0.52 -0.34,-0.05 -0.56,0.15 -0.57,0.31 -0.17,0.61 1,1.18 2.25,1.01 1.24,-0.17 1.95,-1.18 2.08,-1.45 0.65,-1.39 0.7,-2.69 0.15,-3.9 -0.56,-1.22 -1.52,-2.03 -2.91,-2.45 -0.39,-0.12 -2.25,-0.7 -4.47,-0.01 -2.22,0.68 -5.14,2.84 -5.66,5.74 -0.52,2.89 -0.24,3.72 0.48,5.34 0.71,1.63 1.87,3.02 3.47,4.18 1.59,1.16 3.31,1.85 5.16,2.07 0.48,0.04 0.75,0.08 0.81,0.11 0.05,0.04 -0.13,0.74 -0.54,2.13 -0.41,1.38 -0.77,2.5 -1.1,3.35 -0.98,2.58 -1.75,4.3 -2.31,5.16 -0.24,0.4 -0.44,0.61 -0.61,0.64 -0.17,0.03 -0.64,-0.05 -1.41,-0.24 -1.31,-0.32 -3.52,-1.14 -6.05,-0.13 -0.53,0.19 -1,0.52 -1.4,0.99 -0.52,0.63 -0.76,1.26 -0.73,1.88 0.03,0.36 0.29,1.06 1.04,1.66 0.65,0.51 1.64,0.95 3.4,1.01 2.03,0.03 4.68,-1.79 5.19,-2.03 0.51,-0.23 0.84,-0.4 1,-0.51l2.01 0.98c1.3,0.64 2.42,1.21 3.37,1.71 1.87,0.99 3.61,1.8 5.24,2.42 1.67,0.63 3.21,1.07 4.63,1.31 2.17,0.26 3.64,0.13 4.64,-0.23 2.05,-0.72 2.16,-2.34 2.32,-3.29 -0.94,1.13 -2.34,2.63 -5.95,1.98zm-18.64 -6.01c-0.17,0.36 -0.91,0.89 -2.21,1.57 -2.33,1.16 -3.73,0.56 -4.1,-0.17 -0.11,-0.37 -0.03,-1.22 0.89,-1.79 0.67,-0.41 2.8,-0.74 4.73,-0.01 0.46,0.24 0.68,0.37 0.69,0.4zm10.68 -14.13c0,-0.03 0.22,-0.77 0.66,-2.2 0.93,-2.99 1.95,-5.34 3.05,-7.05 1.27,-1.98 2.23,-3.37 2.87,-4.18 0.64,-0.8 1.24,-1.33 1.8,-1.61 0.33,-0.15 0.54,-0.24 0.64,-0.28 0.1,-0.03 0.24,-0.03 0.42,0.02 0.17,0.04 0.36,0.18 0.55,0.4 0.58,0.64 0.86,1.52 0.84,2.64 -0.04,1.03 -0.37,2.17 -1,3.41 -0.79,1.65 -1.91,3.2 -3.34,4.65 -1.44,1.46 -2.97,2.6 -4.6,3.43 -0.3,0.15 -0.59,0.3 -0.89,0.43 -0.29,0.14 -0.53,0.24 -0.72,0.3 -0.18,0.05 -0.27,0.07 -0.28,0.04z"/>
  <path class="fil1" d="M73.2 42.23c1.17,-1.59 2.13,-3.19 2.87,-4.78 1.03,-2.13 1.49,-3.26 1.38,-3.4 -0.1,-0.11 -0.28,-0.18 -0.53,-0.21 -0.25,-0.04 -0.48,-0.02 -0.69,0.05 -0.25,0.1 -0.6,0.67 -1.06,1.7 -1.49,3.29 -3.01,5.81 -4.57,7.55 -0.36,0.39 -0.88,0.86 -1.57,1.4 -0.69,0.55 -1.11,0.83 -1.25,0.83 -0.07,0 -0.12,-0.02 -0.16,-0.06 -0.57,-0.46 0.14,-3.66 2.13,-9.62 1.24,-3.75 1.82,-5.8 1.75,-6.16 -0.07,-0.28 -0.38,-0.49 -0.93,-0.61 -0.55,-0.12 -1.11,-0.11 -1.67,0.03 -0.46,0.14 -0.88,0.59 -1.25,1.35 -0.37,0.76 -0.97,2.37 -1.78,4.81 -0.53,1.49 -1.24,2.97 -2.13,4.44 -0.89,1.47 -1.79,2.67 -2.71,3.59 -0.5,0.49 -1.03,0.95 -1.59,1.38 -0.57,0.42 -0.91,0.6 -1.01,0.53 -0.07,-0.07 -0.09,-0.5 -0.06,-1.28 0.07,-1.59 0.76,-4.28 2.08,-8.08 1.2,-3.64 1.8,-5.72 1.8,-6.21 0,-0.32 -0.11,-0.54 -0.34,-0.67 -0.23,-0.12 -0.65,-0.18 -1.25,-0.18 -0.67,0 -1.13,0.08 -1.38,0.24 -0.25,0.16 -0.53,0.55 -0.85,1.19 -0.82,1.67 -1.59,3.84 -2.31,6.51 -0.73,2.68 -1.06,4.94 -0.99,6.78 0.04,0.81 0.18,1.42 0.43,1.81 0.35,0.63 0.94,1.02 1.75,1.16 0.82,0.15 1.67,0 2.55,-0.42 0.46,-0.25 1.05,-0.69 1.76,-1.33 0.7,-0.64 1.32,-1.29 1.86,-1.97 0.46,-0.56 0.7,-0.88 0.74,-0.95 0.04,-0.04 0.05,0.03 0.05,0.21 0,1.77 0.13,2.91 0.38,3.4 0.42,0.85 1.16,1.31 2.2,1.38 1.05,0.07 2.01,-0.21 2.9,-0.85 1.13,-0.78 2.28,-1.96 3.45,-3.56zm10.87 1.54c1.15,-0.88 2.06,-1.75 2.74,-2.6 0.81,-0.99 1.63,-2.19 2.44,-3.59 0.82,-1.4 1.26,-2.36 1.33,-2.89 0.07,-0.32 -0.02,-0.52 -0.27,-0.59 -0.46,-0.18 -0.81,-0.18 -1.06,0 -0.25,0.18 -0.5,0.59 -0.74,1.22 -0.5,1.31 -1.26,2.66 -2.29,4.04 -1.03,1.38 -2.11,2.5 -3.24,3.35 -1.7,1.31 -3.22,2.07 -4.57,2.29 -0.32,0.03 -0.58,-0.09 -0.8,-0.38 -0.39,-0.46 -0.64,-1.24 -0.74,-2.33 -0.18,-2.45 0.78,-5.71 2.87,-9.78 0.42,-0.85 0.87,-1.57 1.33,-2.16 0.46,-0.58 0.78,-0.85 0.95,-0.82 0.22,0.11 0.51,0.64 0.88,1.6 0.37,0.95 0.56,1.66 0.56,2.12 0,0.39 0.28,0.59 0.85,0.59 0.39,0 0.64,-0.08 0.74,-0.24 0.11,-0.16 0.16,-0.54 0.16,-1.15 0,-1.34 -0.28,-2.4 -0.85,-3.16 -0.56,-0.76 -1.43,-1.14 -2.6,-1.14 -1.1,0 -2.2,0.37 -3.3,1.11 -2.16,1.46 -3.88,3.78 -5.15,6.97 -0.39,1.02 -0.69,2.13 -0.91,3.32 -0.21,1.19 -0.26,2.12 -0.15,2.79 0.28,1.84 1.29,3.08 3.02,3.72 1.74,0.64 3.64,0.51 5.69,-0.37 0.92,-0.39 1.96,-1.03 3.11,-1.92zm4.84 -13.2c-0.38,0.79 -0.9,2.19 -1.57,4.17 -0.78,2.3 -1.29,4.45 -1.52,6.43 -0.23,1.98 -0.15,3.38 0.24,4.2 0.43,0.81 1.17,1.24 2.23,1.27 1.07,0.04 2.06,-0.28 2.98,-0.95 0.39,-0.25 0.89,-0.69 1.52,-1.33 0.61,-0.64 1.12,-1.24 1.51,-1.81 1.52,-2.02 2.89,-4.41 4.09,-7.17 0.25,-0.61 0.39,-0.97 0.43,-1.09 0.03,-0.13 0,-0.22 -0.11,-0.3 -0.18,-0.14 -0.37,-0.21 -0.58,-0.21 -0.39,0 -0.67,0.1 -0.83,0.29 -0.16,0.2 -0.43,0.74 -0.82,1.62 -2.02,4.61 -4.24,7.69 -6.64,9.25 -0.47,0.32 -0.74,0.43 -0.83,0.32 -0.09,-0.1 -0.11,-0.53 -0.08,-1.27 0.04,-0.78 0.41,-2.45 1.12,-5 0.1,-0.5 0.46,-1.59 1.06,-3.3 1.13,-3.43 1.7,-5.42 1.7,-5.95 0,-0.32 -0.12,-0.55 -0.37,-0.69 -0.32,-0.14 -0.74,-0.2 -1.25,-0.18 -0.51,0.01 -0.91,0.09 -1.19,0.24 -0.36,0.17 -0.72,0.66 -1.09,1.46zm5.71 5.34c-1.03,2.34 -1.49,4.34 -1.38,6 0.17,2.63 1.32,4.03 3.45,4.2 1.1,0.07 2.07,-0.17 2.92,-0.74 0.46,-0.29 1.07,-0.78 1.81,-1.49 0.74,-0.71 1.28,-1.28 1.6,-1.73 0.31,-0.44 0.49,-0.66 0.53,-0.66 0.03,0 0.04,0.09 0.02,0.26 -0.01,0.18 -0.03,0.43 -0.05,0.75 -0.02,0.32 -0.02,0.65 0,1.01 0.02,0.35 0.07,0.72 0.16,1.09 0.09,0.37 0.2,0.68 0.35,0.93 0.24,0.53 0.76,0.87 1.54,1.03 0.78,0.16 1.56,0.1 2.34,-0.18 1.2,-0.46 2.47,-1.53 3.79,-3.19 1.33,-1.67 2.44,-3.38 3.33,-5.16 1.17,-2.3 1.75,-3.59 1.75,-3.88 0,-0.07 -0.15,-0.14 -0.45,-0.21 -0.3,-0.07 -0.54,-0.09 -0.72,-0.05 -0.21,0.03 -0.4,0.17 -0.56,0.4 -0.16,0.23 -0.43,0.77 -0.82,1.62 -1.45,3.33 -3.03,5.84 -4.73,7.54 -1.31,1.32 -2.16,1.97 -2.55,1.97 -0.11,0 -0.17,-0.16 -0.19,-0.48 -0.02,-0.32 0,-0.71 0.06,-1.19 0.05,-0.48 0.13,-0.93 0.23,-1.36 0.46,-2.09 1.17,-4.53 2.13,-7.33 0.85,-2.52 1.33,-4.09 1.44,-4.73 0.1,-0.64 -0.02,-1.05 -0.38,-1.22 -0.42,-0.22 -0.94,-0.28 -1.57,-0.19 -0.61,0.09 -1.03,0.29 -1.24,0.61 -0.15,0.18 -0.32,0.46 -0.54,0.85l-0.31 0.64 -0.32 -0.48c-0.36,-0.6 -0.74,-1.04 -1.15,-1.33 -0.4,-0.28 -0.93,-0.48 -1.56,-0.58 -1,-0.14 -1.87,-0.06 -2.63,0.26 -0.77,0.32 -1.68,0.92 -2.74,1.81 -1.35,1.13 -2.53,2.87 -3.56,5.21zm9.96 -5.13c0.52,0.69 0.84,1.32 0.99,1.89 0.07,0.42 -0.04,1.06 -0.32,1.91 -0.29,0.85 -0.52,1.59 -0.69,2.23 -0.29,1.07 -1.1,2.45 -2.45,4.15 -1.34,1.7 -2.5,2.83 -3.45,3.4 -0.71,0.42 -1.12,0.48 -1.22,0.16 -0.22,-0.89 -0.07,-2.33 0.45,-4.33 0.51,-2 1.23,-3.95 2.15,-5.82 0.6,-1.24 1.07,-2.11 1.41,-2.61 0.33,-0.49 0.7,-0.95 1.09,-1.38 0.39,-0.42 0.65,-0.64 0.79,-0.64 0.32,0 0.74,0.35 1.25,1.04zm9.6 15.25c0.07,-0.02 0.19,-0.13 0.37,-0.34 0.21,-0.25 0.33,-0.57 0.37,-0.96 0.11,-0.89 0.47,-2.33 1.09,-4.33 0.62,-2 1.16,-3.5 1.62,-4.49 0.64,-1.31 1.51,-2.55 2.61,-3.72 1.09,-1.17 2.21,-2.06 3.34,-2.66 0.64,-0.32 1.08,-0.47 1.33,-0.45 0.25,0.02 0.43,0.2 0.53,0.56 0.14,0.39 0.14,0.95 0,1.7 -0.14,0.74 -0.44,1.82 -0.9,3.24 -1.06,3.3 -1.72,5.55 -1.97,6.78 -0.25,1.22 -0.23,2.11 0.06,2.68 0.42,0.96 1.36,1.43 2.81,1.43 1.17,-0.03 2.1,-0.25 2.79,-0.66 0.69,-0.41 1.52,-1.25 2.47,-2.52 1.24,-1.63 2.31,-3.76 3.19,-6.38 0.39,-1.14 0.55,-1.76 0.48,-1.86 -0.11,-0.11 -0.31,-0.17 -0.61,-0.19 -0.3,-0.02 -0.52,0.03 -0.66,0.13 -0.15,0.11 -0.38,0.63 -0.7,1.55 -1.2,3.4 -2.67,5.98 -4.41,7.75 -0.81,0.86 -1.5,1.25 -2.07,1.17 -0.78,-0.14 -0.6,-1.68 0.53,-4.62 1.38,-3.58 2.09,-6.39 2.13,-8.45 0.03,-2.13 -1.12,-3.19 -3.46,-3.19 -0.74,0 -1.48,0.15 -2.2,0.45 -0.73,0.31 -1.36,0.68 -1.89,1.12 -0.53,0.44 -1.02,0.88 -1.46,1.3 -0.44,0.43 -0.79,0.77 -1.04,1.04 -0.24,0.26 -0.39,0.38 -0.42,0.34 -0.04,-0.03 0.16,-0.65 0.58,-1.86 0.32,-1.02 0.49,-1.7 0.51,-2.02 0.02,-0.32 -0.1,-0.53 -0.35,-0.63 -0.39,-0.14 -0.92,-0.15 -1.59,-0.03 -0.68,0.12 -1.15,0.33 -1.44,0.61 -0.39,0.36 -0.99,1.67 -1.8,3.93 -1.49,4.08 -2.24,7.44 -2.24,10.1 0,1.88 0.57,3 1.7,3.35 0.39,0.11 0.62,0.15 0.7,0.13zm16.2 -10.12c-1.02,2.34 -1.48,4.34 -1.38,6 0.18,2.63 1.33,4.03 3.46,4.2 1.1,0.07 2.07,-0.17 2.92,-0.74 0.46,-0.29 1.06,-0.78 1.81,-1.49 0.74,-0.71 1.27,-1.28 1.59,-1.73 0.32,-0.44 0.5,-0.66 0.53,-0.66 0.04,0 0.05,0.09 0.03,0.26 -0.02,0.18 -0.04,0.43 -0.05,0.75 -0.02,0.32 -0.02,0.65 0,1.01 0.01,0.35 0.07,0.72 0.16,1.09 0.08,0.37 0.2,0.68 0.34,0.93 0.25,0.53 0.76,0.87 1.54,1.03 0.78,0.16 1.56,0.1 2.34,-0.18 1.21,-0.46 2.47,-1.53 3.8,-3.19 1.33,-1.67 2.44,-3.38 3.32,-5.16 1.17,-2.3 1.76,-3.59 1.76,-3.88 0,-0.07 -0.15,-0.14 -0.46,-0.21 -0.3,-0.07 -0.54,-0.09 -0.71,-0.05 -0.21,0.03 -0.4,0.17 -0.56,0.4 -0.16,0.23 -0.43,0.77 -0.82,1.62 -1.46,3.33 -3.03,5.84 -4.73,7.54 -1.32,1.32 -2.17,1.97 -2.56,1.97 -0.1,0 -0.16,-0.16 -0.18,-0.48 -0.02,-0.32 0,-0.71 0.05,-1.19 0.06,-0.48 0.13,-0.93 0.24,-1.36 0.46,-2.09 1.17,-4.53 2.13,-7.33 0.85,-2.52 1.32,-4.09 1.43,-4.73 0.11,-0.64 -0.02,-1.05 -0.37,-1.22 -0.43,-0.22 -0.95,-0.28 -1.57,-0.19 -0.62,0.09 -1.03,0.29 -1.25,0.61 -0.14,0.18 -0.32,0.46 -0.53,0.85l-0.32 0.64 -0.32 -0.48c-0.35,-0.6 -0.73,-1.04 -1.14,-1.33 -0.41,-0.28 -0.93,-0.48 -1.57,-0.58 -0.99,-0.14 -1.87,-0.06 -2.63,0.26 -0.76,0.32 -1.67,0.92 -2.73,1.81 -1.35,1.13 -2.54,2.87 -3.57,5.21zm9.97 -5.13c0.51,0.69 0.84,1.32 0.98,1.89 0.07,0.42 -0.03,1.06 -0.32,1.91 -0.28,0.85 -0.51,1.59 -0.69,2.23 -0.28,1.07 -1.1,2.45 -2.44,4.15 -1.35,1.7 -2.5,2.83 -3.46,3.4 -0.71,0.42 -1.11,0.48 -1.22,0.16 -0.21,-0.89 -0.06,-2.33 0.45,-4.33 0.52,-2 1.23,-3.95 2.16,-5.82 0.6,-1.24 1.07,-2.11 1.4,-2.61 0.34,-0.49 0.7,-0.95 1.09,-1.38 0.39,-0.42 0.66,-0.64 0.8,-0.64 0.32,0 0.73,0.35 1.25,1.04z"/>
  <path class="fil0" d="M28.9 36.81c-0.08,0.08 0.27,1.56 0.34,1.49 1.5,-1.45 3.17,-3.23 4.39,-5.09 1.31,-1.99 4.03,-7.37 4.13,-7.6 0,0 0.11,-0.12 0.06,-0.3 -0.04,-0.11 -0.17,-0.17 -0.43,-0.38l-0.37 -0.29c-0.09,-0.08 -0.22,-0.11 -0.34,-0.08 -0.13,0.03 -0.23,0.11 -0.28,0.23 -1.08,2.51 -4.82,9.46 -7.5,12.02z"/>
  <path class="fil0" d="M28.9 36.81c-0.08,0.08 0.27,1.56 0.34,1.49 1.5,-1.45 3.17,-3.23 4.39,-5.09 1.31,-1.99 4.03,-7.37 4.13,-7.6 0,0 0.11,-0.12 0.06,-0.3 -0.04,-0.11 -0.17,-0.17 -0.43,-0.38l-0.37 -0.29c-0.09,-0.08 -0.22,-0.11 -0.34,-0.08 -0.13,0.03 -0.23,0.11 -0.28,0.23 -1.08,2.51 -4.82,9.46 -7.5,12.02z"/>
  <path class="fil0" d="M58.44 9.76c-4.1,-1.07 -9.05,-0.59 -12.8,1.37 -0.1,0.05 -0.18,0.15 -0.2,0.25 -0.03,0.12 -0.01,0.23 0.05,0.33l0.39 0.56c0.06,0.1 0.17,0.16 0.28,0.17 0.07,0.01 0.14,0 0.21,-0.03 2.04,-0.91 4.82,-1.55 7.46,-1.79 2.08,-0.19 4.41,-0.15 5.88,0.21 -0.07,-0.66 -0.86,-0.96 -1.27,-1.07z"/>
  <path class="fil0" d="M58.44 9.76c-4.1,-1.07 -9.05,-0.59 -12.8,1.37 -0.1,0.05 -0.18,0.15 -0.2,0.25 -0.03,0.12 -0.01,0.23 0.05,0.33l0.39 0.56c0.06,0.1 0.17,0.16 0.28,0.17 0.07,0.01 0.14,0 0.21,-0.03 2.04,-0.91 4.82,-1.55 7.46,-1.79 2.08,-0.19 4.41,-0.15 5.88,0.21 -0.07,-0.66 -0.86,-0.96 -1.27,-1.07z"/>
  <path class="fil0" d="M58.88 8.93c0.09,-0.13 0.09,-0.31 -0.01,-0.45 -0.01,-0.01 -0.91,-1.26 -1.5,-2.77 -0.1,-0.25 -0.22,-0.67 -0.34,-1.13 -0.46,-1.62 -0.8,-2.72 -1.36,-3.04 -1.67,-1.34 -3.97,-0.79 -5.56,-0.26 -5.14,1.73 -9.98,5.1 -13.63,9.48 -0.93,1.11 -1.75,2.33 -2.78,4.11 0.08,0.09 0.5,1.85 0.53,1.85 0.14,0 0.27,-0.07 0.34,-0.2 2.06,-3.5 4.16,-6.08 6.61,-8.14 2.18,-1.83 4.59,-3.33 7.18,-4.46 1.19,-0.52 2.42,-1.05 3.68,-1.19 0.59,-0.07 2.54,-0.22 2.71,0.64 0.95,5.07 3.6,5.71 3.72,5.74 0.16,0.03 0.32,-0.04 0.41,-0.18z"/>
  <path class="fil0" d="M58.88 8.93c0.09,-0.13 0.09,-0.31 -0.01,-0.45 -0.01,-0.01 -0.91,-1.26 -1.5,-2.77 -0.1,-0.25 -0.22,-0.67 -0.34,-1.13 -0.46,-1.62 -0.8,-2.72 -1.36,-3.04 -1.67,-1.34 -3.97,-0.79 -5.56,-0.26 -5.14,1.73 -9.98,5.1 -13.63,9.48 -0.93,1.11 -1.75,2.33 -2.78,4.11 0.08,0.09 0.5,1.85 0.53,1.85 0.14,0 0.27,-0.07 0.34,-0.2 2.06,-3.5 4.16,-6.08 6.61,-8.14 2.18,-1.83 4.59,-3.33 7.18,-4.46 1.19,-0.52 2.42,-1.05 3.68,-1.19 0.59,-0.07 2.54,-0.22 2.71,0.64 0.95,5.07 3.6,5.71 3.72,5.74 0.16,0.03 0.32,-0.04 0.41,-0.18z"/>
  <path class="fil0" d="M18.35 0.05c-0.23,0.03 -2.42,0.13 -3.17,0.3 -0.12,0.02 -0.21,0.05 -0.27,0.07 -0.02,0.05 0.03,0.15 0.13,0.26 0.37,0.41 1.86,0.92 3.55,1.02 0,0.01 -0.01,0.03 -0.01,0.04 -0.16,4.43 2.35,7.85 7.07,9.64 2.6,0.98 4.79,2.04 5.31,4.97 0.49,2.79 -0.65,5.52 -1.7,7.58 -0.28,0.56 -0.58,1.11 -0.87,1.65 -0.88,1.65 -1.8,3.36 -2.35,5.21 -0.75,2.5 -0.84,5.37 -0.28,8.31 0.93,4.81 3.61,8.84 7.35,11.05 0.15,0.09 0.33,0.13 0.5,0.13 0.46,0 0.94,-0.26 1.14,-0.6 0.21,-0.35 0.1,-0.73 -0.27,-0.96 -3.85,-2.27 -6.37,-6.52 -6.93,-11.66 -0.32,-3.08 0.26,-6.07 1.79,-9.14 0.32,-0.64 0.67,-1.28 1,-1.9 0.81,-1.5 1.65,-3.05 2.18,-4.72 1.05,-3.31 0.96,-7.66 -2.41,-9.95 -0.98,-0.67 -2.1,-1.08 -3.17,-1.47 -1.09,-0.39 -2.12,-0.77 -3.03,-1.4 -2.01,-1.38 -3.21,-3.69 -3.27,-6.26 0.1,-0.6 0.15,-1.29 -0.49,-1.82 -0.37,-0.31 -0.76,-0.4 -1.13,-0.4l-0.03 0c-0.22,0 -0.44,0.03 -0.64,0.05z"/>
  <path class="fil0" d="M18.35 0.05c-0.23,0.03 -2.42,0.13 -3.17,0.3 -0.12,0.02 -0.21,0.05 -0.27,0.07 -0.02,0.05 0.03,0.15 0.13,0.26 0.37,0.41 1.86,0.92 3.55,1.02 0,0.01 -0.01,0.03 -0.01,0.04 -0.16,4.43 2.35,7.85 7.07,9.64 2.6,0.98 4.79,2.04 5.31,4.97 0.49,2.79 -0.65,5.52 -1.7,7.58 -0.28,0.56 -0.58,1.11 -0.87,1.65 -0.88,1.65 -1.8,3.36 -2.35,5.21 -0.75,2.5 -0.84,5.37 -0.28,8.31 0.93,4.81 3.61,8.84 7.35,11.05 0.15,0.09 0.33,0.13 0.5,0.13 0.46,0 0.94,-0.26 1.14,-0.6 0.21,-0.35 0.1,-0.73 -0.27,-0.96 -3.85,-2.27 -6.37,-6.52 -6.93,-11.66 -0.32,-3.08 0.26,-6.07 1.79,-9.14 0.32,-0.64 0.67,-1.28 1,-1.9 0.81,-1.5 1.65,-3.05 2.18,-4.72 1.05,-3.31 0.96,-7.66 -2.41,-9.95 -0.98,-0.67 -2.1,-1.08 -3.17,-1.47 -1.09,-0.39 -2.12,-0.77 -3.03,-1.4 -2.01,-1.38 -3.21,-3.69 -3.27,-6.26 0.1,-0.6 0.15,-1.29 -0.49,-1.82 -0.37,-0.31 -0.76,-0.4 -1.13,-0.4l-0.03 0c-0.22,0 -0.44,0.03 -0.64,0.05z"/>
  <path class="fil0" d="M5.44 15.53c-0.15,-0.06 -0.49,0.03 -0.56,0.22 -0.04,0.1 0,0.25 0.15,0.3 4.14,1.52 8.49,2.28 12.84,2.28 0.13,0 0.26,0 0.39,-0.01 0.55,5.99 0.74,11.99 0.57,18 -2.04,0.12 -4.09,-0.06 -6.13,-0.54 -0.16,-0.03 -0.31,0.04 -0.4,0.13 -0.08,0.09 -0.11,0.2 -0.08,0.3 0.02,0.06 0.08,0.16 0.24,0.2 1.71,0.4 3.42,0.6 5.13,0.6 0.41,0 0.82,-0.02 1.23,-0.04 -0.16,4.88 -0.56,9.76 -1.19,14.62 -0.02,0.14 0.06,0.29 0.25,0.32 0.02,0 0.04,0 0.06,0 0.17,0 0.4,-0.09 0.42,-0.3 0.64,-4.89 1.04,-9.79 1.2,-14.69 1.66,-0.15 3.32,-0.49 4.96,-1.02 0.21,-0.07 0.28,-0.25 0.23,-0.39 -0.06,-0.18 -0.27,-0.28 -0.47,-0.22 -1.56,0.5 -3.13,0.82 -4.71,0.97 0.17,-5.99 -0.02,-11.98 -0.56,-17.95 3.87,-0.12 7.72,-0.83 11.4,-2.15 0.14,-0.05 0.22,-0.13 0.24,-0.23 0.01,-0.09 -0.02,-0.18 -0.09,-0.24 -0.1,-0.08 -0.26,-0.1 -0.4,-0.05 -3.62,1.29 -7.4,1.99 -11.2,2.09 -0.41,-4.29 -0.99,-8.57 -1.77,-12.82 -0.02,-0.14 -0.16,-0.27 -0.39,-0.23 -0.23,0.04 -0.37,0.21 -0.34,0.39l0 0c0.77,4.2 1.34,8.43 1.75,12.67 -4.33,0.03 -8.66,-0.7 -12.77,-2.21zm7.12 20.46l0 0.01c0,0 0,0 0,0l0 -0.01c0,0 0,0 0,0z"/>
  <path class="fil0" d="M5.44 15.53c-0.15,-0.06 -0.49,0.03 -0.56,0.22 -0.04,0.1 0,0.25 0.15,0.3 4.14,1.52 8.49,2.28 12.84,2.28 0.13,0 0.26,0 0.39,-0.01 0.55,5.99 0.74,11.99 0.57,18 -2.04,0.12 -4.09,-0.06 -6.13,-0.54 -0.16,-0.03 -0.31,0.04 -0.4,0.13 -0.08,0.09 -0.11,0.2 -0.08,0.3 0.02,0.06 0.08,0.16 0.24,0.2 1.71,0.4 3.42,0.6 5.13,0.6 0.41,0 0.82,-0.02 1.23,-0.04 -0.16,4.88 -0.56,9.76 -1.19,14.62 -0.02,0.14 0.06,0.29 0.25,0.32 0.02,0 0.04,0 0.06,0 0.17,0 0.4,-0.09 0.42,-0.3 0.64,-4.89 1.04,-9.79 1.2,-14.69 1.66,-0.15 3.32,-0.49 4.96,-1.02 0.21,-0.07 0.28,-0.25 0.23,-0.39 -0.06,-0.18 -0.27,-0.28 -0.47,-0.22 -1.56,0.5 -3.13,0.82 -4.71,0.97 0.17,-5.99 -0.02,-11.98 -0.56,-17.95 3.87,-0.12 7.72,-0.83 11.4,-2.15 0.14,-0.05 0.22,-0.13 0.24,-0.23 0.01,-0.09 -0.02,-0.18 -0.09,-0.24 -0.1,-0.08 -0.26,-0.1 -0.4,-0.05 -3.62,1.29 -7.4,1.99 -11.2,2.09 -0.41,-4.29 -0.99,-8.57 -1.77,-12.82 -0.02,-0.14 -0.16,-0.27 -0.39,-0.23 -0.23,0.04 -0.37,0.21 -0.34,0.39l0 0c0.77,4.2 1.34,8.43 1.75,12.67 -4.33,0.03 -8.66,-0.7 -12.77,-2.21zm7.12 20.46l0 0.01c0,0 0,0 0,0l0 -0.01c0,0 0,0 0,0z"/>
  <path class="fil0" d="M57.51 61.39c-1.57,-1.35 -3.39,-2.51 -5.34,-3.42 -0.33,-0.15 -3,-0.96 -4.11,-1.14 -0.57,-0.1 -1.11,-0.18 -1.51,-0.24 -4.92,-0.7 -9.41,1.09 -13.96,3.15 -6.04,2.74 -13.08,5.5 -20.24,3.66 -2.35,-0.61 -4.51,-1.74 -6.26,-3.29 -1.37,-1.21 -3.25,-3.1 -3.68,-5.48 -0.71,-3.85 0.2,-5.43 0.69,-6.28 0.05,-0.08 0.09,-0.15 0.13,-0.22 0.92,-1.69 2.07,-2.92 3.74,-3.8 0.17,-0.3 0.37,-0.87 0.44,-1.3 0.01,-0.08 0,-0.23 -0.12,-0.3 -0.11,-0.06 -0.33,-0.04 -0.42,0.01 -3.2,1.45 -5.52,3.68 -6.21,5.95 -0.59,1.93 -0.78,3.68 -0.58,5.21 0.17,1.3 0.57,2.11 0.79,2.54 0.03,0.07 0.06,0.12 0.08,0.16 1.46,3.16 4.27,5.79 7.7,7.22 2.35,0.99 5.01,1.48 7.87,1.48 2.18,0 4.48,-0.29 6.85,-0.86 2.32,-0.57 4.7,-1.38 7.5,-2.57 0.87,-0.37 1.75,-0.78 2.6,-1.17 2.38,-1.09 4.83,-2.23 7.41,-2.72 1.69,-0.32 3.82,-0.18 5.82,0.24 1.05,0.22 2.49,0.44 5.06,1.58 2.58,1.15 5.16,2.33 6.66,3.58 0.26,-0.83 -0.49,-1.63 -0.91,-1.99zm-43.44 -59.88c-0.04,-0.27 -0.22,-0.49 -0.48,-0.6 -0.36,-0.14 -0.85,-0.05 -1.2,0.22 -0.27,0.21 -0.4,0.52 -0.36,0.83 0.4,2.81 -0.6,5.49 -2.68,7.15 -0.81,0.64 -1.72,1.09 -2.69,1.57 -1.11,0.54 -2.25,1.09 -3.21,1.97 -2.99,2.73 -2.52,7.08 -1.09,10.25 0.77,1.68 1.76,3.2 2.71,4.66 1.72,2.64 3.35,5.14 3.7,8.43 0.2,1.84 0.11,3.64 -0.23,5.35l0.03 0.02c0,0 -0.45,2.72 -1.63,4.49 0,0.01 -0.03,0.03 -0.06,0.05 -0.92,1.64 -2.12,3.06 -3.59,4.16 -0.37,0.28 -0.4,0.58 -0.38,0.74 0.03,0.27 0.22,0.5 0.52,0.63 0.16,0.07 0.33,0.1 0.49,0.1 0.25,0 0.5,-0.07 0.69,-0.22 3.58,-2.67 5.8,-6.89 6.24,-11.89 0.51,-5.78 -1.93,-9.98 -4.69,-14.12 -1.49,-2.24 -2.87,-4.68 -2.87,-7.42 -0.01,-3.45 2.55,-4.79 5.25,-6.2 4.07,-2.12 6.13,-5.92 5.53,-10.17z"/>
  <path class="fil0" d="M57.51 61.39c-1.57,-1.35 -3.39,-2.51 -5.34,-3.42 -0.33,-0.15 -3,-0.96 -4.11,-1.14 -0.57,-0.1 -1.11,-0.18 -1.51,-0.24 -4.92,-0.7 -9.41,1.09 -13.96,3.15 -6.04,2.74 -13.08,5.5 -20.24,3.66 -2.35,-0.61 -4.51,-1.74 -6.26,-3.29 -1.37,-1.21 -3.25,-3.1 -3.68,-5.48 -0.71,-3.85 0.2,-5.43 0.69,-6.28 0.05,-0.08 0.09,-0.15 0.13,-0.22 0.92,-1.69 2.07,-2.92 3.74,-3.8 0.17,-0.3 0.37,-0.87 0.44,-1.3 0.01,-0.08 0,-0.23 -0.12,-0.3 -0.11,-0.06 -0.33,-0.04 -0.42,0.01 -3.2,1.45 -5.52,3.68 -6.21,5.95 -0.59,1.93 -0.78,3.68 -0.58,5.21 0.17,1.3 0.57,2.11 0.79,2.54 0.03,0.07 0.06,0.12 0.08,0.16 1.46,3.16 4.27,5.79 7.7,7.22 2.35,0.99 5.01,1.48 7.87,1.48 2.18,0 4.48,-0.29 6.85,-0.86 2.32,-0.57 4.7,-1.38 7.5,-2.57 0.87,-0.37 1.75,-0.78 2.6,-1.17 2.38,-1.09 4.83,-2.23 7.41,-2.72 1.69,-0.32 3.82,-0.18 5.82,0.24 1.05,0.22 2.49,0.44 5.06,1.58 2.58,1.15 5.16,2.33 6.66,3.58 0.26,-0.83 -0.49,-1.63 -0.91,-1.99zm-43.44 -59.88c-0.04,-0.27 -0.22,-0.49 -0.48,-0.6 -0.36,-0.14 -0.85,-0.05 -1.2,0.22 -0.27,0.21 -0.4,0.52 -0.36,0.83 0.4,2.81 -0.6,5.49 -2.68,7.15 -0.81,0.64 -1.72,1.09 -2.69,1.57 -1.11,0.54 -2.25,1.09 -3.21,1.97 -2.99,2.73 -2.52,7.08 -1.09,10.25 0.77,1.68 1.76,3.2 2.71,4.66 1.72,2.64 3.35,5.14 3.7,8.43 0.2,1.84 0.11,3.64 -0.23,5.35l0.03 0.02c0,0 -0.45,2.72 -1.63,4.49 0,0.01 -0.03,0.03 -0.06,0.05 -0.92,1.64 -2.12,3.06 -3.59,4.16 -0.37,0.28 -0.4,0.58 -0.38,0.74 0.03,0.27 0.22,0.5 0.52,0.63 0.16,0.07 0.33,0.1 0.49,0.1 0.25,0 0.5,-0.07 0.69,-0.22 3.58,-2.67 5.8,-6.89 6.24,-11.89 0.51,-5.78 -1.93,-9.98 -4.69,-14.12 -1.49,-2.24 -2.87,-4.68 -2.87,-7.42 -0.01,-3.45 2.55,-4.79 5.25,-6.2 4.07,-2.12 6.13,-5.92 5.53,-10.17z"/>
  <path class="fil0" d="M17.97 72.66c0.1,0.06 0.23,0.09 0.37,0.09 0.48,0 0.8,-0.18 1.08,-0.28 0.28,-0.09 0.34,-0.31 0.35,-0.36 0.06,-0.19 -0.01,-1.23 -0.01,-1.23l-0.03 -4.18c0,-0.11 -0.05,-0.49 -0.7,-0.5 -0.52,0.01 -1.35,0.22 -1.34,0.8l0.03 5.23c0,0.18 0.09,0.34 0.25,0.43z"/>
  <path class="fil0" d="M17.97 72.66c0.1,0.06 0.23,0.09 0.37,0.09 0.48,0 0.8,-0.18 1.08,-0.28 0.28,-0.09 0.34,-0.31 0.35,-0.36 0.06,-0.19 -0.01,-1.23 -0.01,-1.23l-0.03 -4.18c0,-0.11 -0.05,-0.49 -0.7,-0.5 -0.52,0.01 -1.35,0.22 -1.34,0.8l0.03 5.23c0,0.18 0.09,0.34 0.25,0.43z"/>
  <path class="fil0" d="M16.53 73.21c-1.95,-0.25 -3.49,-0.29 -5.02,-0.11 -0.81,0.1 -1.55,0.57 -1.8,1.15 -0.13,0.3 -0.1,0.6 0.07,0.83 0.25,0.33 0.75,0.46 1.48,0.37 1.8,-0.21 3.61,-0.02 5.35,0.16 1.15,0.13 2.32,0.25 3.48,0.25 0.93,0 1.88,-0.03 2.81,-0.22 0.55,-0.11 2.41,-0.53 3.12,-1.3 0.25,-0.27 0.45,-0.57 0.61,-0.97 0.18,-0.42 0.24,-1.79 0.02,-1.62 -0.16,0.14 -1.48,0.88 -3.33,1.38 -1.64,0.45 -3.7,0.72 -5.74,0.24 -0.36,-0.06 -0.71,-0.11 -1.05,-0.16z"/>
  <path class="fil0" d="M16.53 73.21c-1.95,-0.25 -3.49,-0.29 -5.02,-0.11 -0.81,0.1 -1.55,0.57 -1.8,1.15 -0.13,0.3 -0.1,0.6 0.07,0.83 0.25,0.33 0.75,0.46 1.48,0.37 1.8,-0.21 3.61,-0.02 5.35,0.16 1.15,0.13 2.32,0.25 3.48,0.25 0.93,0 1.88,-0.03 2.81,-0.22 0.55,-0.11 2.41,-0.53 3.12,-1.3 0.25,-0.27 0.45,-0.57 0.61,-0.97 0.18,-0.42 0.24,-1.79 0.02,-1.62 -0.16,0.14 -1.48,0.88 -3.33,1.38 -1.64,0.45 -3.7,0.72 -5.74,0.24 -0.36,-0.06 -0.71,-0.11 -1.05,-0.16z"/>
  <path class="fil0" d="M62.53 56.41c-0.3,-2.13 -2.27,-3.29 -3.73,-3.98 -3.34,-1.58 -7.1,-2.52 -10.93,-2.6 -5.18,-0.12 -10.92,1.73 -11.78,2.01 -1.68,0.53 -3.41,1.16 -5.19,1.81 -8.78,3.2 -17.85,6.51 -24.32,-0.68 -0.22,-0.25 -0.59,-0.34 -1,-0.25 -0.35,0.07 -0.77,0.28 -0.89,0.66 -0.07,0.23 -0.02,0.47 0.15,0.66 6.56,7.29 16.89,4.68 25.15,1.58 2.14,-0.8 4.2,-1.56 6.19,-2.18 0.88,-0.26 -0.33,0.08 2.6,-0.71 2.92,-0.79 7.07,-1.32 9.13,-1.21 2.72,0.15 5.39,0.7 7.94,1.64 1.17,0.43 2.38,0.88 3.36,1.63 0.46,0.36 1.93,1.58 1.48,2.32 -2.65,4.36 -1.21,6.64 -1.15,6.73 0.09,0.14 0.25,0.2 0.41,0.16 0.15,-0.04 0.27,-0.17 0.28,-0.34 0.01,-0.01 0.19,-1.54 0.76,-3.05 0.09,-0.24 0.29,-0.64 0.5,-1.06 0.74,-1.49 1.22,-2.53 1.04,-3.14z"/>
  <path class="fil0" d="M62.53 56.41c-0.3,-2.13 -2.27,-3.29 -3.73,-3.98 -3.34,-1.58 -7.1,-2.52 -10.93,-2.6 -5.18,-0.12 -10.92,1.73 -11.78,2.01 -1.68,0.53 -3.41,1.16 -5.19,1.81 -8.78,3.2 -17.85,6.51 -24.32,-0.68 -0.22,-0.25 -0.59,-0.34 -1,-0.25 -0.35,0.07 -0.77,0.28 -0.89,0.66 -0.07,0.23 -0.02,0.47 0.15,0.66 6.56,7.29 16.89,4.68 25.15,1.58 2.14,-0.8 4.2,-1.56 6.19,-2.18 0.88,-0.26 -0.33,0.08 2.6,-0.71 2.92,-0.79 7.07,-1.32 9.13,-1.21 2.72,0.15 5.39,0.7 7.94,1.64 1.17,0.43 2.38,0.88 3.36,1.63 0.46,0.36 1.93,1.58 1.48,2.32 -2.65,4.36 -1.21,6.64 -1.15,6.73 0.09,0.14 0.25,0.2 0.41,0.16 0.15,-0.04 0.27,-0.17 0.28,-0.34 0.01,-0.01 0.19,-1.54 0.76,-3.05 0.09,-0.24 0.29,-0.64 0.5,-1.06 0.74,-1.49 1.22,-2.53 1.04,-3.14z"/>
 </g>
</svg>
