<?xml version="1.0" encoding="UTF-8"?>
<!DOCTYPE svg PUBLIC "-//W3C//DTD SVG 1.1//EN" "http://www.w3.org/Graphics/SVG/1.1/DTD/svg11.dtd">
<!-- Creator: CorelDRAW 2018 (64 Bit Versão de avaliação) -->
<svg xmlns="http://www.w3.org/2000/svg" xml:space="preserve" width="123px" height="75px" version="1.1" style="shape-rendering:geometricPrecision; text-rendering:geometricPrecision; image-rendering:optimizeQuality; fill-rule:evenodd; clip-rule:evenodd"
viewBox="0 0 135.65 82.5"
 xmlns:xlink="http://www.w3.org/1999/xlink">
 <defs>
  <style type="text/css">
   <![CDATA[
    .fil0 {fill:#C95C6E;fill-rule:nonzero}
    .fil1 {fill:#234D6E;fill-rule:nonzero}
   ]]>
  </style>
 </defs>
 <g id="Camada_x0020_1">
  <metadata id="CorelCorpID_0Corel-Layer"/>
  <path class="fil0" d="M89.1 47.87c1.26,-3.74 -1.84,-1.6 -2.41,-1 -0.57,0.59 -0.98,1.04 -1.21,1.33 -0.43,0.51 -5.66,7.18 -5.64,7.18l-2.84 4.53c-0.58,1.01 -0.88,1.54 -0.9,1.59l-0.04 0.01 0.32 -1.92c0.2,-1.01 0.92,-3.72 1.29,-4.72 0.74,-2.1 1.98,-4.73 3.72,-7.89 0.37,-0.59 0.6,-1.07 0.74,-1.45 0.43,-1.21 -1.27,-1.51 -2.59,-0.61 -1.42,0.97 -2.69,1.98 -4.48,4.3 -1.79,2.31 -3.62,5.35 -5.32,9.21 -0.87,1.96 -0.86,1.95 -1.49,3.31 -0.53,1.13 -0.98,2.04 -1.36,2.73 -2.67,4.94 -5.77,6.36 -8.24,6.35 -1.59,-0.01 -5.83,-2.75 -3.05,-6.98 0.61,-0.58 1.28,-0.94 2.01,-1.06 0.75,-0.15 1.45,-0.09 2.09,0.18 0.64,0.28 1.16,0.67 1.56,1.18 0.27,0.33 0.53,0.49 0.81,0.45 0.35,-0.05 0.47,-0.18 0.36,-0.41 -0.28,-0.65 -0.88,-1.17 -1.78,-1.56 -0.91,-0.39 -1.88,-0.51 -2.91,-0.38 -1.54,0.21 -2.8,0.9 -3.78,2.1 -1.06,1.31 -2.73,5.58 2.12,7.83 3.82,1.21 7.28,-0.73 9.73,-3.64 1.04,-1.52 2.25,-3.74 3.63,-6.67l0.45 -0.97 -0.01 -0.05c0,0 2.03,-4.34 2.56,-5.41 1.34,-2.65 2.74,-4.87 4.22,-6.66 0.37,-0.48 0.79,-0.95 1.24,-1.43 0.44,-0.47 0.69,-0.71 0.75,-0.72l-0.13 0.26c-1.03,1.6 -2.01,3.4 -2.93,5.4 -0.93,2 -1.6,3.83 -2.01,5.48 -0.04,0.16 -0.4,2.01 -0.47,2.74 -0.13,1.08 -0.18,2.14 -0.14,3.17 0.04,1.04 0.14,1.68 0.31,1.92 0.21,0.29 0.64,0.4 1.29,0.31 0.54,-0.07 0.9,-0.28 1.07,-0.62 0.12,-0.18 0.42,-0.8 0.92,-1.88 0.94,-2.01 1.81,-3.69 2.6,-5.04 0.79,-1.34 1.85,-2.95 3.17,-4.83 1.52,-2.09 2.51,-3.33 2.99,-3.71 0.1,-0.09 0.1,-0.05 0.01,0.12 -0.48,0.94 -1.04,2.28 -1.66,4.01 -1.03,2.86 -1.74,5.58 -2.13,8.18 -0.39,2.59 -0.43,4.77 -0.11,6.54 0.28,1.44 0.71,2.86 2.11,3.77 1.46,0.94 2.74,1.26 3.77,1.27 0.98,0 3.08,-0.55 4.93,-2.11 0.31,-0.26 0.25,-0.39 -0.09,-0.18 -1.29,0.8 -2.7,1.36 -3.94,1.26 -1.08,-0.07 -2.07,-0.68 -2.28,-0.87 -1.41,-1.37 -1.57,-4.23 -1.59,-4.69 -0.07,-1.87 0.29,-4.25 1.18,-7.9 0.33,-1.35 2.25,-8.72 3.58,-11.35z"/>
  <path class="fil0" d="M118.97 62.35c0.82,-1.77 1.16,-2.75 1,-2.93 -0.09,-0.09 -0.28,-0.15 -0.57,-0.16 -0.29,-0.02 -0.5,0 -0.62,0.07 -0.18,0.09 -0.36,0.42 -0.55,1 -0.45,1.35 -1.12,2.84 -1.99,4.47 -0.87,1.63 -1.72,2.86 -2.54,3.68 -0.27,0.31 -0.58,0.58 -0.92,0.83 -0.33,0.24 -0.53,0.34 -0.59,0.27 -0.12,-0.12 0.46,-2.26 1.74,-6.41 0.61,-1.98 0.92,-3.31 0.92,-3.98 0.03,-0.73 -0.14,-1.28 -0.51,-1.65 -0.36,-0.37 -1.01,-0.64 -1.92,-0.82 -2.05,-0.4 -3.33,-0.68 -3.85,-0.83l-0.78 -0.23 -0.18 -0.55c-0.24,-0.88 -0.7,-1.33 -1.37,-1.33 -0.25,0 -0.48,0.06 -0.71,0.17 -0.23,0.1 -0.39,0.22 -0.48,0.34 -0.16,0.27 -0.15,0.59 0.02,0.96 0.17,0.37 0.45,0.64 0.85,0.82 0.21,0.1 0.32,0.28 0.32,0.55 -0.04,0.68 -0.32,1.91 -0.87,3.71 -0.19,0.61 -0.29,1 -0.3,1.15 -0.02,0.15 0.04,0.26 0.16,0.32 0.52,0.18 0.91,0.04 1.19,-0.41 0.15,-0.25 0.35,-0.74 0.59,-1.47 0.25,-0.73 0.43,-1.37 0.55,-1.92 0.1,-0.58 0.16,-0.91 0.19,-0.99 0.03,-0.07 0.65,0.03 1.87,0.3 0.92,0.21 1.5,0.37 1.74,0.48 0.25,0.11 0.37,0.25 0.37,0.44 0,0.12 -0.37,1.28 -1.1,3.48 -0.73,2.2 -1.21,3.73 -1.44,4.6 -0.23,0.87 -0.33,1.61 -0.3,2.22 0.03,0.82 0.25,1.42 0.64,1.79 0.4,0.36 0.99,0.55 1.79,0.55 2.47,0.06 5.02,-2.78 7.65,-8.52zm-2.57 -1.14c-0.88,2.02 -1.28,3.74 -1.19,5.17 0.15,2.26 1.15,3.47 2.98,3.62 0.94,0.06 1.78,-0.15 2.52,-0.64 0.39,-0.24 0.91,-0.67 1.55,-1.28 0.65,-0.61 1.1,-1.11 1.38,-1.49 0.27,-0.38 0.42,-0.57 0.46,-0.57 0.03,0 0.03,0.08 0.02,0.23 -0.02,0.15 -0.03,0.36 -0.05,0.64 -0.01,0.27 -0.01,0.56 0,0.87 0.02,0.3 0.06,0.62 0.14,0.94 0.08,0.32 0.18,0.59 0.3,0.8 0.21,0.46 0.65,0.75 1.33,0.89 0.67,0.14 1.34,0.09 2.01,-0.16 1.04,-0.39 2.13,-1.31 3.27,-2.75 1.15,-1.43 2.1,-2.91 2.87,-4.44 1,-1.98 1.51,-3.1 1.51,-3.34 0,-0.06 -0.13,-0.12 -0.39,-0.18 -0.26,-0.07 -0.47,-0.08 -0.62,-0.05 -0.18,0.03 -0.34,0.15 -0.48,0.34 -0.14,0.2 -0.37,0.67 -0.71,1.4 -1.25,2.87 -2.61,5.04 -4.08,6.5 -1.13,1.13 -1.86,1.7 -2.19,1.7 -0.1,0 -0.15,-0.14 -0.16,-0.42 -0.02,-0.27 0,-0.61 0.04,-1.03 0.05,-0.41 0.12,-0.8 0.21,-1.16 0.39,-1.8 1.01,-3.91 1.83,-6.32 0.73,-2.17 1.14,-3.53 1.24,-4.08 0.09,-0.55 -0.02,-0.9 -0.32,-1.05 -0.37,-0.18 -0.82,-0.24 -1.36,-0.16 -0.53,0.07 -0.89,0.25 -1.07,0.53 -0.12,0.15 -0.28,0.39 -0.46,0.73l-0.27 0.55 -0.28 -0.42c-0.3,-0.51 -0.63,-0.89 -0.98,-1.14 -0.35,-0.24 -0.8,-0.41 -1.35,-0.5 -0.86,-0.13 -1.62,-0.05 -2.27,0.23 -0.66,0.27 -1.44,0.79 -2.36,1.55 -1.16,0.98 -2.18,2.48 -3.07,4.49zm8.59 -4.42c0.44,0.6 0.72,1.14 0.85,1.63 0.06,0.36 -0.04,0.91 -0.28,1.65 -0.24,0.73 -0.44,1.37 -0.59,1.92 -0.25,0.91 -0.95,2.11 -2.11,3.57 -1.16,1.47 -2.15,2.44 -2.98,2.93 -0.61,0.37 -0.96,0.41 -1.05,0.14 -0.18,-0.76 -0.05,-2.01 0.39,-3.73 0.44,-1.73 1.06,-3.4 1.85,-5.02 0.52,-1.07 0.93,-1.81 1.22,-2.24 0.29,-0.43 0.6,-0.83 0.94,-1.19 0.33,-0.37 0.56,-0.55 0.68,-0.55 0.28,0 0.64,0.3 1.08,0.89z"/>
  <path class="fil0" d="M87.57 62.44c-0.89,2.01 -1.28,3.74 -1.19,5.17 0.15,2.26 1.14,3.47 2.97,3.62 0.95,0.06 1.79,-0.15 2.52,-0.64 0.4,-0.25 0.92,-0.67 1.56,-1.28 0.64,-0.61 1.1,-1.11 1.37,-1.49 0.28,-0.38 0.43,-0.57 0.46,-0.57 0.03,0 0.04,0.07 0.02,0.22 -0.01,0.16 -0.03,0.37 -0.04,0.65 -0.02,0.27 -0.02,0.56 0,0.87 0.01,0.3 0.06,0.61 0.14,0.93 0.07,0.33 0.17,0.59 0.29,0.81 0.22,0.45 0.66,0.75 1.33,0.89 0.67,0.14 1.34,0.08 2.02,-0.16 1.03,-0.4 2.13,-1.31 3.27,-2.75 1.15,-1.43 2.1,-2.91 2.86,-4.44 1.01,-1.99 1.51,-3.1 1.51,-3.34 0,-0.06 -0.13,-0.13 -0.39,-0.19 -0.26,-0.06 -0.46,-0.07 -0.61,-0.04 -0.19,0.03 -0.35,0.14 -0.48,0.34 -0.14,0.2 -0.38,0.66 -0.71,1.4 -1.26,2.87 -2.61,5.03 -4.08,6.5 -1.13,1.13 -1.86,1.69 -2.2,1.69 -0.09,0 -0.14,-0.13 -0.16,-0.41 -0.01,-0.27 0,-0.62 0.05,-1.03 0.04,-0.41 0.11,-0.8 0.2,-1.17 0.4,-1.8 1.01,-3.9 1.84,-6.32 0.73,-2.16 1.14,-3.52 1.23,-4.07 0.09,-0.55 -0.01,-0.9 -0.32,-1.05 -0.37,-0.19 -0.82,-0.24 -1.35,-0.16 -0.53,0.07 -0.89,0.25 -1.08,0.52 -0.12,0.15 -0.27,0.4 -0.45,0.73l-0.28 0.55 -0.27 -0.41c-0.31,-0.52 -0.64,-0.9 -0.99,-1.14 -0.35,-0.25 -0.8,-0.41 -1.35,-0.51 -0.85,-0.12 -1.61,-0.04 -2.27,0.23 -0.65,0.28 -1.44,0.8 -2.35,1.56 -1.16,0.98 -2.19,2.47 -3.07,4.49zm8.58 -4.42c0.45,0.59 0.73,1.14 0.85,1.62 0.06,0.37 -0.03,0.92 -0.27,1.65 -0.25,0.74 -0.45,1.38 -0.6,1.93 -0.24,0.91 -0.95,2.1 -2.11,3.57 -1.16,1.46 -2.15,2.44 -2.97,2.93 -0.61,0.36 -0.96,0.41 -1.06,0.14 -0.18,-0.77 -0.05,-2.01 0.39,-3.74 0.45,-1.72 1.06,-3.39 1.86,-5.01 0.52,-1.07 0.92,-1.82 1.21,-2.24 0.29,-0.43 0.6,-0.83 0.94,-1.2 0.34,-0.36 0.57,-0.55 0.69,-0.55 0.27,0 0.63,0.3 1.07,0.9z"/>
  <path class="fil0" d="M57.06 45.26c-4.71,-0.81 -9.37,-4.13 -10.9,-4.8l-1.64 -0.72 0.5 -0.38c0.64,-0.5 1.23,-1.28 1.78,-2.34 0.8,-1.52 1.59,-3.53 2.38,-6.05 0.42,-1.43 0.66,-2.19 0.71,-2.3 0.04,-0.12 0.34,-0.26 0.89,-0.45 1.88,-0.6 3.66,-1.66 5.36,-3.18 1.1,-0.95 2.05,-2.02 2.87,-3.21 0.82,-1.18 1.39,-2.31 1.69,-3.38 0.33,-1.18 0.3,-2.19 -0.08,-3.05 -0.39,-0.85 -1.07,-1.46 -2.06,-1.83 -0.5,-0.14 -1.07,-0.2 -1.72,-0.17 -0.66,0.04 -1.14,0.11 -1.45,0.24 -3.39,1.29 -6.1,5.13 -8.14,11.51 -0.41,1.27 -0.67,2.12 -0.77,2.55 -0.11,0.37 -0.22,0.59 -0.32,0.64 -0.1,0.06 -0.34,0.04 -0.74,-0.04 -1.34,-0.28 -2.56,-0.82 -3.66,-1.65 -1.09,-0.82 -1.92,-1.81 -2.49,-2.96 -0.18,-0.35 -0.34,-0.83 -0.48,-1.45 -0.14,-0.61 -0.17,-3.18 0.73,-4.58 0.61,-0.94 1.63,-1.91 3.36,-2.69 0.13,-0.06 0.83,-0.24 1.03,-0.26 1.66,-0.16 2.69,0.26 3.12,0.78 0.58,0.69 0.82,1.49 0.74,2.4 -0.03,0.25 -0.24,1.26 -0.69,1.67 -0.45,0.41 -0.37,0.26 -0.66,0.38 -0.28,0.11 -0.46,0.1 -0.55,-0.03 -0.1,-0.17 -0.25,-0.4 -0.55,-0.45 -0.29,-0.04 -0.49,0.13 -0.49,0.27 -0.15,0.53 0.86,1.02 1.94,0.87 1.09,-0.14 1.7,-1.02 1.81,-1.25 0.57,-1.21 0.61,-2.34 0.13,-3.39 -0.48,-1.05 -1.32,-1.76 -2.52,-2.12 -0.34,-0.11 -1.95,-0.61 -3.88,-0.01 -1.93,0.59 -4.46,2.46 -4.91,4.98 -0.45,2.51 -0.21,3.22 0.42,4.63 0.62,1.42 1.62,2.62 3,3.63 1.39,1 2.88,1.6 4.48,1.79 0.42,0.04 0.65,0.07 0.7,0.1 0.05,0.03 -0.1,0.64 -0.46,1.84 -0.36,1.2 -0.67,2.17 -0.96,2.92 -0.84,2.23 -1.51,3.72 -2,4.47 -0.21,0.34 -0.38,0.52 -0.53,0.55 -0.15,0.03 -0.56,-0.04 -1.23,-0.2 -1.13,-0.28 -3.05,-0.99 -5.24,-0.11 -0.46,0.16 -0.87,0.45 -1.21,0.85 -0.45,0.55 -0.67,1.1 -0.64,1.64 0.03,0.3 0.25,0.91 0.91,1.43 0.56,0.45 1.41,0.82 2.95,0.88 1.75,0.02 4.05,-1.55 4.49,-1.76 0.44,-0.2 0.73,-0.35 0.87,-0.44l1.74 0.84c1.13,0.56 2.11,1.06 2.93,1.49 1.62,0.86 3.13,1.56 4.54,2.1 1.45,0.55 2.79,0.93 4.02,1.14 1.88,0.22 3.16,0.1 4.03,-0.2 1.78,-0.63 1.87,-2.03 2.01,-2.86 -0.81,0.98 -2.03,2.28 -5.16,1.72zm-16.17 -5.22c-0.15,0.32 -0.79,0.78 -1.92,1.37 -2.02,1 -3.24,0.48 -3.55,-0.15 -0.1,-0.32 -0.03,-1.06 0.77,-1.55 0.58,-0.36 2.42,-0.65 4.1,-0.01 0.4,0.2 0.59,0.32 0.6,0.34zm9.27 -12.25c-0.01,-0.03 0.18,-0.67 0.56,-1.91 0.81,-2.6 1.69,-4.63 2.65,-6.11 1.11,-1.73 1.94,-2.93 2.49,-3.63 0.56,-0.69 1.08,-1.16 1.56,-1.4 0.29,-0.13 0.47,-0.21 0.56,-0.24 0.08,-0.03 0.2,-0.03 0.36,0.01 0.15,0.04 0.31,0.16 0.48,0.35 0.5,0.56 0.75,1.32 0.72,2.29 -0.02,0.9 -0.31,1.88 -0.86,2.96 -0.69,1.43 -1.66,2.77 -2.9,4.04 -1.24,1.26 -2.57,2.25 -3.99,2.97 -0.26,0.13 -0.51,0.26 -0.77,0.38 -0.26,0.12 -0.46,0.2 -0.62,0.25 -0.16,0.05 -0.24,0.06 -0.24,0.04z"/>
  <path class="fil0" d="M67.28 38.27c1.01,-1.38 1.83,-2.75 2.47,-4.13 0.89,-1.83 1.28,-2.8 1.19,-2.93 -0.09,-0.09 -0.24,-0.15 -0.46,-0.18 -0.21,-0.03 -0.41,-0.01 -0.59,0.05 -0.22,0.09 -0.52,0.58 -0.92,1.46 -1.28,2.84 -2.59,5.01 -3.94,6.5 -0.3,0.34 -0.75,0.75 -1.35,1.22 -0.59,0.47 -0.95,0.71 -1.07,0.71 -0.06,0 -0.11,-0.02 -0.14,-0.05 -0.49,-0.39 0.12,-3.16 1.83,-8.29 1.07,-3.23 1.57,-5 1.51,-5.31 -0.06,-0.24 -0.33,-0.42 -0.8,-0.53 -0.47,-0.1 -0.95,-0.09 -1.44,0.03 -0.4,0.12 -0.76,0.51 -1.08,1.17 -0.32,0.65 -0.83,2.03 -1.53,4.14 -0.46,1.28 -1.07,2.56 -1.83,3.82 -0.77,1.27 -1.54,2.3 -2.34,3.09 -0.43,0.43 -0.88,0.83 -1.37,1.19 -0.49,0.37 -0.78,0.52 -0.87,0.46 -0.06,-0.06 -0.08,-0.42 -0.05,-1.1 0.06,-1.37 0.66,-3.69 1.79,-6.96 1.04,-3.14 1.55,-4.93 1.55,-5.35 0,-0.28 -0.09,-0.47 -0.29,-0.58 -0.2,-0.1 -0.56,-0.16 -1.08,-0.16 -0.58,0 -0.98,0.07 -1.19,0.21 -0.21,0.14 -0.46,0.48 -0.73,1.03 -0.71,1.43 -1.37,3.3 -1.99,5.61 -0.63,2.3 -0.91,4.25 -0.85,5.84 0.03,0.7 0.15,1.22 0.36,1.55 0.31,0.55 0.81,0.89 1.52,1.01 0.7,0.12 1.43,0 2.19,-0.36 0.4,-0.22 0.9,-0.6 1.52,-1.15 0.61,-0.55 1.14,-1.11 1.6,-1.69 0.39,-0.49 0.61,-0.77 0.64,-0.83 0.03,-0.03 0.05,0.03 0.05,0.19 0,1.52 0.1,2.5 0.32,2.93 0.36,0.73 1,1.13 1.9,1.19 0.9,0.06 1.73,-0.19 2.49,-0.74 0.98,-0.67 1.97,-1.69 2.98,-3.06zm9.36 1.32c0.99,-0.76 1.78,-1.51 2.36,-2.24 0.7,-0.85 1.41,-1.88 2.11,-3.09 0.7,-1.21 1.08,-2.04 1.14,-2.5 0.06,-0.27 -0.01,-0.44 -0.23,-0.5 -0.39,-0.15 -0.7,-0.15 -0.91,0 -0.22,0.15 -0.43,0.5 -0.64,1.05 -0.43,1.13 -1.09,2.29 -1.97,3.48 -0.89,1.19 -1.82,2.16 -2.8,2.89 -1.46,1.13 -2.77,1.78 -3.93,1.97 -0.28,0.03 -0.51,-0.08 -0.69,-0.32 -0.34,-0.4 -0.55,-1.07 -0.64,-2.02 -0.16,-2.1 0.67,-4.91 2.47,-8.42 0.37,-0.74 0.75,-1.36 1.15,-1.86 0.39,-0.5 0.67,-0.74 0.82,-0.71 0.18,0.09 0.44,0.55 0.76,1.38 0.32,0.82 0.48,1.43 0.48,1.83 0,0.33 0.24,0.5 0.73,0.5 0.33,0 0.55,-0.07 0.64,-0.21 0.09,-0.13 0.14,-0.46 0.14,-0.98 0,-1.16 -0.25,-2.07 -0.74,-2.72 -0.48,-0.66 -1.23,-0.99 -2.24,-0.99 -0.95,0 -1.89,0.32 -2.84,0.96 -1.86,1.25 -3.34,3.25 -4.44,6 -0.34,0.89 -0.6,1.84 -0.78,2.86 -0.18,1.03 -0.23,1.83 -0.14,2.41 0.25,1.59 1.12,2.65 2.61,3.2 1.5,0.55 3.13,0.45 4.9,-0.32 0.8,-0.33 1.69,-0.88 2.68,-1.65zm4.17 -11.38c-0.32,0.69 -0.77,1.89 -1.35,3.6 -0.67,1.98 -1.11,3.83 -1.31,5.54 -0.19,1.71 -0.13,2.92 0.21,3.62 0.37,0.7 1.01,1.07 1.92,1.1 0.92,0.03 1.77,-0.25 2.57,-0.83 0.33,-0.21 0.77,-0.59 1.3,-1.14 0.54,-0.55 0.97,-1.07 1.31,-1.56 1.31,-1.74 2.49,-3.8 3.52,-6.18 0.22,-0.52 0.34,-0.83 0.37,-0.94 0.03,-0.11 0,-0.19 -0.09,-0.25 -0.15,-0.12 -0.32,-0.19 -0.5,-0.19 -0.34,0 -0.58,0.09 -0.71,0.26 -0.14,0.16 -0.38,0.63 -0.71,1.39 -1.74,3.97 -3.65,6.63 -5.73,7.97 -0.4,0.28 -0.63,0.37 -0.71,0.28 -0.08,-0.1 -0.1,-0.46 -0.07,-1.1 0.03,-0.67 0.35,-2.11 0.96,-4.31 0.1,-0.42 0.4,-1.37 0.92,-2.84 0.98,-2.96 1.47,-4.67 1.47,-5.13 0,-0.27 -0.11,-0.47 -0.32,-0.59 -0.28,-0.12 -0.64,-0.18 -1.08,-0.16 -0.44,0.01 -0.79,0.08 -1.03,0.2 -0.31,0.16 -0.62,0.58 -0.94,1.26zm4.92 4.61c-0.88,2.01 -1.28,3.74 -1.19,5.17 0.15,2.26 1.15,3.47 2.98,3.62 0.94,0.06 1.78,-0.15 2.52,-0.64 0.39,-0.25 0.91,-0.67 1.55,-1.28 0.65,-0.61 1.1,-1.11 1.38,-1.49 0.27,-0.38 0.43,-0.58 0.46,-0.58 0.03,0 0.03,0.08 0.02,0.23 -0.02,0.16 -0.03,0.37 -0.05,0.64 -0.01,0.28 -0.01,0.57 0,0.87 0.02,0.31 0.06,0.62 0.14,0.94 0.08,0.32 0.18,0.59 0.3,0.81 0.21,0.45 0.65,0.75 1.33,0.89 0.67,0.14 1.34,0.08 2.01,-0.16 1.04,-0.4 2.13,-1.31 3.28,-2.75 1.14,-1.43 2.09,-2.92 2.86,-4.44 1,-1.99 1.51,-3.1 1.51,-3.34 0,-0.07 -0.13,-0.13 -0.39,-0.19 -0.26,-0.06 -0.47,-0.07 -0.62,-0.04 -0.18,0.03 -0.34,0.14 -0.48,0.34 -0.14,0.2 -0.37,0.66 -0.71,1.4 -1.25,2.87 -2.61,5.03 -4.08,6.5 -1.12,1.13 -1.86,1.69 -2.19,1.69 -0.09,0 -0.15,-0.13 -0.16,-0.41 -0.02,-0.27 0,-0.62 0.04,-1.03 0.05,-0.41 0.12,-0.8 0.21,-1.17 0.39,-1.8 1.01,-3.9 1.83,-6.32 0.73,-2.16 1.15,-3.52 1.24,-4.07 0.09,-0.55 -0.02,-0.9 -0.32,-1.06 -0.37,-0.18 -0.82,-0.23 -1.35,-0.16 -0.54,0.08 -0.9,0.26 -1.08,0.53 -0.12,0.15 -0.28,0.4 -0.46,0.73l-0.27 0.55 -0.28 -0.41c-0.3,-0.52 -0.63,-0.9 -0.98,-1.14 -0.35,-0.25 -0.8,-0.42 -1.35,-0.51 -0.86,-0.12 -1.62,-0.04 -2.27,0.23 -0.66,0.28 -1.44,0.8 -2.36,1.56 -1.16,0.98 -2.18,2.47 -3.07,4.49zm8.59 -4.42c0.44,0.59 0.72,1.13 0.85,1.62 0.06,0.37 -0.03,0.92 -0.28,1.65 -0.24,0.73 -0.44,1.38 -0.59,1.92 -0.25,0.92 -0.95,2.11 -2.11,3.58 -1.16,1.46 -2.15,2.44 -2.98,2.93 -0.61,0.36 -0.96,0.41 -1.05,0.13 -0.18,-0.76 -0.05,-2 0.39,-3.73 0.44,-1.72 1.06,-3.39 1.85,-5.01 0.52,-1.07 0.93,-1.82 1.22,-2.25 0.29,-0.42 0.6,-0.82 0.94,-1.19 0.33,-0.36 0.56,-0.55 0.68,-0.55 0.28,0 0.64,0.3 1.08,0.9zm8.26 13.14c0.07,-0.01 0.17,-0.11 0.33,-0.3 0.18,-0.21 0.29,-0.49 0.32,-0.82 0.09,-0.76 0.4,-2.01 0.93,-3.73 0.54,-1.73 1,-3.02 1.4,-3.87 0.55,-1.13 1.3,-2.2 2.25,-3.21 0.94,-1.01 1.9,-1.77 2.88,-2.29 0.55,-0.27 0.93,-0.4 1.15,-0.39 0.21,0.02 0.36,0.18 0.45,0.48 0.12,0.34 0.12,0.83 0,1.47 -0.12,0.64 -0.38,1.57 -0.78,2.79 -0.91,2.84 -1.48,4.79 -1.69,5.84 -0.21,1.05 -0.2,1.83 0.05,2.31 0.36,0.83 1.17,1.24 2.42,1.24 1.01,-0.03 1.81,-0.22 2.41,-0.57 0.59,-0.35 1.3,-1.08 2.13,-2.18 1.06,-1.4 1.98,-3.23 2.74,-5.49 0.34,-0.98 0.48,-1.51 0.42,-1.61 -0.1,-0.09 -0.27,-0.14 -0.53,-0.16 -0.26,-0.01 -0.45,0.03 -0.57,0.12 -0.13,0.09 -0.32,0.53 -0.6,1.33 -1.04,2.93 -2.3,5.16 -3.8,6.68 -0.7,0.73 -1.3,1.07 -1.78,1.01 -0.68,-0.12 -0.52,-1.45 0.45,-3.98 1.19,-3.09 1.8,-5.52 1.83,-7.29 0.03,-1.83 -0.96,-2.74 -2.97,-2.74 -0.64,0 -1.28,0.13 -1.9,0.39 -0.63,0.26 -1.17,0.58 -1.63,0.96 -0.46,0.38 -0.88,0.75 -1.26,1.12 -0.38,0.37 -0.68,0.66 -0.89,0.89 -0.21,0.23 -0.34,0.33 -0.37,0.3 -0.03,-0.03 0.14,-0.56 0.51,-1.6 0.27,-0.89 0.42,-1.47 0.43,-1.74 0.02,-0.28 -0.08,-0.46 -0.3,-0.55 -0.33,-0.12 -0.79,-0.13 -1.37,-0.03 -0.58,0.11 -0.99,0.29 -1.24,0.53 -0.33,0.31 -0.85,1.44 -1.55,3.39 -1.29,3.51 -1.93,6.41 -1.93,8.7 0,1.62 0.49,2.58 1.47,2.89 0.33,0.09 0.53,0.13 0.59,0.11zm13.97 -8.72c-0.88,2.01 -1.28,3.74 -1.19,5.17 0.15,2.26 1.15,3.47 2.98,3.62 0.94,0.06 1.78,-0.15 2.52,-0.64 0.39,-0.25 0.91,-0.67 1.55,-1.28 0.64,-0.61 1.1,-1.11 1.38,-1.49 0.27,-0.38 0.42,-0.58 0.45,-0.58 0.03,0 0.04,0.08 0.03,0.23 -0.02,0.16 -0.03,0.37 -0.05,0.64 -0.01,0.28 -0.01,0.57 0,0.87 0.02,0.31 0.06,0.62 0.14,0.94 0.08,0.32 0.17,0.59 0.3,0.81 0.21,0.45 0.65,0.75 1.33,0.89 0.67,0.14 1.34,0.08 2.01,-0.16 1.04,-0.4 2.13,-1.31 3.27,-2.75 1.15,-1.43 2.1,-2.92 2.87,-4.44 1,-1.99 1.51,-3.1 1.51,-3.34 0,-0.07 -0.13,-0.13 -0.39,-0.19 -0.26,-0.06 -0.47,-0.07 -0.62,-0.04 -0.18,0.03 -0.34,0.14 -0.48,0.34 -0.14,0.2 -0.38,0.66 -0.71,1.4 -1.25,2.87 -2.61,5.03 -4.08,6.5 -1.13,1.13 -1.86,1.69 -2.19,1.69 -0.1,0 -0.15,-0.13 -0.16,-0.41 -0.02,-0.27 0,-0.62 0.04,-1.03 0.05,-0.41 0.12,-0.8 0.21,-1.17 0.39,-1.8 1,-3.9 1.83,-6.32 0.73,-2.16 1.14,-3.52 1.24,-4.07 0.09,-0.55 -0.02,-0.9 -0.32,-1.06 -0.37,-0.18 -0.82,-0.23 -1.36,-0.16 -0.53,0.08 -0.89,0.26 -1.07,0.53 -0.12,0.15 -0.28,0.4 -0.46,0.73l-0.28 0.55 -0.27 -0.41c-0.31,-0.52 -0.63,-0.9 -0.98,-1.14 -0.36,-0.25 -0.81,-0.42 -1.36,-0.51 -0.85,-0.12 -1.61,-0.04 -2.26,0.23 -0.66,0.28 -1.44,0.8 -2.36,1.56 -1.16,0.98 -2.18,2.47 -3.07,4.49zm8.59 -4.42c0.44,0.59 0.72,1.13 0.85,1.62 0.06,0.37 -0.04,0.92 -0.28,1.65 -0.24,0.73 -0.44,1.38 -0.6,1.92 -0.24,0.92 -0.94,2.11 -2.1,3.58 -1.16,1.46 -2.15,2.44 -2.98,2.93 -0.61,0.36 -0.96,0.41 -1.05,0.13 -0.18,-0.76 -0.06,-2 0.39,-3.73 0.44,-1.72 1.06,-3.39 1.85,-5.01 0.52,-1.07 0.93,-1.82 1.22,-2.25 0.29,-0.42 0.6,-0.82 0.93,-1.19 0.34,-0.36 0.57,-0.55 0.69,-0.55 0.28,0 0.64,0.3 1.08,0.9z"/>
  <path class="fil0" d="M83.57 25.91c1.03,0 1.86,-0.84 1.86,-1.87 0,-1.03 -0.83,-1.86 -1.86,-1.86 -1.03,0 -1.87,0.83 -1.87,1.86 0,1.03 0.84,1.87 1.87,1.87z"/>
  <path class="fil1" d="M54.41 81.61c-0.29,0.17 -0.61,0.26 -0.96,0.26 -0.42,0 -0.79,-0.12 -1.11,-0.37l3.19 -2.81c-0.2,-0.33 -0.49,-0.6 -0.87,-0.81 -0.38,-0.22 -0.78,-0.33 -1.21,-0.33 -0.67,0 -1.25,0.25 -1.74,0.73 -0.49,0.48 -0.73,1.06 -0.73,1.75 0,0.67 0.24,1.25 0.73,1.74 0.49,0.49 1.07,0.73 1.74,0.73 0.47,0 0.89,-0.12 1.28,-0.36 0.39,-0.24 0.69,-0.56 0.9,-0.95l-0.55 -0.3c-0.16,0.3 -0.39,0.54 -0.67,0.72zm-2.8 -1.58c0,-0.52 0.18,-0.96 0.53,-1.31 0.36,-0.36 0.79,-0.54 1.31,-0.54 0.46,0 0.86,0.15 1.2,0.45l-2.73 2.43c-0.21,-0.32 -0.31,-0.66 -0.31,-1.03zm5.02 1.63c0.14,0.25 0.32,0.44 0.55,0.58 0.23,0.14 0.48,0.21 0.76,0.21 0.27,0 0.52,-0.06 0.74,-0.19 0.22,-0.13 0.4,-0.31 0.53,-0.53 0.13,-0.22 0.19,-0.47 0.19,-0.74 0,-0.34 -0.09,-0.63 -0.29,-0.89 -0.19,-0.26 -0.45,-0.44 -0.76,-0.52l-0.55 -0.16c-0.3,-0.08 -0.45,-0.28 -0.45,-0.58 0,-0.16 0.06,-0.3 0.18,-0.43 0.11,-0.12 0.26,-0.18 0.43,-0.18 0.28,0 0.47,0.12 0.56,0.37l0.57 -0.24c-0.09,-0.23 -0.24,-0.42 -0.45,-0.55 -0.21,-0.14 -0.43,-0.21 -0.68,-0.21 -0.34,0 -0.63,0.12 -0.87,0.36 -0.24,0.24 -0.37,0.53 -0.37,0.88 0,0.27 0.09,0.52 0.26,0.74 0.16,0.21 0.39,0.36 0.66,0.45l0.55 0.16c0.17,0.04 0.31,0.14 0.42,0.29 0.11,0.15 0.16,0.32 0.16,0.51 0,0.24 -0.08,0.43 -0.24,0.59 -0.16,0.16 -0.36,0.24 -0.59,0.24 -0.35,0 -0.6,-0.15 -0.76,-0.45l-0.55 0.29zm4.62 0.7l0.63 0 0 -4.05 0.83 0 0 -0.63 -0.83 0 0 -1.62 -0.63 0.3 0 1.32 -0.85 0 0 0.63 0.85 0 0 4.05zm5.73 -4.68l0 2.94c0,0.33 -0.12,0.62 -0.35,0.87 -0.23,0.24 -0.53,0.37 -0.89,0.37 -0.32,0 -0.61,-0.12 -0.86,-0.36 -0.25,-0.24 -0.37,-0.53 -0.37,-0.88l0 -2.94 -0.63 0 0 2.94c0,0.53 0.18,0.97 0.54,1.33 0.35,0.36 0.8,0.54 1.32,0.54 0.53,0 0.97,-0.19 1.33,-0.56l0.54 0.43 0 -4.68 -0.63 0zm-2.64 -0.67l2.86 -1.26 -0.35 -0.64 -2.66 1.63 0.15 0.27zm5.17 1.27c-0.49,0.48 -0.73,1.06 -0.73,1.75 0,0.67 0.24,1.25 0.73,1.74 0.49,0.49 1.07,0.73 1.74,0.73 0.69,0 1.29,-0.26 1.79,-0.77l0.68 0.63 0 -7.78 -0.63 0 0 3.8c-0.49,-0.55 -1.11,-0.83 -1.84,-0.83 -0.67,0 -1.25,0.25 -1.74,0.73zm3.04 0.44c0.36,0.36 0.54,0.8 0.54,1.31 0,0.51 -0.18,0.94 -0.54,1.3 -0.35,0.36 -0.79,0.54 -1.3,0.54 -0.52,0 -0.96,-0.18 -1.31,-0.53 -0.36,-0.36 -0.53,-0.79 -0.53,-1.31 0,-0.52 0.17,-0.96 0.53,-1.31 0.35,-0.36 0.79,-0.54 1.31,-0.54 0.51,0 0.95,0.18 1.3,0.54zm2.51 3.64l0.63 0 0 -4.68 -0.63 0 0 4.68zm0 -5.82l0.63 0 0 -0.69 -0.63 0 0 0.69zm2.53 1.74c-0.49,0.48 -0.73,1.06 -0.73,1.75 0,0.67 0.24,1.25 0.73,1.74 0.49,0.49 1.07,0.73 1.74,0.73 0.69,0 1.27,-0.24 1.75,-0.73 0.48,-0.49 0.72,-1.07 0.72,-1.74 0,-0.69 -0.24,-1.27 -0.72,-1.75 -0.48,-0.48 -1.06,-0.73 -1.75,-0.73 -0.67,0 -1.25,0.25 -1.74,0.73zm3.05 0.44c0.35,0.36 0.53,0.8 0.53,1.31 0,0.51 -0.18,0.94 -0.53,1.3 -0.36,0.36 -0.8,0.54 -1.31,0.54 -0.52,0 -0.96,-0.18 -1.31,-0.53 -0.36,-0.36 -0.53,-0.79 -0.53,-1.31 0,-0.52 0.17,-0.96 0.53,-1.31 0.35,-0.36 0.79,-0.54 1.31,-0.54 0.51,0 0.95,0.18 1.31,0.54zm6.7 -0.44c-0.49,0.48 -0.74,1.06 -0.74,1.75 0,0.67 0.25,1.25 0.74,1.74 0.48,0.49 1.06,0.73 1.74,0.73 0.69,0 1.29,-0.26 1.78,-0.77l0.69 0.63 0 -7.78 -0.63 0 0 3.8c-0.5,-0.55 -1.11,-0.83 -1.84,-0.83 -0.68,0 -1.26,0.25 -1.74,0.73zm3.04 0.44c0.36,0.36 0.54,0.8 0.54,1.31 0,0.51 -0.18,0.94 -0.54,1.3 -0.36,0.36 -0.79,0.54 -1.3,0.54 -0.52,0 -0.96,-0.18 -1.31,-0.53 -0.36,-0.36 -0.54,-0.79 -0.54,-1.31 0,-0.52 0.18,-0.96 0.54,-1.31 0.35,-0.36 0.79,-0.54 1.31,-0.54 0.51,0 0.94,0.18 1.3,0.54zm5.76 2.89c-0.28,0.17 -0.6,0.26 -0.95,0.26 -0.42,0 -0.79,-0.12 -1.11,-0.37l3.19 -2.81c-0.2,-0.33 -0.5,-0.6 -0.87,-0.81 -0.38,-0.22 -0.78,-0.33 -1.21,-0.33 -0.67,0 -1.25,0.25 -1.74,0.73 -0.49,0.48 -0.73,1.06 -0.73,1.75 0,0.67 0.24,1.25 0.73,1.74 0.49,0.49 1.07,0.73 1.74,0.73 0.46,0 0.89,-0.12 1.28,-0.36 0.39,-0.24 0.69,-0.56 0.89,-0.95l-0.55 -0.3c-0.16,0.3 -0.38,0.54 -0.67,0.72zm-2.79 -1.58c0,-0.52 0.17,-0.96 0.53,-1.31 0.35,-0.36 0.79,-0.54 1.31,-0.54 0.46,0 0.86,0.15 1.2,0.45l-2.74 2.43c-0.2,-0.32 -0.3,-0.66 -0.3,-1.03zm12.36 -2.25c-0.32,-0.15 -0.67,-0.23 -1.06,-0.23 -0.67,0 -1.25,0.25 -1.74,0.73 -0.49,0.48 -0.73,1.06 -0.73,1.75 0,0.67 0.24,1.25 0.73,1.74 0.49,0.49 1.07,0.73 1.74,0.73 0.37,0 0.72,-0.07 1.04,-0.22 0.32,-0.15 0.6,-0.36 0.84,-0.64l-0.51 -0.39c-0.36,0.41 -0.81,0.62 -1.37,0.62 -0.52,0 -0.96,-0.18 -1.31,-0.53 -0.36,-0.36 -0.53,-0.79 -0.53,-1.31 0,-0.52 0.17,-0.96 0.53,-1.31 0.35,-0.36 0.79,-0.54 1.31,-0.54 0.56,0 1.03,0.22 1.41,0.66l0.49 -0.39c-0.24,-0.29 -0.52,-0.51 -0.84,-0.67zm2.57 0.5c-0.49,0.48 -0.74,1.06 -0.74,1.75 0,0.67 0.25,1.25 0.74,1.74 0.48,0.49 1.07,0.73 1.74,0.73 0.68,0 1.27,-0.24 1.75,-0.73 0.48,-0.49 0.72,-1.07 0.72,-1.74 0,-0.69 -0.24,-1.27 -0.72,-1.75 -0.48,-0.48 -1.07,-0.73 -1.75,-0.73 -0.67,0 -1.26,0.25 -1.74,0.73zm3.04 0.44c0.36,0.36 0.54,0.8 0.54,1.31 0,0.51 -0.18,0.94 -0.54,1.3 -0.36,0.36 -0.79,0.54 -1.3,0.54 -0.52,0 -0.96,-0.18 -1.31,-0.53 -0.36,-0.36 -0.54,-0.79 -0.54,-1.31 0,-0.52 0.18,-0.96 0.54,-1.31 0.35,-0.36 0.79,-0.54 1.31,-0.54 0.51,0 0.94,0.18 1.3,0.54zm2.16 2.94c0.14,0.25 0.33,0.44 0.55,0.58 0.23,0.14 0.48,0.21 0.76,0.21 0.27,0 0.52,-0.06 0.74,-0.19 0.22,-0.13 0.4,-0.31 0.53,-0.53 0.13,-0.22 0.19,-0.47 0.19,-0.74 0,-0.34 -0.09,-0.63 -0.29,-0.89 -0.19,-0.26 -0.45,-0.44 -0.76,-0.52l-0.55 -0.16c-0.3,-0.08 -0.44,-0.28 -0.44,-0.58 0,-0.16 0.05,-0.3 0.17,-0.43 0.11,-0.12 0.26,-0.18 0.43,-0.18 0.28,0 0.47,0.12 0.56,0.37l0.58 -0.24c-0.1,-0.23 -0.25,-0.42 -0.46,-0.55 -0.21,-0.14 -0.43,-0.21 -0.68,-0.21 -0.34,0 -0.63,0.12 -0.87,0.36 -0.24,0.24 -0.36,0.53 -0.36,0.88 0,0.27 0.08,0.52 0.25,0.74 0.17,0.21 0.39,0.36 0.66,0.45l0.55 0.16c0.17,0.04 0.31,0.14 0.42,0.29 0.11,0.15 0.17,0.32 0.17,0.51 0,0.24 -0.08,0.43 -0.25,0.59 -0.16,0.16 -0.35,0.24 -0.59,0.24 -0.35,0 -0.6,-0.15 -0.76,-0.45l-0.55 0.29zm4.62 0.7l0.63 0 0 -4.05 0.83 0 0 -0.63 -0.83 0 0 -1.62 -0.63 0.3 0 1.32 -0.85 0 0 0.63 0.85 0 0 4.05zm5.73 -4.68l0 2.94c0,0.33 -0.11,0.62 -0.35,0.87 -0.23,0.24 -0.53,0.37 -0.88,0.37 -0.33,0 -0.62,-0.12 -0.87,-0.36 -0.25,-0.24 -0.37,-0.53 -0.37,-0.88l0 -2.94 -0.63 0 0 2.94c0,0.53 0.18,0.97 0.54,1.33 0.36,0.36 0.8,0.54 1.33,0.54 0.52,0 0.96,-0.19 1.32,-0.56l0.54 0.43 0 -4.68 -0.63 0zm3.8 -0.13c-0.52,0 -0.95,0.19 -1.3,0.55l-0.53 -0.42 0 4.68 0.63 0 0 -2.97c0,-0.33 0.11,-0.61 0.34,-0.85 0.22,-0.24 0.51,-0.36 0.86,-0.36 0.13,0 0.24,0.02 0.33,0.05l0.29 -0.56c-0.18,-0.08 -0.39,-0.12 -0.62,-0.12zm6.56 4.81l0 -4.68 -0.69 0.64c-0.49,-0.51 -1.09,-0.77 -1.78,-0.77 -0.67,0 -1.25,0.25 -1.74,0.73 -0.49,0.48 -0.73,1.06 -0.73,1.75 0,0.67 0.24,1.25 0.73,1.74 0.49,0.49 1.07,0.73 1.74,0.73 0.69,0 1.29,-0.26 1.78,-0.77l0.69 0.63zm-1.17 -3.64c0.36,0.36 0.54,0.8 0.54,1.31 0,0.51 -0.18,0.94 -0.54,1.3 -0.36,0.36 -0.79,0.54 -1.3,0.54 -0.52,0 -0.96,-0.18 -1.31,-0.53 -0.36,-0.36 -0.53,-0.79 -0.53,-1.31 0,-0.52 0.17,-0.96 0.53,-1.31 0.35,-0.36 0.79,-0.54 1.31,-0.54 0.51,0 0.94,0.18 1.3,0.54z"/>
  <path class="fil1" d="M10.34 79.06c-0.14,0.32 -0.11,0.64 0.07,0.89 0.27,0.35 0.8,0.49 1.58,0.39 1.92,-0.23 3.84,-0.02 5.69,0.18 1.23,0.13 2.47,0.26 3.72,0.26 0.98,0 1.99,-0.04 2.99,-0.23 0.58,-0.12 2.56,-0.57 3.32,-1.39 0.26,-0.29 0.48,-0.61 0.65,-1.03 0.19,-0.45 0.25,-1.91 0.02,-1.73 -0.18,0.15 -1.58,0.93 -3.55,1.47 -1.75,0.48 -3.94,0.77 -6.11,0.25 -0.38,-0.06 -0.76,-0.11 -1.12,-0.16 -2.07,-0.28 -3.72,-0.31 -5.34,-0.12 -0.87,0.1 -1.66,0.61 -1.92,1.22zm10.72 -2.28c0.05,-0.2 -0.02,-1.3 -0.02,-1.3l-0.03 -4.45c0,-0.13 -0.05,-0.53 -0.75,-0.54 -0.55,0.01 -1.43,0.24 -1.43,0.85l0.04 5.57c0,0.19 0.1,0.37 0.26,0.46 0.11,0.07 0.25,0.09 0.4,0.09 0.51,0 0.85,-0.18 1.15,-0.29 0.3,-0.1 0.36,-0.33 0.38,-0.39zm-20.36 -24.93c-0.62,2.05 -0.83,3.91 -0.62,5.55 0.18,1.38 0.62,2.24 0.85,2.7 0.03,0.07 0.06,0.12 0.08,0.17 1.56,3.37 4.55,6.17 8.2,7.69 2.51,1.05 5.34,1.57 8.38,1.57 2.32,0 4.77,-0.3 7.3,-0.92 2.46,-0.6 5,-1.46 7.98,-2.73 0.93,-0.39 1.86,-0.83 2.77,-1.24 2.53,-1.17 5.14,-2.11 7.89,-2.64 2.75,-0.52 6.58,-0.15 9.34,0.91 0.12,0.04 0.52,0.22 0.68,0.12l1.35 -1.07c0.17,-0.33 -0.01,-0.66 -0.16,-0.71 -1.21,-0.45 -3.91,-0.8 -5.18,-0.99 -5.23,-0.74 -10.01,1.16 -14.85,3.35 -6.44,2.92 -13.94,5.86 -21.56,3.9 -2.5,-0.65 -4.8,-1.86 -6.66,-3.5 -1.46,-1.29 -3.46,-3.3 -3.93,-5.84 -0.75,-4.1 0.22,-5.78 0.74,-6.69 0.05,-0.08 0.1,-0.16 0.14,-0.23 0.98,-1.8 2.21,-3.11 3.98,-4.04 0.18,-0.33 0.4,-0.94 0.47,-1.39 0.02,-0.08 0.01,-0.25 -0.13,-0.32 -0.12,-0.06 -0.35,-0.04 -0.44,0.01 -3.41,1.54 -5.89,3.91 -6.62,6.34zm14.28 -50.24c-0.04,-0.29 -0.23,-0.53 -0.51,-0.64 -0.38,-0.15 -0.91,-0.06 -1.27,0.23 -0.3,0.23 -0.44,0.55 -0.39,0.89 0.43,2.99 -0.64,5.84 -2.86,7.61 -0.85,0.69 -1.83,1.16 -2.86,1.67 -1.18,0.57 -2.4,1.17 -3.42,2.1 -3.19,2.91 -2.68,7.54 -1.15,10.91 0.81,1.79 1.87,3.41 2.88,4.97 1.83,2.81 3.56,5.47 3.94,8.97 0.21,1.96 0.12,3.88 -0.24,5.7l0.03 0.02c0,0 -0.49,2.89 -1.74,4.78 0,0.01 -0.03,0.03 -0.07,0.06 -0.97,1.74 -2.25,3.26 -3.81,4.42 -0.4,0.3 -0.43,0.63 -0.41,0.79 0.03,0.29 0.24,0.54 0.55,0.67 0.17,0.07 0.35,0.11 0.53,0.11 0.26,0 0.52,-0.08 0.73,-0.23 3.81,-2.85 6.17,-7.34 6.64,-12.67 0.55,-6.15 -2.05,-10.62 -4.99,-15.03 -1.59,-2.38 -3.06,-4.99 -3.06,-7.9 0,-3.68 2.72,-5.1 5.6,-6.6 4.33,-2.27 6.52,-6.31 5.88,-10.83zm-1.61 36.71l0 0.01c0,0 0,0 0,0l0 -0.01c0,0 0,0 0,0zm6.08 -18.81c0.58,6.37 0.78,12.77 0.6,19.16 -2.17,0.13 -4.35,-0.06 -6.53,-0.57 -0.17,-0.04 -0.33,0.04 -0.42,0.14 -0.09,0.09 -0.12,0.21 -0.08,0.31 0.02,0.07 0.07,0.18 0.25,0.22 1.82,0.42 3.64,0.64 5.46,0.64 0.44,0 0.87,-0.02 1.31,-0.04 -0.17,5.19 -0.6,10.39 -1.27,15.57 -0.02,0.14 0.07,0.3 0.27,0.33 0.02,0 0.04,0.01 0.06,0.01 0.19,0 0.42,-0.11 0.45,-0.32 0.68,-5.21 1.11,-10.43 1.28,-15.65 1.77,-0.16 3.53,-0.52 5.28,-1.08 0.22,-0.08 0.29,-0.27 0.24,-0.42 -0.06,-0.2 -0.29,-0.3 -0.49,-0.23 -1.66,0.53 -3.34,0.88 -5.02,1.03 0.18,-6.38 -0.02,-12.76 -0.6,-19.12 4.12,-0.12 8.22,-0.88 12.15,-2.28 0.14,-0.06 0.22,-0.14 0.24,-0.25 0.02,-0.09 -0.02,-0.19 -0.09,-0.25 -0.1,-0.09 -0.28,-0.11 -0.42,-0.06 -3.86,1.38 -7.89,2.12 -11.93,2.23 -0.44,-4.57 -1.06,-9.12 -1.88,-13.66 -0.03,-0.14 -0.17,-0.28 -0.43,-0.23 -0.24,0.04 -0.39,0.21 -0.35,0.4l0 0c0.81,4.49 1.43,8.99 1.86,13.5 -4.61,0.04 -9.22,-0.75 -13.6,-2.35 -0.16,-0.06 -0.52,0.03 -0.59,0.23 -0.05,0.11 0,0.26 0.16,0.32l0 0c4.4,1.62 9.03,2.43 13.67,2.43 0.14,0 0.28,-0.01 0.42,-0.01zm15.18 3.17c1.11,-3.52 1.03,-8.16 -2.56,-10.59 -1.06,-0.72 -2.24,-1.15 -3.38,-1.57 -1.16,-0.42 -2.26,-0.82 -3.23,-1.49 -2.14,-1.47 -3.42,-3.93 -3.48,-6.67 0.1,-0.63 0.16,-1.37 -0.52,-1.93 -0.4,-0.33 -0.81,-0.43 -1.21,-0.43l-0.03 0c-0.23,0 -0.46,0.03 -0.68,0.06 -0.24,0.03 -2.58,0.14 -3.38,0.31 -0.12,0.03 -0.22,0.05 -0.29,0.08 -0.02,0.05 0.04,0.15 0.15,0.27 0.39,0.44 1.98,0.98 3.77,1.09 0,0.01 0,0.03 0,0.05 -0.18,4.71 2.49,8.35 7.52,10.26 2.77,1.04 5.1,2.16 5.66,5.29 0.52,2.97 -0.7,5.87 -1.81,8.07 -0.3,0.59 -0.62,1.18 -0.93,1.76 -0.94,1.76 -1.92,3.58 -2.5,5.55 -0.8,2.66 -0.9,5.72 -0.3,8.84 0.99,5.12 3.84,9.41 7.83,11.77 0.16,0.1 0.35,0.14 0.53,0.14 0.49,0 1,-0.28 1.22,-0.63 0.22,-0.38 0.1,-0.79 -0.3,-1.03 -4.1,-2.42 -6.78,-6.95 -7.37,-12.42 -0.35,-3.27 0.27,-6.46 1.9,-9.73 0.34,-0.68 0.71,-1.37 1.07,-2.03 0.86,-1.59 1.76,-3.24 2.32,-5.02zm0.77 13.53c1.4,-2.12 4.3,-7.85 4.4,-8.09 0,0 0.12,-0.14 0.06,-0.32 -0.04,-0.12 -0.18,-0.19 -0.46,-0.41l-0.39 -0.31c-0.1,-0.09 -0.24,-0.12 -0.37,-0.08 -0.13,0.03 -0.23,0.12 -0.29,0.24 -1.15,2.68 -5.14,10.08 -7.99,12.81 -0.08,0.07 0.29,1.65 0.37,1.57 1.59,-1.54 3.37,-3.43 4.67,-5.41zm27.3 -26.7c0.1,-0.14 0.09,-0.34 -0.01,-0.48 -0.01,-0.01 -0.97,-1.35 -1.6,-2.95 -0.1,-0.26 -0.23,-0.72 -0.37,-1.2 -0.48,-1.73 -0.84,-2.9 -1.44,-3.24 -1.78,-1.43 -4.23,-0.84 -5.92,-0.27 -5.47,1.84 -10.63,5.42 -14.52,10.08 -0.99,1.19 -1.86,2.49 -2.95,4.38 0.08,0.1 0.53,1.97 0.56,1.97 0.14,0 0.28,-0.07 0.36,-0.21 2.2,-3.72 4.44,-6.48 7.04,-8.67 2.32,-1.95 4.89,-3.55 7.64,-4.74 1.27,-0.55 2.58,-1.13 3.92,-1.28 0.63,-0.07 2.71,-0.23 2.89,0.69 1.01,5.4 3.84,6.08 3.96,6.11 0.17,0.03 0.35,-0.04 0.44,-0.19zm0.07 1.6c-0.15,-0.69 -1.02,-0.92 -1.47,-0.99 -4.45,-0.68 -9.64,0.39 -13.4,2.87 -0.1,0.07 -0.17,0.18 -0.18,0.3 -0.02,0.12 0.01,0.24 0.09,0.33l0.47 0.56c0.08,0.09 0.2,0.15 0.33,0.15 0.07,0 0.14,-0.02 0.21,-0.06 2.06,-1.19 4.93,-2.18 7.7,-2.73 2.18,-0.43 4.66,-0.64 6.25,-0.43zm3.81 48.21c-0.31,-2.26 -2.41,-3.5 -3.97,-4.24 -3.55,-1.68 -7.56,-2.68 -11.64,-2.77 -5.52,-0.12 -11.62,1.85 -12.54,2.14 -1.79,0.57 -3.64,1.24 -5.53,1.93 -9.34,3.41 -19,6.94 -25.89,-0.72 -0.24,-0.27 -0.63,-0.36 -1.07,-0.27 -0.37,0.08 -0.81,0.3 -0.94,0.7 -0.08,0.25 -0.02,0.5 0.16,0.71 6.98,7.76 17.98,4.98 26.77,1.68 2.28,-0.85 4.48,-1.66 6.6,-2.32 0.93,-0.28 -0.35,0.08 2.76,-0.76 3.11,-0.84 7.53,-1.4 9.72,-1.28 2.9,0.15 5.75,0.74 8.46,1.74 1.24,0.46 2.54,0.94 3.57,1.74 0.49,0.38 2.06,1.68 1.58,2.47 -0.94,1.94 -1.06,2.51 -1.2,3.62 -0.02,0.11 -0.03,0.18 0.06,0.37 0.09,0.2 0.4,0.44 0.68,0.5 0.21,0.05 0.43,0.02 0.63,-0.06 0.06,-0.03 0.19,-0.13 0.29,-0.37 0.04,-0.1 0.08,-0.22 0.13,-0.34 0.1,-0.26 1.56,-3.82 1.37,-4.47z"/>
 </g>
</svg>
