<?xml version="1.0" encoding="UTF-8"?>
<!DOCTYPE svg PUBLIC "-//W3C//DTD SVG 1.1//EN" "http://www.w3.org/Graphics/SVG/1.1/DTD/svg11.dtd">
<!-- Creator: CorelDRAW 2018 (64 Bit Versão de avaliação) -->
<svg xmlns="http://www.w3.org/2000/svg" xml:space="preserve" width="248px" height="75px" version="1.1" style="shape-rendering:geometricPrecision; text-rendering:geometricPrecision; image-rendering:optimizeQuality; fill-rule:evenodd; clip-rule:evenodd"
viewBox="0 0 1442.15 436.37"
 xmlns:xlink="http://www.w3.org/1999/xlink">
 <defs>
  <style type="text/css">
   <![CDATA[
    .fil1 {fill:#FEFEFE;fill-rule:nonzero}
    .fil0 {fill:#C95C6E;fill-rule:nonzero}
   ]]>
  </style>
 </defs>
 <g id="Camada_x0020_1">
  <metadata id="CorelCorpID_0Corel-Layer"/>
  <path class="fil0" d="M531.09 159.15c7.58,0 13.73,-6.14 13.73,-13.72 0,-7.58 -6.15,-13.72 -13.73,-13.72 -7.57,0 -13.72,6.14 -13.72,13.72 0,7.58 6.15,13.72 13.72,13.72z"/>
  <path class="fil0" d="M1139.85 101.22c8.68,-25.82 -12.75,-11.06 -16.68,-6.96 -3.94,4.11 -6.72,7.19 -8.35,9.24 -2.97,3.52 -39.08,49.55 -38.89,49.52l-19.59 31.26c-4.04,6.97 -6.12,10.65 -6.26,11.03l-0.28 0.04 2.25 -13.26c1.37,-6.98 6.04,-26.2 8.85,-32.61 5.14,-14.46 13.7,-32.6 25.68,-54.4 2.58,-4.09 4.18,-7.38 5.12,-10.02 2.97,-8.37 -8.73,-10.41 -17.84,-4.21 -9.8,6.66 -18.59,13.67 -30.95,29.63 -12.37,15.98 -24.62,37.17 -36.75,63.59 0,0 -6.64,15.04 -10.28,22.86 -3.63,7.84 -6.75,14.13 -9.36,18.89 -18.41,34.05 -39.82,43.89 -56.91,43.77 -10.94,-0.07 -40.24,-18.96 -21.06,-48.12 4.22,-4.05 8.85,-6.5 13.88,-7.35 5.19,-1.05 10.01,-0.63 14.45,1.27 4.43,1.9 8.03,4.6 10.77,8.09 1.84,2.34 3.69,3.38 5.56,3.14 2.43,-0.32 3.26,-1.26 2.48,-2.81 -1.93,-4.53 -6.02,-8.12 -12.27,-10.8 -6.26,-2.66 -12.94,-3.53 -20.05,-2.6 -10.67,1.41 -19.36,6.23 -26.08,14.47 -7.37,9.06 -18.88,38.53 14.59,54.05 26.36,8.38 50.3,-5.05 67.19,-25.11 7.18,-10.5 15.54,-25.85 25.07,-46.05l3.12 -6.7 -0.11 -0.31c0,0 14.03,-29.98 17.71,-37.36 9.2,-18.31 18.89,-33.65 29.06,-46.02 2.61,-3.28 5.47,-6.56 8.57,-9.82 3.09,-3.25 4.83,-4.91 5.2,-4.96l-0.91 1.78c-7.12,11.05 -13.86,23.47 -20.23,37.28 -6.37,13.8 -10.99,26.4 -13.87,37.81 -0.23,1.13 -2.74,13.88 -3.22,18.91 -0.92,7.47 -1.24,14.77 -0.97,21.91 0.27,7.14 1,11.55 2.17,13.23 1.41,2.02 4.36,2.74 8.85,2.15 3.74,-0.5 6.22,-1.93 7.43,-4.29 0.79,-1.22 2.89,-5.53 6.29,-12.97 6.55,-13.91 12.54,-25.5 17.99,-34.77 5.44,-9.27 12.73,-20.38 21.88,-33.36 10.48,-14.43 17.35,-22.97 20.62,-25.6 0.67,-0.65 0.71,-0.37 0.1,0.81 -3.33,6.51 -7.15,15.74 -11.48,27.71 -7.12,19.69 -12.02,38.5 -14.71,56.41 -2.69,17.92 -2.94,32.98 -0.76,45.19 1.92,9.91 4.88,19.74 14.58,25.99 10.07,6.48 18.89,8.75 26.02,8.77 6.81,0.01 21.3,-3.75 34.03,-14.53 2.13,-1.81 1.74,-2.73 -0.57,-1.29 -8.95,5.54 -18.69,9.39 -27.26,8.76 -7.47,-0.55 -14.29,-4.71 -15.69,-6.07 -9.73,-9.46 -10.85,-29.19 -10.98,-32.34 -0.52,-12.93 2,-29.33 8.12,-54.51 2.26,-9.33 15.53,-60.25 24.73,-78.36z"/>
  <path class="fil0" d="M1331.79 210.82c5.51,-11.82 7.74,-18.35 6.73,-19.57 -0.61,-0.61 -1.89,-0.97 -3.82,-1.07 -1.94,-0.09 -3.32,0.05 -4.13,0.46 -1.22,0.61 -2.44,2.86 -3.67,6.73 -3.06,8.97 -7.49,18.91 -13.3,29.81 -5.8,10.9 -11.46,19.1 -16.96,24.6 -1.83,2.04 -3.88,3.87 -6.11,5.5 -2.25,1.64 -3.57,2.25 -3.98,1.84 -0.82,-0.81 3.06,-15.08 11.62,-42.8 4.07,-13.24 6.11,-22.11 6.11,-26.59 0.21,-4.9 -0.92,-8.57 -3.36,-11.01 -2.45,-2.45 -6.73,-4.28 -12.84,-5.5 -13.66,-2.65 -22.22,-4.48 -25.68,-5.51l-5.2 -1.52 -1.22 -3.67c-1.63,-5.92 -4.69,-8.87 -9.17,-8.87 -1.64,0 -3.21,0.36 -4.74,1.07 -1.53,0.72 -2.6,1.48 -3.21,2.3 -1.02,1.83 -0.97,3.97 0.15,6.41 1.12,2.45 3.01,4.28 5.66,5.5 1.42,0.62 2.14,1.84 2.14,3.67 -0.21,4.49 -2.14,12.74 -5.81,24.77 -1.23,4.08 -1.88,6.63 -1.99,7.64 -0.1,1.02 0.26,1.73 1.07,2.14 3.47,1.22 6.12,0.3 7.95,-2.75 1.02,-1.63 2.34,-4.89 3.98,-9.79 1.62,-4.88 2.85,-9.16 3.66,-12.83 0.61,-3.87 1.02,-6.06 1.23,-6.58 0.19,-0.5 4.38,0.16 12.53,1.99 6.12,1.43 9.98,2.5 11.62,3.21 1.63,0.72 2.44,1.68 2.44,2.91 0,0.81 -2.44,8.55 -7.34,23.23 -4.89,14.67 -8.09,24.91 -9.62,30.72 -1.53,5.81 -2.2,10.75 -1.99,14.83 0.2,5.5 1.63,9.48 4.28,11.92 2.64,2.45 6.62,3.67 11.92,3.67 16.51,0.41 33.52,-18.54 51.05,-56.86zm-17.12 -7.64c-5.9,13.45 -8.56,24.96 -7.94,34.54 1.01,15.08 7.64,23.13 19.87,24.15 6.32,0.41 11.92,-1.02 16.81,-4.28 2.65,-1.63 6.11,-4.48 10.39,-8.56 4.28,-4.07 7.34,-7.38 9.18,-9.94 1.83,-2.54 2.84,-3.81 3.05,-3.81 0.2,0 0.26,0.5 0.15,1.52 -0.1,1.03 -0.2,2.45 -0.3,4.29 -0.1,1.83 -0.1,3.77 0,5.8 0.1,2.04 0.41,4.13 0.91,6.27 0.51,2.14 1.17,3.92 1.99,5.35 1.43,3.06 4.38,5.05 8.87,5.96 4.48,0.92 8.97,0.56 13.45,-1.07 6.92,-2.65 14.22,-8.76 21.86,-18.34 7.64,-9.58 14.01,-19.47 19.11,-29.66 6.72,-13.24 10.08,-20.68 10.08,-22.31 0,-0.41 -0.87,-0.82 -2.6,-1.23 -1.73,-0.4 -3.1,-0.5 -4.12,-0.3 -1.22,0.2 -2.3,0.97 -3.21,2.29 -0.92,1.33 -2.5,4.43 -4.74,9.33 -8.36,19.15 -17.43,33.62 -27.21,43.41 -7.54,7.54 -12.43,11.31 -14.67,11.31 -0.61,0 -0.97,-0.92 -1.07,-2.76 -0.11,-1.83 0,-4.12 0.3,-6.87 0.31,-2.75 0.77,-5.35 1.38,-7.79 2.65,-12.03 6.73,-26.1 12.23,-42.2 4.89,-14.46 7.64,-23.53 8.25,-27.21 0.61,-3.66 -0.11,-6 -2.14,-7.03 -2.45,-1.22 -5.46,-1.57 -9.02,-1.07 -3.57,0.51 -5.96,1.68 -7.18,3.52 -0.81,1.03 -1.84,2.65 -3.06,4.89l-1.83 3.67 -1.84 -2.75c-2.03,-3.46 -4.23,-6.01 -6.57,-7.65 -2.34,-1.63 -5.35,-2.75 -9.02,-3.35 -5.71,-0.82 -10.75,-0.31 -15.13,1.52 -4.38,1.83 -9.63,5.3 -15.74,10.4 -7.75,6.52 -14.57,16.51 -20.49,29.96zm57.32 -29.51c2.95,3.98 4.84,7.6 5.66,10.86 0.41,2.44 -0.21,6.11 -1.84,11 -1.63,4.89 -2.95,9.18 -3.97,12.84 -1.63,6.12 -6.32,14.06 -14.06,23.85 -7.75,9.78 -14.37,16.3 -19.87,19.56 -4.08,2.45 -6.43,2.76 -7.03,0.92 -1.23,-5.1 -0.37,-13.4 2.59,-24.92 2.96,-11.5 7.08,-22.67 12.39,-33.47 3.46,-7.13 6.16,-12.13 8.1,-14.98 1.93,-2.85 4.02,-5.5 6.26,-7.95 2.24,-2.45 3.77,-3.67 4.59,-3.67 1.84,0 4.22,1.99 7.18,5.96z"/>
  <path class="fil0" d="M1123.95 206.9c-5.91,13.45 -8.56,24.97 -7.95,34.54 1.02,15.09 7.64,23.14 19.87,24.16 6.32,0.41 11.93,-1.02 16.81,-4.29 2.65,-1.62 6.12,-4.47 10.4,-8.56 4.28,-4.07 7.33,-7.38 9.17,-9.93 1.84,-2.55 2.85,-3.82 3.06,-3.82 0.2,0 0.25,0.51 0.15,1.53 -0.1,1.02 -0.2,2.44 -0.3,4.28 -0.11,1.83 -0.11,3.77 0,5.81 0.1,2.03 0.4,4.12 0.91,6.26 0.51,2.14 1.17,3.93 1.99,5.35 1.42,3.06 4.38,5.04 8.86,5.96 4.49,0.92 8.97,0.56 13.46,-1.07 6.93,-2.65 14.21,-8.76 21.85,-18.34 7.65,-9.58 14.01,-19.46 19.11,-29.65 6.72,-13.25 10.09,-20.68 10.09,-22.32 0,-0.41 -0.87,-0.81 -2.6,-1.22 -1.73,-0.4 -3.11,-0.51 -4.13,-0.31 -1.22,0.2 -2.29,0.97 -3.21,2.3 -0.91,1.33 -2.49,4.43 -4.74,9.32 -8.35,19.16 -17.42,33.63 -27.2,43.41 -7.55,7.55 -12.44,11.31 -14.68,11.31 -0.61,0 -0.97,-0.92 -1.07,-2.75 -0.11,-1.83 0,-4.13 0.31,-6.88 0.3,-2.75 0.76,-5.35 1.37,-7.79 2.65,-12.03 6.73,-26.09 12.23,-42.19 4.9,-14.47 7.65,-23.54 8.26,-27.21 0.61,-3.67 -0.11,-6.01 -2.15,-7.03 -2.44,-1.22 -5.45,-1.58 -9.01,-1.07 -3.57,0.51 -5.97,1.68 -7.19,3.51 -0.81,1.03 -1.83,2.66 -3.05,4.89l-1.84 3.67 -1.83 -2.75c-2.05,-3.46 -4.24,-6 -6.57,-7.64 -2.35,-1.63 -5.36,-2.75 -9.02,-3.36 -5.71,-0.81 -10.76,-0.31 -15.13,1.53 -4.39,1.83 -9.64,5.3 -15.75,10.39 -7.75,6.53 -14.57,16.51 -20.48,29.96zm57.32 -29.5c2.95,3.97 4.84,7.6 5.65,10.85 0.41,2.45 -0.2,6.11 -1.83,11.01 -1.63,4.89 -2.96,9.17 -3.98,12.84 -1.63,6.11 -6.31,14.06 -14.06,23.84 -7.74,9.78 -14.37,16.31 -19.87,19.57 -4.08,2.44 -6.42,2.75 -7.03,0.91 -1.22,-5.09 -0.36,-13.4 2.6,-24.91 2.95,-11.51 7.08,-22.67 12.39,-33.48 3.45,-7.13 6.15,-12.12 8.09,-14.98 1.93,-2.85 4.02,-5.5 6.27,-7.95 2.24,-2.44 3.77,-3.66 4.59,-3.66 1.83,0 4.22,1.98 7.18,5.96z"/>
  <path class="fil0" d="M358.25 288.17c-31.24,-5.36 -62.11,-27.33 -72.24,-31.78l-10.87 -4.77 3.31 -2.52c4.2,-3.37 8.13,-8.55 11.77,-15.53 5.3,-10.07 10.57,-23.45 15.8,-40.15 2.8,-9.44 4.36,-14.53 4.68,-15.26 0.32,-0.74 2.3,-1.72 5.93,-2.93 12.45,-4.01 24.29,-11.04 35.53,-21.1 7.27,-6.33 13.63,-13.43 19.05,-21.28 5.44,-7.84 9.18,-15.33 11.22,-22.46 2.18,-7.79 1.99,-14.51 -0.56,-20.17 -2.55,-5.66 -7.11,-9.71 -13.69,-12.16 -3.26,-0.96 -7.06,-1.33 -11.38,-1.11 -4.34,0.22 -7.54,0.74 -9.63,1.58 -22.47,8.58 -40.45,34.02 -53.96,76.32 -2.71,8.42 -4.41,14.05 -5.11,16.88 -0.74,2.48 -1.44,3.91 -2.09,4.27 -0.66,0.37 -2.3,0.27 -4.92,-0.29 -8.89,-1.8 -16.97,-5.44 -24.25,-10.91 -7.28,-5.47 -12.78,-12.02 -16.53,-19.66 -1.22,-2.31 -2.28,-5.5 -3.19,-9.57 -0.91,-4.07 -1.15,-21.08 4.86,-30.38 4.33,-6.69 11.83,-13.68 24.95,-19 13.43,-2.3 21.66,0.74 24.83,4.59 3.82,4.58 5.45,9.89 4.87,15.96 -0.15,1.62 -1.56,8.3 -4.53,11.03 -2.97,2.73 -2.5,1.76 -4.36,2.52 -1.86,0.76 -3.08,0.69 -3.66,-0.21 -0.66,-1.11 -1.68,-2.64 -3.64,-2.94 -1.95,-0.31 -3.26,0.82 -3.3,1.75 -0.97,3.52 5.76,6.81 12.93,5.82 7.16,-0.99 11.23,-6.81 12,-8.33 3.73,-7.99 4.01,-15.49 0.83,-22.47 -3.19,-6.98 -8.75,-11.68 -16.7,-14.06 -2.25,-0.71 -12.97,-4.02 -25.74,-0.09 -12.76,3.95 -29.58,16.36 -32.57,33.02 -2.98,16.66 -1.34,21.4 2.77,30.76 4.11,9.36 10.76,17.37 19.94,24.03 9.18,6.65 19.07,10.62 29.69,11.88 2.78,0.25 4.34,0.47 4.66,0.67 0.31,0.2 -0.71,4.27 -3.07,12.21 -2.36,7.95 -4.47,14.39 -6.35,19.32 -5.61,14.8 -10.05,24.69 -13.3,29.67 -1.35,2.27 -2.51,3.47 -3.48,3.65 -0.98,0.17 -3.7,-0.28 -8.15,-1.35 -7.5,-1.84 -20.22,-6.57 -34.77,-0.74 -3.06,1.1 -5.74,2.98 -8.03,5.67 -3,3.64 -4.42,7.26 -4.24,10.84 0.2,2.03 1.66,6.08 6.02,9.53 3.71,2.93 9.4,5.44 19.56,5.83 11.65,0.14 26.88,-10.32 29.81,-11.68 2.93,-1.36 4.85,-2.34 5.79,-2.93l11.54 5.59c7.49,3.71 13.95,6.99 19.38,9.84 10.74,5.71 20.79,10.36 30.15,13.92 9.6,3.66 18.46,6.18 26.61,7.58 12.5,1.5 20.95,0.7 26.72,-1.33 11.81,-4.15 12.39,-13.46 13.36,-18.92 -5.41,6.47 -13.47,15.09 -34.25,11.35zm-107.23 -34.58c-0.97,2.12 -5.22,5.15 -12.72,9.09 -13.37,6.64 -21.44,3.17 -23.54,-1.04 -0.68,-2.13 -0.19,-6.97 5.12,-10.26 3.84,-2.38 16.07,-4.28 27.2,-0.04 2.61,1.33 3.92,2.08 3.94,2.25zm61.46 -81.27c-0.01,-0.17 1.24,-4.39 3.76,-12.66 5.38,-17.2 11.22,-30.7 17.55,-40.51 7.34,-11.42 12.86,-19.43 16.55,-24.04 3.68,-4.6 7.12,-7.7 10.32,-9.29 1.89,-0.86 3.12,-1.38 3.7,-1.59 0.57,-0.2 1.36,-0.17 2.38,0.08 1.01,0.26 2.08,1.04 3.2,2.32 3.34,3.69 4.94,8.75 4.8,15.19 -0.19,5.93 -2.09,12.48 -5.72,19.63 -4.58,9.46 -10.99,18.37 -19.24,26.74 -8.25,8.36 -17.07,14.94 -26.47,19.73 -1.69,0.86 -3.39,1.7 -5.09,2.49 -1.7,0.78 -3.08,1.34 -4.13,1.67 -1.05,0.33 -1.59,0.41 -1.61,0.24z"/>
  <path class="fil0" d="M421.08 242.93c6.72,-9.17 12.23,-18.34 16.5,-27.51 5.91,-12.23 8.56,-18.75 7.95,-19.57 -0.61,-0.61 -1.63,-1.01 -3.05,-1.22 -1.43,-0.2 -2.76,-0.1 -3.98,0.31 -1.43,0.61 -3.47,3.87 -6.11,9.78 -8.56,18.95 -17.33,33.43 -26.29,43.41 -2.04,2.24 -5.05,4.94 -9.02,8.1 -3.98,3.16 -6.38,4.74 -7.19,4.74 -0.41,0 -0.71,-0.1 -0.91,-0.31 -3.26,-2.64 0.81,-21.09 12.22,-55.33 7.13,-21.6 10.5,-33.42 10.09,-35.46 -0.41,-1.63 -2.19,-2.8 -5.35,-3.52 -3.16,-0.71 -6.37,-0.65 -9.63,0.16 -2.65,0.81 -5.04,3.41 -7.18,7.79 -2.14,4.39 -5.56,13.61 -10.24,27.67 -3.06,8.55 -7.14,17.07 -12.23,25.52 -5.1,8.46 -10.29,15.34 -15.59,20.64 -2.86,2.86 -5.91,5.5 -9.18,7.95 -3.26,2.44 -5.19,3.47 -5.8,3.06 -0.41,-0.41 -0.51,-2.86 -0.31,-7.34 0.41,-9.18 4.38,-24.66 11.93,-46.47 6.92,-20.99 10.39,-32.91 10.39,-35.76 0,-1.84 -0.66,-3.11 -1.99,-3.83 -1.33,-0.71 -3.72,-1.07 -7.18,-1.07 -3.87,0 -6.52,0.46 -7.95,1.38 -1.43,0.91 -3.06,3.21 -4.89,6.87 -4.69,9.59 -9.12,22.07 -13.3,37.46 -4.17,15.38 -6.06,28.37 -5.66,38.97 0.21,4.69 1.03,8.16 2.45,10.4 2.04,3.67 5.4,5.91 10.09,6.72 4.69,0.82 9.57,0 14.67,-2.45 2.65,-1.42 6.01,-3.97 10.09,-7.64 4.07,-3.66 7.64,-7.44 10.7,-11.31 2.64,-3.26 4.07,-5.09 4.28,-5.5 0.2,-0.2 0.31,0.2 0.31,1.22 0,10.2 0.71,16.72 2.13,19.57 2.45,4.89 6.68,7.54 12.69,7.94 6.01,0.41 11.57,-1.22 16.66,-4.88 6.53,-4.48 13.15,-11.32 19.88,-20.49zm62.51 8.87c6.62,-5.09 11.87,-10.09 15.74,-14.98 4.69,-5.71 9.37,-12.58 14.07,-20.64 4.68,-8.05 7.23,-13.6 7.64,-16.66 0.4,-1.83 -0.1,-2.95 -1.53,-3.36 -2.65,-1.02 -4.69,-1.02 -6.11,0 -1.43,1.02 -2.86,3.36 -4.28,7.03 -2.86,7.54 -7.24,15.29 -13.15,23.24 -5.91,7.94 -12.12,14.36 -18.65,19.26 -9.78,7.53 -18.55,11.91 -26.29,13.14 -1.83,0.21 -3.36,-0.51 -4.58,-2.14 -2.24,-2.65 -3.67,-7.13 -4.28,-13.45 -1.02,-14.07 4.48,-32.81 16.5,-56.25 2.45,-4.89 5,-9.02 7.65,-12.38 2.65,-3.37 4.48,-4.94 5.5,-4.74 1.22,0.61 2.9,3.67 5.05,9.17 2.13,5.5 3.2,9.58 3.2,12.23 0,2.24 1.63,3.36 4.89,3.36 2.24,0 3.67,-0.46 4.29,-1.38 0.61,-0.92 0.92,-3.1 0.92,-6.56 0,-7.75 -1.64,-13.81 -4.9,-18.19 -3.26,-4.39 -8.25,-6.58 -14.98,-6.58 -6.32,0 -12.64,2.14 -18.95,6.42 -12.44,8.36 -22.32,21.71 -29.66,40.05 -2.24,5.91 -3.97,12.28 -5.19,19.1 -1.23,6.83 -1.53,12.19 -0.92,16.05 1.64,10.6 7.44,17.74 17.43,21.4 9.98,3.67 20.89,2.96 32.71,-2.14 5.29,-2.24 11.26,-5.91 17.88,-11zm27.82 -75.97c-2.14,4.58 -5.15,12.59 -9.02,24 -4.48,13.25 -7.39,25.58 -8.71,36.99 -1.33,11.41 -0.87,19.46 1.38,24.15 2.43,4.69 6.72,7.13 12.83,7.33 6.12,0.21 11.81,-1.62 17.12,-5.5 2.24,-1.42 5.14,-3.97 8.71,-7.64 3.57,-3.67 6.47,-7.13 8.72,-10.39 8.76,-11.62 16.61,-25.37 23.54,-41.28 1.42,-3.46 2.24,-5.55 2.44,-6.26 0.2,-0.72 0,-1.27 -0.61,-1.68 -1.02,-0.82 -2.14,-1.23 -3.36,-1.23 -2.25,0 -3.82,0.57 -4.74,1.69 -0.92,1.12 -2.5,4.23 -4.74,9.32 -11.62,26.49 -24.35,44.23 -38.21,53.19 -2.65,1.84 -4.24,2.45 -4.74,1.84 -0.52,-0.61 -0.66,-3.06 -0.46,-7.34 0.2,-4.48 2.34,-14.06 6.42,-28.73 0.61,-2.86 2.65,-9.18 6.11,-18.96 6.53,-19.77 9.79,-31.18 9.79,-34.24 0,-1.83 -0.72,-3.15 -2.14,-3.97 -1.84,-0.82 -4.23,-1.17 -7.18,-1.07 -2.96,0.11 -5.26,0.56 -6.89,1.37 -2.03,1.02 -4.12,3.82 -6.26,8.41zm32.86 30.72c-5.91,13.46 -8.56,24.97 -7.95,34.55 1.02,15.08 7.64,23.13 19.87,24.15 6.32,0.41 11.93,-1.02 16.82,-4.28 2.64,-1.63 6.11,-4.48 10.39,-8.56 4.28,-4.07 7.34,-7.39 9.17,-9.94 1.84,-2.55 2.85,-3.82 3.06,-3.82 0.2,0 0.25,0.51 0.15,1.53 -0.11,1.02 -0.21,2.44 -0.3,4.28 -0.11,1.84 -0.11,3.77 0,5.81 0.09,2.04 0.4,4.13 0.91,6.27 0.5,2.14 1.17,3.92 1.99,5.34 1.42,3.06 4.38,5.05 8.86,5.97 4.48,0.92 8.97,0.56 13.46,-1.07 6.92,-2.65 14.21,-8.76 21.85,-18.34 7.65,-9.59 14.01,-19.46 19.11,-29.66 6.73,-13.25 10.08,-20.68 10.08,-22.31 0,-0.41 -0.86,-0.82 -2.59,-1.23 -1.73,-0.4 -3.11,-0.51 -4.12,-0.3 -1.23,0.2 -2.3,0.97 -3.22,2.29 -0.92,1.33 -2.49,4.43 -4.73,9.32 -8.36,19.16 -17.43,33.63 -27.21,43.41 -7.55,7.55 -12.43,11.32 -14.68,11.32 -0.61,0 -0.97,-0.92 -1.06,-2.76 -0.11,-1.83 0,-4.12 0.3,-6.88 0.31,-2.75 0.76,-5.34 1.38,-7.79 2.64,-12.03 6.72,-26.09 12.22,-42.19 4.89,-14.47 7.64,-23.54 8.26,-27.21 0.61,-3.67 -0.11,-6.01 -2.14,-7.03 -2.45,-1.22 -5.46,-1.57 -9.02,-1.07 -3.57,0.52 -5.96,1.69 -7.19,3.52 -0.81,1.02 -1.83,2.65 -3.05,4.89l-1.84 3.67 -1.83 -2.75c-2.05,-3.47 -4.23,-6.01 -6.57,-7.64 -2.35,-1.64 -5.36,-2.76 -9.02,-3.37 -5.71,-0.81 -10.75,-0.3 -15.13,1.53 -4.39,1.84 -9.64,5.3 -15.75,10.39 -7.75,6.53 -14.57,16.51 -20.48,29.96zm57.32 -29.5c2.95,3.98 4.84,7.6 5.65,10.86 0.41,2.44 -0.2,6.11 -1.83,11 -1.64,4.89 -2.95,9.17 -3.97,12.84 -1.64,6.12 -6.32,14.06 -14.07,23.84 -7.74,9.79 -14.36,16.32 -19.87,19.57 -4.08,2.44 -6.42,2.75 -7.03,0.92 -1.22,-5.09 -0.36,-13.4 2.6,-24.92 2.95,-11.51 7.08,-22.67 12.38,-33.47 3.47,-7.13 6.16,-12.13 8.1,-14.98 1.94,-2.85 4.03,-5.5 6.27,-7.95 2.24,-2.45 3.77,-3.67 4.59,-3.67 1.83,0 4.22,1.99 7.18,5.96zm55.18 87.74c0.41,-0.1 1.12,-0.77 2.14,-1.99 1.22,-1.42 1.93,-3.25 2.14,-5.5 0.61,-5.1 2.7,-13.4 6.26,-24.91 3.57,-11.52 6.68,-20.13 9.33,-25.84 3.67,-7.54 8.66,-14.67 14.98,-21.4 6.31,-6.72 12.73,-11.82 19.26,-15.28 3.67,-1.83 6.21,-2.7 7.64,-2.6 1.42,0.1 2.45,1.17 3.05,3.21 0.82,2.25 0.82,5.51 0,9.78 -0.81,4.28 -2.54,10.5 -5.19,18.65 -6.11,18.96 -9.89,31.95 -11.31,38.98 -1.43,7.03 -1.33,12.18 0.31,15.44 2.44,5.5 7.84,8.25 16.19,8.25 6.73,-0.2 12.08,-1.48 16.06,-3.82 3.97,-2.34 8.71,-7.19 14.21,-14.52 7.14,-9.38 13.25,-21.6 18.35,-36.69 2.24,-6.52 3.15,-10.08 2.74,-10.7 -0.6,-0.61 -1.78,-0.96 -3.51,-1.07 -1.73,-0.1 -3.01,0.16 -3.82,0.77 -0.82,0.61 -2.14,3.56 -3.97,8.86 -6.94,19.57 -15.4,34.44 -25.38,44.63 -4.69,4.9 -8.66,7.14 -11.92,6.73 -4.49,-0.81 -3.47,-9.68 3.06,-26.6 7.95,-20.58 12.02,-36.78 12.23,-48.6 0.2,-12.23 -6.42,-18.34 -19.88,-18.34 -4.28,0 -8.51,0.86 -12.68,2.59 -4.18,1.74 -7.8,3.88 -10.86,6.42 -3.06,2.56 -5.86,5.05 -8.41,7.49 -2.54,2.45 -4.53,4.44 -5.95,5.97 -1.43,1.52 -2.25,2.19 -2.45,1.99 -0.2,-0.21 0.92,-3.77 3.36,-10.7 1.84,-5.92 2.8,-9.79 2.91,-11.62 0.1,-1.84 -0.57,-3.06 -1.99,-3.67 -2.24,-0.81 -5.3,-0.87 -9.17,-0.15 -3.87,0.71 -6.63,1.88 -8.25,3.51 -2.25,2.04 -5.72,9.58 -10.4,22.63 -8.56,23.43 -12.84,42.79 -12.84,58.08 0,10.8 3.26,17.22 9.78,19.25 2.24,0.62 3.57,0.88 3.98,0.77zm93.23 -58.24c-5.9,13.46 -8.55,24.97 -7.95,34.55 1.03,15.08 7.65,23.13 19.88,24.15 6.31,0.41 11.92,-1.02 16.82,-4.28 2.64,-1.63 6.11,-4.48 10.39,-8.56 4.28,-4.07 7.33,-7.39 9.17,-9.94 1.83,-2.55 2.85,-3.82 3.06,-3.82 0.19,0 0.25,0.51 0.15,1.53 -0.11,1.02 -0.21,2.44 -0.31,4.28 -0.11,1.84 -0.11,3.77 0,5.81 0.1,2.04 0.41,4.13 0.92,6.27 0.51,2.14 1.17,3.92 1.99,5.34 1.42,3.06 4.38,5.05 8.86,5.97 4.48,0.92 8.97,0.56 13.46,-1.07 6.92,-2.65 14.21,-8.76 21.85,-18.34 7.64,-9.59 14.01,-19.46 19.11,-29.66 6.72,-13.25 10.08,-20.68 10.08,-22.31 0,-0.41 -0.86,-0.82 -2.59,-1.23 -1.74,-0.4 -3.11,-0.51 -4.13,-0.3 -1.22,0.2 -2.29,0.97 -3.21,2.29 -0.92,1.33 -2.5,4.43 -4.74,9.32 -8.36,19.16 -17.43,33.63 -27.21,43.41 -7.54,7.55 -12.43,11.32 -14.67,11.32 -0.61,0 -0.97,-0.92 -1.07,-2.76 -0.11,-1.83 0,-4.12 0.31,-6.88 0.3,-2.75 0.76,-5.34 1.37,-7.79 2.65,-12.03 6.73,-26.09 12.23,-42.19 4.89,-14.47 7.64,-23.54 8.25,-27.21 0.61,-3.67 -0.11,-6.01 -2.14,-7.03 -2.44,-1.22 -5.45,-1.57 -9.01,-1.07 -3.57,0.52 -5.96,1.69 -7.19,3.52 -0.82,1.02 -1.83,2.65 -3.06,4.89l-1.83 3.67 -1.83 -2.75c-2.05,-3.47 -4.24,-6.01 -6.57,-7.64 -2.35,-1.64 -5.36,-2.76 -9.02,-3.37 -5.71,-0.81 -10.76,-0.3 -15.14,1.53 -4.38,1.84 -9.63,5.3 -15.74,10.39 -7.75,6.53 -14.57,16.51 -20.49,29.96zm57.33 -29.5c2.95,3.98 4.84,7.6 5.65,10.86 0.41,2.44 -0.21,6.11 -1.83,11 -1.64,4.89 -2.96,9.17 -3.98,12.84 -1.63,6.12 -6.31,14.06 -14.06,23.84 -7.74,9.79 -14.36,16.32 -19.87,19.57 -4.08,2.44 -6.42,2.75 -7.03,0.92 -1.23,-5.09 -0.36,-13.4 2.6,-24.92 2.94,-11.51 7.08,-22.67 12.38,-33.47 3.46,-7.13 6.16,-12.13 8.1,-14.98 1.94,-2.85 4.02,-5.5 6.26,-7.95 2.25,-2.45 3.77,-3.67 4.59,-3.67 1.84,0 4.23,1.99 7.19,5.96z"/>
  <path class="fil1" d="M504.65 333.85c-2.36,1.45 -4.98,2.17 -7.87,2.17 -3.45,0 -6.49,-1.01 -9.13,-3.02l26.27 -23.16c-1.69,-2.7 -4.09,-4.92 -7.2,-6.68 -3.11,-1.76 -6.42,-2.64 -9.94,-2.64 -5.52,0 -10.29,1.97 -14.31,5.93 -4.02,3.96 -6.03,8.76 -6.03,14.41 0,5.53 2.01,10.29 6.03,14.31 4.02,4.02 8.79,6.03 14.31,6.03 3.84,0 7.35,-0.99 10.55,-2.97 3.2,-1.98 5.65,-4.57 7.34,-7.76l-4.51 -2.55c-1.32,2.51 -3.16,4.49 -5.51,5.93zm-23.03 -12.99c0,-4.27 1.46,-7.87 4.39,-10.78 2.91,-2.92 6.5,-4.38 10.77,-4.38 3.77,0 7.07,1.22 9.89,3.67l-22.5 19.96c-1.7,-2.57 -2.55,-5.39 -2.55,-8.47zm41.34 13.47c1.13,2.01 2.64,3.59 4.52,4.75 1.88,1.16 3.95,1.74 6.21,1.74 2.26,0 4.3,-0.53 6.12,-1.6 1.82,-1.07 3.27,-2.51 4.33,-4.33 1.07,-1.82 1.61,-3.86 1.61,-6.12 0,-2.77 -0.8,-5.21 -2.41,-7.35 -1.6,-2.13 -3.68,-3.54 -6.25,-4.23l-4.53 -1.32c-2.45,-0.69 -3.67,-2.29 -3.67,-4.8 0,-1.32 0.47,-2.48 1.41,-3.49 0.94,-1 2.14,-1.5 3.58,-1.5 2.32,0 3.86,1 4.61,3.01l4.71 -1.98c-0.75,-1.88 -1.99,-3.38 -3.72,-4.52 -1.72,-1.13 -3.59,-1.69 -5.6,-1.69 -2.82,0 -5.22,0.99 -7.2,2.96 -1.98,1.98 -2.97,4.38 -2.97,7.21 0,2.26 0.69,4.28 2.07,6.07 1.39,1.79 3.21,3.03 5.46,3.72l4.52 1.32c1.39,0.37 2.53,1.17 3.44,2.4 0.91,1.22 1.37,2.62 1.37,4.19 0,1.95 -0.66,3.58 -1.98,4.89 -1.32,1.32 -2.95,1.98 -4.9,1.98 -2.89,0 -4.96,-1.26 -6.21,-3.77l-4.52 2.46zm37.94 5.74l5.19 0 0 -33.34 6.87 0 0 -5.17 -6.87 0 0 -13.38 -5.19 2.55 0 10.83 -6.96 0 0 5.17 6.96 0 0 33.34zm47.18 -38.51l0 24.19c0,2.71 -0.96,5.08 -2.87,7.12 -1.92,2.03 -4.35,3.05 -7.3,3.05 -2.7,0 -5.07,-0.98 -7.11,-2.96 -2.04,-1.98 -3.06,-4.38 -3.06,-7.21l0 -24.19 -5.18 0 0 24.19c0,4.34 1.48,7.98 4.43,10.93 2.95,2.95 6.59,4.43 10.92,4.43 4.33,0 7.97,-1.54 10.92,-4.62l4.42 3.58 0 -38.51 -5.17 0zm-21.75 -5.56l23.54 -10.36 -2.83 -5.27 -21.94 13.46 1.23 2.17zm42.56 10.45c-4.02,3.96 -6.03,8.76 -6.03,14.41 0,5.53 2.01,10.29 6.03,14.31 4.01,4.02 8.78,6.03 14.31,6.03 5.71,0 10.61,-2.1 14.69,-6.31l5.65 5.18 0 -64.03 -5.19 0 0 31.26c-4.07,-4.52 -9.12,-6.78 -15.15,-6.78 -5.53,0 -10.3,1.97 -14.31,5.93zm25.04 3.68c2.95,2.95 4.42,6.52 4.42,10.73 0,4.21 -1.47,7.79 -4.42,10.73 -2.95,2.95 -6.53,4.43 -10.73,4.43 -4.27,0 -7.87,-1.46 -10.78,-4.38 -2.92,-2.92 -4.38,-6.51 -4.38,-10.78 0,-4.27 1.46,-7.87 4.38,-10.78 2.91,-2.92 6.51,-4.38 10.78,-4.38 4.2,0 7.78,1.48 10.73,4.43zm20.62 29.94l5.19 0 0 -38.51 -5.19 0 0 38.51zm0 -47.93l5.19 0 0 -5.65 -5.19 0 0 5.65zm20.81 14.31c-4.02,3.96 -6.03,8.76 -6.03,14.41 0,5.53 2.01,10.29 6.03,14.31 4.02,4.02 8.79,6.03 14.31,6.03 5.65,0 10.45,-2.01 14.41,-6.03 3.95,-4.02 5.93,-8.78 5.93,-14.31 0,-5.65 -1.98,-10.45 -5.93,-14.41 -3.96,-3.96 -8.76,-5.93 -14.41,-5.93 -5.52,0 -10.29,1.97 -14.31,5.93zm25.05 3.68c2.94,2.95 4.42,6.52 4.42,10.73 0,4.21 -1.48,7.79 -4.42,10.73 -2.95,2.95 -6.53,4.43 -10.74,4.43 -4.26,0 -7.86,-1.46 -10.78,-4.38 -2.91,-2.92 -4.38,-6.51 -4.38,-10.78 0,-4.27 1.47,-7.87 4.38,-10.78 2.92,-2.92 6.52,-4.38 10.78,-4.38 4.21,0 7.79,1.48 10.74,4.43zm59.6 -3.68c-4.02,3.96 -6.03,8.76 -6.03,14.41 0,5.53 2.01,10.29 6.03,14.31 4.02,4.02 8.79,6.03 14.31,6.03 5.71,0 10.61,-2.1 14.69,-6.31l5.65 5.18 0 -64.03 -5.18 0 0 31.26c-4.08,-4.52 -9.13,-6.78 -15.16,-6.78 -5.52,0 -10.29,1.97 -14.31,5.93zm25.04 3.68c2.96,2.95 4.43,6.52 4.43,10.73 0,4.21 -1.47,7.79 -4.43,10.73 -2.95,2.95 -6.52,4.43 -10.73,4.43 -4.27,0 -7.86,-1.46 -10.78,-4.38 -2.92,-2.92 -4.38,-6.51 -4.38,-10.78 0,-4.27 1.46,-7.87 4.38,-10.78 2.92,-2.92 6.51,-4.38 10.78,-4.38 4.21,0 7.78,1.48 10.73,4.43zm47.41 23.72c-2.35,1.45 -4.97,2.17 -7.86,2.17 -3.45,0 -6.5,-1.01 -9.13,-3.02l26.27 -23.16c-1.7,-2.7 -4.09,-4.92 -7.21,-6.68 -3.1,-1.76 -6.41,-2.64 -9.93,-2.64 -5.52,0 -10.3,1.97 -14.31,5.93 -4.02,3.96 -6.02,8.76 -6.02,14.41 0,5.53 2,10.29 6.02,14.31 4.01,4.02 8.79,6.03 14.31,6.03 3.83,0 7.35,-0.99 10.55,-2.97 3.2,-1.98 5.65,-4.57 7.34,-7.76l-4.52 -2.55c-1.31,2.51 -3.15,4.49 -5.51,5.93zm-23.02 -12.99c0,-4.27 1.46,-7.87 4.38,-10.78 2.92,-2.92 6.52,-4.38 10.78,-4.38 3.77,0 7.06,1.22 9.89,3.67l-22.51 19.96c-1.69,-2.57 -2.54,-5.39 -2.54,-8.47zm106.21 -18.46c-2.63,-1.25 -5.55,-1.88 -8.75,-1.88 -5.53,0 -10.3,1.97 -14.32,5.93 -4.01,3.96 -6.02,8.76 -6.02,14.41 0,5.53 2.01,10.29 6.02,14.31 4.02,4.02 8.79,6.03 14.32,6.03 3.07,0 5.93,-0.62 8.56,-1.84 2.65,-1.22 4.93,-2.96 6.88,-5.22l-4.14 -3.21c-2.96,3.4 -6.72,5.09 -11.3,5.09 -4.27,0 -7.87,-1.46 -10.79,-4.38 -2.91,-2.92 -4.37,-6.51 -4.37,-10.78 0,-4.27 1.46,-7.87 4.37,-10.78 2.92,-2.92 6.52,-4.38 10.79,-4.38 4.64,0 8.5,1.79 11.58,5.37l4.05 -3.2c-1.95,-2.39 -4.24,-4.21 -6.88,-5.47zm21.09 4.05c-4.01,3.96 -6.02,8.76 -6.02,14.41 0,5.53 2.01,10.29 6.02,14.31 4.02,4.02 8.79,6.03 14.32,6.03 5.64,0 10.45,-2.01 14.4,-6.03 3.96,-4.02 5.93,-8.78 5.93,-14.31 0,-5.65 -1.97,-10.45 -5.93,-14.41 -3.95,-3.96 -8.76,-5.93 -14.4,-5.93 -5.53,0 -10.3,1.97 -14.32,5.93zm25.05 3.68c2.95,2.95 4.43,6.52 4.43,10.73 0,4.21 -1.48,7.79 -4.43,10.73 -2.96,2.95 -6.53,4.43 -10.73,4.43 -4.27,0 -7.86,-1.46 -10.79,-4.38 -2.92,-2.92 -4.38,-6.51 -4.38,-10.78 0,-4.27 1.46,-7.87 4.38,-10.78 2.93,-2.92 6.52,-4.38 10.79,-4.38 4.2,0 7.77,1.48 10.73,4.43zm17.79 24.2c1.13,2.01 2.64,3.59 4.53,4.75 1.88,1.16 3.95,1.74 6.21,1.74 2.26,0 4.3,-0.53 6.12,-1.6 1.82,-1.07 3.27,-2.51 4.33,-4.33 1.07,-1.82 1.6,-3.86 1.6,-6.12 0,-2.77 -0.8,-5.21 -2.4,-7.35 -1.6,-2.13 -3.68,-3.54 -6.26,-4.23l-4.52 -1.32c-2.45,-0.69 -3.67,-2.29 -3.67,-4.8 0,-1.32 0.47,-2.48 1.41,-3.49 0.94,-1 2.14,-1.5 3.58,-1.5 2.32,0 3.86,1 4.61,3.01l4.71 -1.98c-0.75,-1.88 -1.99,-3.38 -3.72,-4.52 -1.73,-1.13 -3.6,-1.69 -5.6,-1.69 -2.83,0 -5.23,0.99 -7.21,2.96 -1.98,1.98 -2.96,4.38 -2.96,7.21 0,2.26 0.69,4.28 2.07,6.07 1.38,1.79 3.2,3.03 5.46,3.72l4.52 1.32c1.38,0.37 2.53,1.17 3.44,2.4 0.91,1.22 1.36,2.62 1.36,4.19 0,1.95 -0.65,3.58 -1.97,4.89 -1.32,1.32 -2.96,1.98 -4.9,1.98 -2.88,0 -4.96,-1.26 -6.21,-3.77l-4.53 2.46zm37.95 5.74l5.18 0 0 -33.34 6.88 0 0 -5.17 -6.88 0 0 -13.38 -5.18 2.55 0 10.83 -6.97 0 0 5.17 6.97 0 0 33.34zm47.17 -38.51l0 24.19c0,2.71 -0.95,5.08 -2.87,7.12 -1.91,2.03 -4.35,3.05 -7.3,3.05 -2.69,0 -5.06,-0.98 -7.11,-2.96 -2.03,-1.98 -3.05,-4.38 -3.05,-7.21l0 -24.19 -5.19 0 0 24.19c0,4.34 1.48,7.98 4.43,10.93 2.95,2.95 6.59,4.43 10.92,4.43 4.33,0 7.97,-1.54 10.93,-4.62l4.42 3.58 0 -38.51 -5.18 0zm31.27 -1.04c-4.28,0 -7.85,1.51 -10.74,4.52l-4.33 -3.48 0 38.51 5.18 0 0 -24.48c0,-2.7 0.93,-5.02 2.77,-6.97 1.86,-1.95 4.23,-2.92 7.12,-2.92 1.06,0 1.97,0.12 2.72,0.38l2.36 -4.62c-1.5,-0.62 -3.2,-0.94 -5.08,-0.94zm53.95 39.55l0 -38.51 -5.65 5.27c-4.08,-4.2 -8.98,-6.31 -14.69,-6.31 -5.53,0 -10.3,1.97 -14.31,5.93 -4.02,3.96 -6.03,8.76 -6.03,14.41 0,5.53 2.01,10.29 6.03,14.31 4.01,4.02 8.78,6.03 14.31,6.03 5.71,0 10.61,-2.1 14.69,-6.31l5.65 5.18zm-9.61 -29.94c2.95,2.95 4.43,6.52 4.43,10.73 0,4.21 -1.48,7.79 -4.43,10.73 -2.95,2.95 -6.53,4.43 -10.73,4.43 -4.27,0 -7.87,-1.46 -10.78,-4.38 -2.92,-2.92 -4.38,-6.51 -4.38,-10.78 0,-4.27 1.46,-7.87 4.38,-10.78 2.91,-2.92 6.51,-4.38 10.78,-4.38 4.2,0 7.78,1.48 10.73,4.43z"/>
  <path class="fil1" d="M166.22 211.77c-0.44,0.41 1.55,8.94 1.98,8.52 8.63,-8.33 18.23,-18.55 25.27,-29.25 7.54,-11.45 23.18,-42.42 23.73,-43.72 0,0 0.66,-0.71 0.33,-1.7 -0.23,-0.66 -0.95,-1.03 -2.46,-2.2l-2.11 -1.71c-0.55,-0.45 -1.29,-0.62 -1.99,-0.45 -0.7,0.17 -1.28,0.66 -1.56,1.32 -6.25,14.47 -27.77,54.46 -43.19,69.19z"/>
  <path class="fil1" d="M166.22 211.77c-0.44,0.41 1.55,8.94 1.98,8.52 8.63,-8.33 18.23,-18.55 25.27,-29.25 7.54,-11.45 23.18,-42.42 23.73,-43.72 0,0 0.66,-0.71 0.33,-1.7 -0.23,-0.66 -0.95,-1.03 -2.46,-2.2l-2.11 -1.71c-0.55,-0.45 -1.29,-0.62 -1.99,-0.45 -0.7,0.17 -1.28,0.66 -1.56,1.32 -6.25,14.47 -27.77,54.46 -43.19,69.19z"/>
  <path class="fil1" d="M336.14 56.15c-23.56,-6.16 -52.01,-3.38 -73.62,7.87 -0.58,0.3 -1,0.84 -1.16,1.47 -0.17,0.64 -0.04,1.31 0.33,1.86l2.2 3.23c0.39,0.58 1,0.92 1.66,0.99 0.39,0.04 0.79,-0.02 1.17,-0.19 11.72,-5.22 27.75,-8.89 42.94,-10.3 11.94,-1.1 25.38,-0.83 33.82,1.21 -0.44,-3.81 -4.98,-5.52 -7.34,-6.14z"/>
  <path class="fil1" d="M336.14 56.15c-23.56,-6.16 -52.01,-3.38 -73.62,7.87 -0.58,0.3 -1,0.84 -1.16,1.47 -0.17,0.64 -0.04,1.31 0.33,1.86l2.2 3.23c0.39,0.58 1,0.92 1.66,0.99 0.39,0.04 0.79,-0.02 1.17,-0.19 11.72,-5.22 27.75,-8.89 42.94,-10.3 11.94,-1.1 25.38,-0.83 33.82,1.21 -0.44,-3.81 -4.98,-5.52 -7.34,-6.14z"/>
  <path class="fil1" d="M338.72 51.39c0.52,-0.79 0.49,-1.83 -0.06,-2.6 -0.06,-0.07 -5.26,-7.28 -8.66,-15.96 -0.55,-1.4 -1.24,-3.86 -1.97,-6.46 -2.61,-9.34 -4.58,-15.66 -7.78,-17.5 -9.62,-7.74 -22.84,-4.56 -31.98,-1.48 -29.56,9.95 -57.42,29.3 -78.44,54.48 -5.34,6.41 -10.05,13.43 -15.97,23.65 0.46,0.56 2.87,10.66 3.02,10.66 0.8,0 1.56,-0.42 1.98,-1.13 11.87,-20.13 23.95,-35.01 38.01,-46.85 12.54,-10.54 26.43,-19.16 41.29,-25.63 6.85,-2.99 13.93,-6.07 21.16,-6.89 3.43,-0.39 14.67,-1.26 15.6,3.69 5.47,29.19 20.74,32.87 21.39,33.01 0.92,0.21 1.89,-0.19 2.41,-0.99z"/>
  <path class="fil1" d="M338.72 51.39c0.52,-0.79 0.49,-1.83 -0.06,-2.6 -0.06,-0.07 -5.26,-7.28 -8.66,-15.96 -0.55,-1.4 -1.24,-3.86 -1.97,-6.46 -2.61,-9.34 -4.58,-15.66 -7.78,-17.5 -9.62,-7.74 -22.84,-4.56 -31.98,-1.48 -29.56,9.95 -57.42,29.3 -78.44,54.48 -5.34,6.41 -10.05,13.43 -15.97,23.65 0.46,0.56 2.87,10.66 3.02,10.66 0.8,0 1.56,-0.42 1.98,-1.13 11.87,-20.13 23.95,-35.01 38.01,-46.85 12.54,-10.54 26.43,-19.16 41.29,-25.63 6.85,-2.99 13.93,-6.07 21.16,-6.89 3.43,-0.39 14.67,-1.26 15.6,3.69 5.47,29.19 20.74,32.87 21.39,33.01 0.92,0.21 1.89,-0.19 2.41,-0.99z"/>
  <path class="fil1" d="M105.54 0.31c-1.28,0.16 -13.93,0.75 -18.24,1.68 -0.66,0.15 -1.2,0.3 -1.55,0.45 -0.12,0.29 0.2,0.82 0.79,1.47 2.13,2.36 10.68,5.29 20.39,5.85 -0.01,0.09 -0.04,0.17 -0.04,0.26 -0.95,25.47 13.49,45.15 40.64,55.43 14.95,5.66 27.56,11.72 30.55,28.62 2.83,16.01 -3.74,31.71 -9.78,43.6 -1.61,3.19 -3.3,6.34 -4.99,9.49 -5.1,9.5 -10.36,19.31 -13.53,29.97 -4.29,14.39 -4.84,30.9 -1.59,47.75 5.34,27.68 20.76,50.86 42.3,63.61 0.85,0.51 1.85,0.73 2.87,0.73 2.62,0 5.41,-1.48 6.56,-3.42 1.19,-2.02 0.55,-4.25 -1.61,-5.52 -22.13,-13.1 -36.64,-37.56 -39.81,-67.11 -1.89,-17.69 1.47,-34.88 10.28,-52.57 1.83,-3.68 3.84,-7.38 5.77,-10.95 4.66,-8.61 9.48,-17.51 12.51,-27.11 6.03,-19.05 5.55,-44.09 -13.83,-57.25 -5.69,-3.86 -12.08,-6.18 -18.27,-8.44 -6.26,-2.28 -12.18,-4.44 -17.43,-8.05 -11.56,-7.94 -18.44,-21.25 -18.8,-36.04 0.56,-3.43 0.85,-7.43 -2.79,-10.44 -2.16,-1.79 -4.4,-2.29 -6.56,-2.32l-0.15 0c-1.26,0 -2.51,0.15 -3.69,0.31z"/>
  <path class="fil1" d="M105.54 0.31c-1.28,0.16 -13.93,0.75 -18.24,1.68 -0.66,0.15 -1.2,0.3 -1.55,0.45 -0.12,0.29 0.2,0.82 0.79,1.47 2.13,2.36 10.68,5.29 20.39,5.85 -0.01,0.09 -0.04,0.17 -0.04,0.26 -0.95,25.47 13.49,45.15 40.64,55.43 14.95,5.66 27.56,11.72 30.55,28.62 2.83,16.01 -3.74,31.71 -9.78,43.6 -1.61,3.19 -3.3,6.34 -4.99,9.49 -5.1,9.5 -10.36,19.31 -13.53,29.97 -4.29,14.39 -4.84,30.9 -1.59,47.75 5.34,27.68 20.76,50.86 42.3,63.61 0.85,0.51 1.85,0.73 2.87,0.73 2.62,0 5.41,-1.48 6.56,-3.42 1.19,-2.02 0.55,-4.25 -1.61,-5.52 -22.13,-13.1 -36.64,-37.56 -39.81,-67.11 -1.89,-17.69 1.47,-34.88 10.28,-52.57 1.83,-3.68 3.84,-7.38 5.77,-10.95 4.66,-8.61 9.48,-17.51 12.51,-27.11 6.03,-19.05 5.55,-44.09 -13.83,-57.25 -5.69,-3.86 -12.08,-6.18 -18.27,-8.44 -6.26,-2.28 -12.18,-4.44 -17.43,-8.05 -11.56,-7.94 -18.44,-21.25 -18.8,-36.04 0.56,-3.43 0.85,-7.43 -2.79,-10.44 -2.16,-1.79 -4.4,-2.29 -6.56,-2.32l-0.15 0c-1.26,0 -2.51,0.15 -3.69,0.31z"/>
  <path class="fil1" d="M31.3 89.33c-0.88,-0.32 -2.84,0.18 -3.23,1.24 -0.23,0.61 0,1.44 0.87,1.76 23.79,8.75 48.82,13.12 73.86,13.12 0.75,0 1.5,-0.04 2.25,-0.05 3.15,34.43 4.25,68.97 3.27,103.51 -11.74,0.69 -23.53,-0.33 -35.27,-3.07 -0.91,-0.21 -1.8,0.22 -2.28,0.73 -0.46,0.5 -0.63,1.12 -0.45,1.7 0.1,0.34 0.41,0.95 1.37,1.17 9.83,2.29 19.68,3.44 29.5,3.44 2.35,0 4.7,-0.09 7.04,-0.22 -0.91,28.08 -3.2,56.14 -6.84,84.12 -0.11,0.79 0.37,1.66 1.49,1.8 0.1,0.02 0.21,0.03 0.32,0.03 0.99,0 2.27,-0.55 2.43,-1.72 3.67,-28.12 5.96,-56.32 6.87,-84.54 9.57,-0.86 19.1,-2.8 28.53,-5.84 1.23,-0.4 1.61,-1.44 1.34,-2.27 -0.34,-1.04 -1.57,-1.61 -2.69,-1.25 -8.96,2.9 -18.01,4.75 -27.09,5.6 0.98,-34.46 -0.11,-68.93 -3.23,-103.28 22.23,-0.68 44.39,-4.77 65.59,-12.35 0.78,-0.29 1.22,-0.73 1.33,-1.34 0.09,-0.51 -0.1,-1.02 -0.5,-1.36 -0.56,-0.47 -1.5,-0.6 -2.29,-0.32 -20.82,7.46 -42.59,11.45 -64.44,12.06 -2.34,-24.68 -5.69,-49.29 -10.15,-73.78 -0.14,-0.79 -0.91,-1.53 -2.29,-1.28 -1.3,0.24 -2.11,1.16 -1.93,2.2l0.01 0.01c4.4,24.2 7.72,48.53 10.04,72.92 -24.88,0.18 -49.78,-4.05 -73.43,-12.74zm40.95 117.7l-0.01 0.05c0,0 -0.01,0 -0.01,0l0.01 -0.05c0.01,0 0.01,0 0.01,0z"/>
  <path class="fil1" d="M31.3 89.33c-0.88,-0.32 -2.84,0.18 -3.23,1.24 -0.23,0.61 0,1.44 0.87,1.76 23.79,8.75 48.82,13.12 73.86,13.12 0.75,0 1.5,-0.04 2.25,-0.05 3.15,34.43 4.25,68.97 3.27,103.51 -11.74,0.69 -23.53,-0.33 -35.27,-3.07 -0.91,-0.21 -1.8,0.22 -2.28,0.73 -0.46,0.5 -0.63,1.12 -0.45,1.7 0.1,0.34 0.41,0.95 1.37,1.17 9.83,2.29 19.68,3.44 29.5,3.44 2.35,0 4.7,-0.09 7.04,-0.22 -0.91,28.08 -3.2,56.14 -6.84,84.12 -0.11,0.79 0.37,1.66 1.49,1.8 0.1,0.02 0.21,0.03 0.32,0.03 0.99,0 2.27,-0.55 2.43,-1.72 3.67,-28.12 5.96,-56.32 6.87,-84.54 9.57,-0.86 19.1,-2.8 28.53,-5.84 1.23,-0.4 1.61,-1.44 1.34,-2.27 -0.34,-1.04 -1.57,-1.61 -2.69,-1.25 -8.96,2.9 -18.01,4.75 -27.09,5.6 0.98,-34.46 -0.11,-68.93 -3.23,-103.28 22.23,-0.68 44.39,-4.77 65.59,-12.35 0.78,-0.29 1.22,-0.73 1.33,-1.34 0.09,-0.51 -0.1,-1.02 -0.5,-1.36 -0.56,-0.47 -1.5,-0.6 -2.29,-0.32 -20.82,7.46 -42.59,11.45 -64.44,12.06 -2.34,-24.68 -5.69,-49.29 -10.15,-73.78 -0.14,-0.79 -0.91,-1.53 -2.29,-1.28 -1.3,0.24 -2.11,1.16 -1.93,2.2l0.01 0.01c4.4,24.2 7.72,48.53 10.04,72.92 -24.88,0.18 -49.78,-4.05 -73.43,-12.74zm40.95 117.7l-0.01 0.05c0,0 -0.01,0 -0.01,0l0.01 -0.05c0.01,0 0.01,0 0.01,0z"/>
  <path class="fil1" d="M330.81 353.15c-9.01,-7.8 -19.5,-14.46 -30.72,-19.68 -1.91,-0.89 -17.25,-5.51 -23.65,-6.58 -3.29,-0.55 -6.36,-1.01 -8.69,-1.34 -28.27,-4.04 -54.1,6.25 -80.27,18.1 -34.74,15.74 -75.27,31.63 -116.46,21.02 -13.47,-3.46 -25.9,-9.99 -35.96,-18.88 -7.91,-6.98 -18.72,-17.84 -21.22,-31.56 -4.05,-22.15 1.18,-31.24 4,-36.11 0.26,-0.46 0.5,-0.87 0.72,-1.27 5.33,-9.69 11.94,-16.79 21.54,-21.85 0.97,-1.75 2.13,-5.03 2.54,-7.49 0.07,-0.42 0.01,-1.31 -0.72,-1.7 -0.63,-0.33 -1.89,-0.22 -2.4,0.02 -18.41,8.36 -31.77,21.16 -35.75,34.24 -3.36,11.09 -4.49,21.18 -3.33,29.99 0.98,7.48 3.32,12.12 4.57,14.62 0.18,0.35 0.33,0.66 0.45,0.91 8.43,18.18 24.57,33.31 44.28,41.53 13.55,5.66 28.84,8.5 45.3,8.5 12.53,-0.01 25.76,-1.66 39.4,-4.96 13.32,-3.24 27.02,-7.93 43.12,-14.76 5.02,-2.14 10.08,-4.47 14.98,-6.73 13.66,-6.3 27.78,-12.82 42.61,-15.65 9.74,-1.85 21.99,-1.01 33.47,1.39 6.04,1.26 14.35,2.5 29.14,9.1 14.8,6.6 29.64,13.38 38.29,20.59 1.48,-4.78 -2.84,-9.38 -5.24,-11.45zm-249.89 -344.44c-0.23,-1.59 -1.23,-2.85 -2.74,-3.45 -2.08,-0.84 -4.91,-0.34 -6.89,1.22 -1.58,1.24 -2.34,2.99 -2.08,4.8 2.31,16.18 -3.46,31.56 -15.43,41.13 -4.63,3.7 -9.9,6.28 -15.48,9 -6.36,3.11 -12.95,6.33 -18.45,11.34 -17.23,15.73 -14.53,40.76 -6.24,58.95 4.4,9.67 10.08,18.41 15.58,26.86 9.88,15.18 19.22,29.52 21.27,48.48 1.14,10.57 0.64,20.94 -1.32,30.74l0.16 0.13c0,0 -2.61,15.64 -9.37,25.84 -0.02,0.03 -0.16,0.15 -0.37,0.3 -5.26,9.43 -12.18,17.6 -20.61,23.89 -2.17,1.61 -2.31,3.38 -2.21,4.29 0.19,1.55 1.28,2.86 3,3.6 0.92,0.4 1.88,0.58 2.84,0.58 1.43,0 2.83,-0.42 3.94,-1.25 20.59,-15.36 33.35,-39.66 35.9,-68.43 2.95,-33.24 -11.08,-57.38 -26.99,-81.22 -8.59,-12.86 -16.53,-26.93 -16.53,-42.67 -0.01,-19.86 14.69,-27.53 30.25,-35.66 23.38,-12.21 35.25,-34.07 31.77,-58.47z"/>
  <path class="fil1" d="M330.81 353.15c-9.01,-7.8 -19.5,-14.46 -30.72,-19.68 -1.91,-0.89 -17.25,-5.51 -23.65,-6.58 -3.29,-0.55 -6.36,-1.01 -8.69,-1.34 -28.27,-4.04 -54.1,6.25 -80.27,18.1 -34.74,15.74 -75.27,31.63 -116.46,21.02 -13.47,-3.46 -25.9,-9.99 -35.96,-18.88 -7.91,-6.98 -18.72,-17.84 -21.22,-31.56 -4.05,-22.15 1.18,-31.24 4,-36.11 0.26,-0.46 0.5,-0.87 0.72,-1.27 5.33,-9.69 11.94,-16.79 21.54,-21.85 0.97,-1.75 2.13,-5.03 2.54,-7.49 0.07,-0.42 0.01,-1.31 -0.72,-1.7 -0.63,-0.33 -1.89,-0.22 -2.4,0.02 -18.41,8.36 -31.77,21.16 -35.75,34.24 -3.36,11.09 -4.49,21.18 -3.33,29.99 0.98,7.48 3.32,12.12 4.57,14.62 0.18,0.35 0.33,0.66 0.45,0.91 8.43,18.18 24.57,33.31 44.28,41.53 13.55,5.66 28.84,8.5 45.3,8.5 12.53,-0.01 25.76,-1.66 39.4,-4.96 13.32,-3.24 27.02,-7.93 43.12,-14.76 5.02,-2.14 10.08,-4.47 14.98,-6.73 13.66,-6.3 27.78,-12.82 42.61,-15.65 9.74,-1.85 21.99,-1.01 33.47,1.39 6.04,1.26 14.35,2.5 29.14,9.1 14.8,6.6 29.64,13.38 38.29,20.59 1.48,-4.78 -2.84,-9.38 -5.24,-11.45zm-249.89 -344.44c-0.23,-1.59 -1.23,-2.85 -2.74,-3.45 -2.08,-0.84 -4.91,-0.34 -6.89,1.22 -1.58,1.24 -2.34,2.99 -2.08,4.8 2.31,16.18 -3.46,31.56 -15.43,41.13 -4.63,3.7 -9.9,6.28 -15.48,9 -6.36,3.11 -12.95,6.33 -18.45,11.34 -17.23,15.73 -14.53,40.76 -6.24,58.95 4.4,9.67 10.08,18.41 15.58,26.86 9.88,15.18 19.22,29.52 21.27,48.48 1.14,10.57 0.64,20.94 -1.32,30.74l0.16 0.13c0,0 -2.61,15.64 -9.37,25.84 -0.02,0.03 -0.16,0.15 -0.37,0.3 -5.26,9.43 -12.18,17.6 -20.61,23.89 -2.17,1.61 -2.31,3.38 -2.21,4.29 0.19,1.55 1.28,2.86 3,3.6 0.92,0.4 1.88,0.58 2.84,0.58 1.43,0 2.83,-0.42 3.94,-1.25 20.59,-15.36 33.35,-39.66 35.9,-68.43 2.95,-33.24 -11.08,-57.38 -26.99,-81.22 -8.59,-12.86 -16.53,-26.93 -16.53,-42.67 -0.01,-19.86 14.69,-27.53 30.25,-35.66 23.38,-12.21 35.25,-34.07 31.77,-58.47z"/>
  <path class="fil1" d="M103.37 417.98c0.58,0.34 1.33,0.47 2.14,0.47 2.75,0 4.6,-1 6.22,-1.56 1.61,-0.57 1.94,-1.8 2.02,-2.1 0.29,-1.11 -0.11,-7.06 -0.11,-7.06l-0.14 -24.03c-0.01,-0.69 -0.27,-2.84 -4.05,-2.89 -2.99,0.02 -7.73,1.28 -7.71,4.57l0.19 30.12c0,1.03 0.54,1.96 1.44,2.48z"/>
  <path class="fil1" d="M103.37 417.98c0.58,0.34 1.33,0.47 2.14,0.47 2.75,0 4.6,-1 6.22,-1.56 1.61,-0.57 1.94,-1.8 2.02,-2.1 0.29,-1.11 -0.11,-7.06 -0.11,-7.06l-0.14 -24.03c-0.01,-0.69 -0.27,-2.84 -4.05,-2.89 -2.99,0.02 -7.73,1.28 -7.71,4.57l0.19 30.12c0,1.03 0.54,1.96 1.44,2.48z"/>
  <path class="fil1" d="M95.09 421.14c-11.21,-1.48 -20.1,-1.67 -28.86,-0.64 -4.68,0.56 -8.96,3.28 -10.39,6.61 -0.73,1.71 -0.59,3.45 0.4,4.77 1.43,1.92 4.31,2.64 8.54,2.14 10.37,-1.23 20.73,-0.13 30.75,0.93 6.63,0.71 13.34,1.42 20.05,1.42 5.33,0 10.79,-0.19 16.15,-1.25 3.15,-0.64 13.87,-3.07 17.96,-7.5 1.42,-1.54 2.59,-3.29 3.52,-5.56 1,-2.44 1.36,-10.33 0.12,-9.31 -0.97,0.78 -8.56,5.02 -19.21,7.94 -9.42,2.58 -21.25,4.12 -33.01,1.34 -2.06,-0.32 -4.07,-0.63 -6.02,-0.89z"/>
  <path class="fil1" d="M95.09 421.14c-11.21,-1.48 -20.1,-1.67 -28.86,-0.64 -4.68,0.56 -8.96,3.28 -10.39,6.61 -0.73,1.71 -0.59,3.45 0.4,4.77 1.43,1.92 4.31,2.64 8.54,2.14 10.37,-1.23 20.73,-0.13 30.75,0.93 6.63,0.71 13.34,1.42 20.05,1.42 5.33,0 10.79,-0.19 16.15,-1.25 3.15,-0.64 13.87,-3.07 17.96,-7.5 1.42,-1.54 2.59,-3.29 3.52,-5.56 1,-2.44 1.36,-10.33 0.12,-9.31 -0.97,0.78 -8.56,5.02 -19.21,7.94 -9.42,2.58 -21.25,4.12 -33.01,1.34 -2.06,-0.32 -4.07,-0.63 -6.02,-0.89z"/>
  <path class="fil1" d="M359.68 324.47c-1.69,-12.22 -13.03,-18.91 -21.44,-22.9 -19.2,-9.09 -40.84,-14.46 -62.89,-14.95 -29.81,-0.67 -62.8,9.99 -67.77,11.57 -9.66,3.05 -19.62,6.68 -29.86,10.42 -50.46,18.42 -102.63,37.47 -139.87,-3.93 -1.27,-1.42 -3.38,-1.94 -5.78,-1.43 -2,0.42 -4.38,1.65 -5.09,3.8 -0.42,1.31 -0.1,2.7 0.88,3.79 37.73,41.95 97.13,26.91 144.66,9.11 12.3,-4.61 24.15,-8.99 35.62,-12.52 5.04,-1.55 -1.89,0.43 14.91,-4.11 16.81,-4.54 40.68,-7.57 52.53,-6.95 15.67,0.84 31.03,4.01 45.67,9.41 6.74,2.48 13.71,5.06 19.32,9.4 2.65,2.05 11.1,9.07 8.51,13.33 -15.24,25.08 -6.94,38.18 -6.58,38.73 0.51,0.78 1.44,1.15 2.33,0.92 0.89,-0.22 1.55,-1 1.65,-1.94 0.02,-0.09 1.07,-8.91 4.37,-17.58 0.53,-1.4 1.65,-3.66 2.85,-6.07 4.26,-8.6 7.01,-14.57 5.98,-18.1z"/>
  <path class="fil1" d="M359.68 324.47c-1.69,-12.22 -13.03,-18.91 -21.44,-22.9 -19.2,-9.09 -40.84,-14.46 -62.89,-14.95 -29.81,-0.67 -62.8,9.99 -67.77,11.57 -9.66,3.05 -19.62,6.68 -29.86,10.42 -50.46,18.42 -102.63,37.47 -139.87,-3.93 -1.27,-1.42 -3.38,-1.94 -5.78,-1.43 -2,0.42 -4.38,1.65 -5.09,3.8 -0.42,1.31 -0.1,2.7 0.88,3.79 37.73,41.95 97.13,26.91 144.66,9.11 12.3,-4.61 24.15,-8.99 35.62,-12.52 5.04,-1.55 -1.89,0.43 14.91,-4.11 16.81,-4.54 40.68,-7.57 52.53,-6.95 15.67,0.84 31.03,4.01 45.67,9.41 6.74,2.48 13.71,5.06 19.32,9.4 2.65,2.05 11.1,9.07 8.51,13.33 -15.24,25.08 -6.94,38.18 -6.58,38.73 0.51,0.78 1.44,1.15 2.33,0.92 0.89,-0.22 1.55,-1 1.65,-1.94 0.02,-0.09 1.07,-8.91 4.37,-17.58 0.53,-1.4 1.65,-3.66 2.85,-6.07 4.26,-8.6 7.01,-14.57 5.98,-18.1z"/>
 </g>
</svg>
